<?xml version="1.0" encoding="UTF-8"?>
<svg xmlns="http://www.w3.org/2000/svg" version="1.1" viewBox="0 0 402 814">
  <defs>
    <style>
      .cls-1, .cls-2 {
        fill: #e5b874;
      }

      .cls-2 {
        fill-opacity: .5;
      }

      .cls-3 {
        opacity: .5;
      }
    </style>
  </defs>
  <!-- Generator: Adobe Illustrator 28.7.1, SVG Export Plug-In . SVG Version: 1.2.0 Build 142)  -->
  <g>
    <g id="_레이어_1" data-name="레이어_1">
      <g class="cls-3">
        <path class="cls-1" d="M108.8,770.4h0c0,0,.1-.2.2-.3,0,0,.1-.1.2-.1s.3,0,.4.2v.2c-.2.3-.9,2.3-1.1,3,0,.2,0,.3.2.3s.6-.2.8-.5c.2-.2.2-.1.2,0s0,.2-.1.3c-.4.6-1,1-1.5,1s-.4-.2-.4-.4.2-.6.3-1c0,0,0-.2,0-.1-.5.5-1.5,1.4-2.2,1.4s-.4-.2-.4-.4.2-.7.4-1.1c.6-.9,1.4-1.8,2.2-2.4.2-.1.4-.2.4-.2s.3,0,.4.2h0ZM107.1,771.5c-.4.4-.9,1.4-.9,1.9s.1.3.2.3c.3,0,.6-.2,1-.7.5-.5.9-1.2,1.2-1.8,0-.2,0-.3,0-.3-.1-.1-.3-.2-.4-.2-.3,0-.8.3-1.2.8h.1Z"/>
        <path class="cls-1" d="M114.5,770.6c0,.2,0,.3-.2.6-.2.6-.8,1.8-.9,2-.1.2,0,.3,0,.3.2,0,.6-.3.9-.6,0,0,.2-.1.2,0s0,.2-.1.3c-.3.6-1.3,1.1-1.7,1.1s-.2,0-.3-.2c0,0-.1-.1,0-.3.1-.2,1.3-2.6,1.4-2.9s0-.4-.2-.4-.6.2-1.1.9c-.4.5-1.3,2-1.7,2.4-.3.4-.4.6-.5.6s-.3-.2-.3-.3c0-.2.3-.7.3-.8.3-.6.8-1.6,1.1-2.4,0-.1,0-.2-.1-.2-.3,0-.6.2-.8.4h-.1c0,.1,0,0,0,0,0-.3.4-1,1.3-1s.3.1.4.2v.3c0,.2-.5,1.3-.6,1.4,0,0,0,.1.1,0,.2-.3.9-1.2,1.2-1.4.4-.4.8-.5,1.1-.5.4,0,.6.3.6.6h0Z"/>
        <path class="cls-1" d="M117.3,770.3c.3-.2.7-.3.7-.3.1,0,.4.1.6.3h.1c.1-.4.4-1.1.7-2.4,0-.3,0-.4-.2-.5-.2,0-.3-.2-.3-.2,0,0,.1-.1.2-.1.2,0,.9-.2,1.2-.2s0,.2,0,.4c-.2.7-.6,1.7-1,3.2-.3,1-.6,2-.8,2.7,0,.2,0,.3.1.3.2,0,.6-.3.9-.7,0-.1.1,0,.1,0v.2c-.2.6-1,1.3-1.5,1.3s-.3-.3-.3-.4c0-.2.3-1,.4-1.3,0,0,0-.1,0,0-.7,1.1-1.6,1.8-2.3,1.8s-.3,0-.4-.2c-.1-.1-.2-.3-.2-.6,0-1,1-2.6,2.1-3.2h0ZM116,773.8c.3,0,1.1-.4,1.6-1.2.3-.5.6-.9.7-1.3.1-.3.1-.5,0-.7,0-.1-.2-.2-.3-.2-.2,0-.5.1-1.1.7-.7.8-1.2,1.8-1.2,2.4s.1.3.2.3h.1Z"/>
        <path class="cls-1" d="M189,767.4c1.4,0,2.3.6,2.7.9.6.5.9,1.4.9,2.1,0,1.4-.9,2.5-1.6,2.9-.6.3-1.5.6-2.3.6s-1.3,0-2,0h-.6c-.2,0-.3,0-.3-.2s.1-.2.2-.2c.7,0,.7-.3.7-1v-3.8c0-.6,0-.8-.6-.9-.1,0-.2,0-.2-.2s.1-.2.2-.2h.3c.5,0,1.6,0,2.5,0h0ZM188.6,767.7c-.3,0-.6,0-.7.1,0,0-.1,0-.1.1v5c0,.3.2.4.2.4.2.1.6.3.8.3.4,0,1.2-.2,1.8-.6.6-.5,1-1.4,1-2.4s-.4-1.7-1-2.2c-.5-.4-1.3-.6-2-.6h0Z"/>
        <path class="cls-1" d="M178,767.6c0,0,.1-.1.3-.1h1.3c.5,0,.2,0,.2.1.2.2.4.5.8,1,.4.6,2.6,2.9,3.2,3.5,0,0,.1,0,.1,0v-2.7c0-1.3,0-.7,0-1s-.1-.4-.6-.6c-.2,0-.3-.1-.3-.2s.1-.1.3-.1h1.8c.3,0,.2,0,.2.1s0,.2-.2.2c-.4.1-.6.2-.6.7s-.1,2.4-.1,3.9,0,1.2,0,1.4,0,.2-.2.2c-.2,0-.4-.2-.4-.3-.2-.2-.3-.4-.6-.8-.9-1.1-2.6-3-3.5-4h-.1v4c0,.4.2.6.6.7.2,0,.2.1.2.2,0,.1-.1.2-.3.2h-1.7c-.2,0-.3,0-.3-.1s.1-.2.2-.2c.4-.2.7-.2.7-.9,0-.9.2-3.1.2-3.9s0-.4,0-.5c-.2-.3-.3-.3-.8-.4-.1,0-.2-.1-.2-.2h-.2Z"/>
        <path class="cls-1" d="M174.5,767.3s0,0,.2.2c.1.3.3.7.4,1.2.5,1.4,1.3,3.4,1.5,3.8.3.8.5.9.9,1,.2,0,.2.1.2.2s0,.2-.3.2h-2.1c-.3,0-.3,0-.3-.1s0-.1.2-.2c.4-.1.4-.3.4-.5,0-.4-.3-1-.6-1.7,0,0,0-.1-.3-.1h-1.7s-.1,0-.1.1c-.3.7-.5,1.4-.5,1.7s0,.3.5.4c.2,0,.3.1.3.2s-.2.1-.3.1h-1.8c-.1,0-.2,0-.2-.1s0-.2.2-.2c.5-.2.6-.2.9-.8.2-.5,1.3-3.5,1.8-4.4,0-.1,0-.2.1-.2,0,0,0-.1,0-.2,0-.1.2-.3.3-.4s.1-.1.2-.1h0ZM174.9,770.9h0c-.2-.6-.7-2-.8-2.2,0,0,0,0-.1,0-.2.5-.7,1.8-.8,2.1,0,0,0,0,0,0h1.6Z"/>
        <path class="cls-1" d="M165.5,767.6c0,0,.1-.1.3-.1h2.1c.2,0,.3,0,.3.1s0,.2-.2.2c-.6.1-.6.2-.7.4,0,.4,0,1.4,0,2.9s0,1.7,0,2c0,.2.3.4.3.4h1.6c0,0,.2,0,.4-.2s.3-.3.6-.7c.1-.2.2-.2.2-.2,0,0,0,.1,0,.3-.2.4-.2.7-.3,1.1,0,.1-.2.2-.2.2-.1,0-1,0-3.1,0s-1.2,0-1.3,0-.3,0-.3-.1,0-.2.2-.2c.6-.1.7-.3.7-.7v-3.1c0-1.4,0-1.2,0-1.4s0-.4-.5-.5c-.2,0-.3-.1-.3-.2h.1Z"/>
        <path class="cls-1" d="M161.8,767.3s0,0,.2.2c.1.3.3.7.4,1.2.5,1.4,1.3,3.4,1.5,3.8.3.8.5.9.9,1,.2,0,.2.1.2.2s0,.2-.3.2h-2.1c-.3,0-.3,0-.3-.1s0-.1.2-.2c.4-.1.4-.3.4-.5,0-.4-.3-1-.6-1.7,0,0,0-.1-.3-.1h-1.7s-.1,0-.1.1c-.3.7-.5,1.4-.5,1.7s0,.3.5.4c.2,0,.3.1.3.2s-.2.1-.3.1h-1.8c-.1,0-.2,0-.2-.1s0-.2.2-.2c.5-.2.6-.2.9-.8.2-.5,1.3-3.5,1.8-4.4,0-.1,0-.2.1-.2,0,0,0-.1,0-.2,0-.1.2-.3.3-.4s.1-.1.2-.1h0ZM162.2,770.9h0c-.2-.6-.7-2-.8-2.2,0,0,0,0-.1,0-.2.5-.7,1.8-.8,2.1,0,0,0,0,0,0h1.6Z"/>
        <path class="cls-1" d="M154.6,767.5h2.3s0,0,.1.1v.9c0,.2,0,.3-.2.3s-.2-.2-.2-.2c-.1-.5-.3-.6-.7-.7-.2,0-.9,0-1.4,0,0,0-.1,0-.2.3v2.2s0,.1,0,.1h.7q.9,0,1.1-.5c0-.2.1-.2.2-.2s.1.2.1.2v1.3c0,.2,0,.3-.1.3s-.2-.1-.2-.2c-.2-.4-.2-.5-.8-.5h-1c-.3,0-.1,0-.1.1v1.5c0,.4,0,.7,0,.8,0,.1.1.2.2.2.2,0,.5,0,.9,0s.7,0,.9,0c.3-.1.6-.3.8-.7.1-.2.2-.3.2-.3s.1.2,0,.3c0,0-.3,1-.3,1h-.2c-.1.1-1.8,0-3.2,0s-.7,0-1.1,0-.3,0-.3-.1.1-.1.3-.2c.5-.1.7-.2.7-.7,0-.4,0-1.5,0-2.7v-1.7c0-.4-.1-.6-.6-.7-.2,0-.3-.1-.3-.2s.2-.2.3-.2h1.7Z"/>
        <path class="cls-1" d="M149.2,767.5h2.4s0,.2-.1.3c-.1.2-.4.6-.9,1.2-1,1.5-2.5,3.9-2.7,4.2h0c.1.2.9.2,1.4.2h1.2c.5,0,.7-.2,1.3-1,.1-.2.2-.3.3-.3s.1.1.1.2-.2.7-.5,1.3c0,.1-.2.2-.6.2h-4.5c-.1,0-.2,0-.2-.2s.2-.3.4-.6c.4-.6,3.1-4.6,3.3-5.1h0c-.3-.1-1.3-.2-1.7-.2h-.7c-.3,0-.6.2-.9.8,0,.2-.2.2-.2.2s-.2-.1,0-.3c0-.1.3-.8.4-1.2,0,0,0-.1.1-.1s.1,0,.2.1c.1.1.2.2.5.2h1.6,0Z"/>
        <path class="cls-1" d="M136,767.6c0,0,.1-.1.3-.1h2c.2,0,.3,0,.3.1s0,.2-.3.2c-.3,0-.3.2-.3.4.2.5,1.2,2.9,2,4.3h.1l.8-1.7v-.2c-.4-.9-.8-1.8-.9-2.1-.3-.6-.3-.7-.7-.8-.2,0-.2-.1-.2-.2s.2-.1.3-.1h1.8c0,0,.2,0,.2.1s-.1.2-.2.2c-.4,0-.4.2-.3.5.1.2.3.7.7,1.5h0c.2-.5.4-.8.6-1.3.2-.6.1-.7-.3-.8-.1,0-.2-.1-.2-.2s0-.1.3-.1h1.5c.2,0,.2,0,.2.1s0,.2-.3.2c-.3.1-.5.2-.8.7-.1.2-.4.6-.9,1.7v.2c.3.8.8,1.8,1,2.1,0,0,0,0,.1,0,.4-.9,1.2-2.6,1.8-3.9.2-.4.1-.6-.3-.8-.1,0-.2-.1-.2-.2,0-.1.1-.1.3-.1h1.6c.3,0,.3,0,.3.1s0,.2-.3.2c-.4.1-.6.2-.8.8-.1.2-.7,1.4-1.4,2.9-.7,1.5-.7,1.7-1,2.3,0,.1-.2.2-.2.2s-.1,0-.2-.2c-.2-.6-.7-1.7-1.1-2.5h0c-.3.7-.9,1.8-1.2,2.5,0,.1-.2.2-.2.2s-.1,0-.2-.2c-.1-.3-.2-.7-.6-1.5-.4-.9-1.3-3-1.7-3.7-.2-.5-.3-.7-.8-.8-.1,0-.3-.1-.3-.2l-.2-.2Z"/>
        <path class="cls-1" d="M132.8,767.5h2.3s0,0,.1.1v.9c0,.2,0,.3-.2.3s-.2-.2-.2-.2c-.1-.5-.3-.6-.7-.7-.2,0-.9,0-1.4,0,0,0-.1,0-.2.3s0,2,0,2.2c0,0,0,.1,0,.1h.7q.9,0,1.1-.5c0-.2.1-.2.2-.2s.1.2.1.2v1.3c0,.2,0,.3-.1.3s-.2-.1-.2-.2c-.2-.4-.2-.5-.8-.5h-1c-.3,0-.1,0-.1.1v1.5c0,.4,0,.7,0,.8,0,.1.1.2.2.2.2,0,.5,0,.9,0s.7,0,.9,0c.3-.1.6-.3.8-.7.1-.2.2-.3.2-.3s.1.2,0,.3c0,0-.3,1-.3,1h-.2c-.1.1-1.8,0-3.2,0s-.7,0-1.1,0-.3,0-.3-.1.1-.1.3-.2c.5-.1.7-.2.7-.7,0-.4,0-1.5,0-2.7v-1.7c0-.4-.1-.6-.6-.7-.2,0-.3-.1-.3-.2s.2-.2.3-.2h1.7Z"/>
        <path class="cls-1" d="M122.9,767.6c0,0,.1-.1.3-.1h1.3c.5,0,.2,0,.2.1.2.2.4.5.8,1,.4.6,2.6,2.9,3.2,3.5,0,0,.1,0,.1,0v-2.7c0-1.3,0-.7,0-1s-.1-.4-.6-.6c-.2,0-.3-.1-.3-.2s.1-.1.3-.1h1.8c.3,0,.2,0,.2.1s0,.2-.2.2c-.4.1-.6.2-.6.7s-.1,2.4-.1,3.9,0,1.2,0,1.4,0,.2-.2.2c-.2,0-.4-.2-.4-.3-.2-.2-.3-.4-.6-.8-.9-1.1-2.6-3-3.5-4h-.1v4c0,.4.2.6.6.7.2,0,.2.1.2.2,0,.1-.1.2-.3.2h-1.7c-.2,0-.3,0-.3-.1s.1-.2.2-.2c.4-.2.7-.2.7-.9,0-.9.2-3.1.2-3.9s0-.4,0-.5c-.2-.3-.3-.3-.8-.4-.1,0-.2-.1-.2-.2h-.2Z"/>
      </g>
      <path class="cls-2" d="M32.7,739.8c.4,0,.8,0,1.2.2.2,0,.6.2.8.2,0,0,.2,0,.2.3s0,.7,0,.9c0,.2,0,.3-.2.3s-.1-.1-.2-.3c0-.3-.3-.6-.4-.7-.5-.4-1-.5-1.6-.5-1.6,0-2.6,1.3-2.6,2.8s.1,1.2.3,1.7c.6,1.1,1.7,1.6,2.5,1.6s.7,0,1.1-.2c.4-.2.7-.5.9-1,.1-.2.2-.3.2-.3.1,0,.1.2,0,.3,0,.3-.2.8-.4,1,0,0-.2.2-.3.3-.2,0-.9.3-1.8.3-1.4,0-2.5-.7-2.9-1.2-.4-.4-.8-1.2-.8-2.3s.7-2,1.1-2.4c.9-.7,1.8-.9,2.7-.9ZM37.8,739.9h1.5c.3,0,.8,0,.9,0,0,0,0,0,0,.1,0,.4,0,.8,0,1s0,.3-.2.3-.1-.1-.2-.2c-.1-.5-.4-.6-.7-.7-.2,0-.9,0-1.4,0,0,0-.1,0-.1.3,0,.2,0,2,0,2.3,0,0,0,0,0,0h.7c.9,0,.9,0,1.1-.5,0-.2.1-.2.2-.2s.1.2,0,.2c0,.3,0,.5,0,.7s0,.4,0,.6c0,.2,0,.3-.1.3s-.1-.1-.2-.2c-.1-.5-.2-.5-.8-.5-.3,0-.7,0-1,0s0,0,0,0c0,.2,0,1.1,0,1.5s0,.7,0,.8c0,.1.1.2.2.2.2,0,.5,0,.9,0s.7,0,1,0c.3,0,.6-.3.8-.7.1-.2.2-.3.2-.3s0,.2,0,.3c0,0-.3,1-.4,1.1,0,0-.1.1-.2.1-.1,0-1.8,0-3.3,0s-.8,0-1.1,0-.3,0-.3-.1.1-.1.3-.2c.5-.1.7-.2.7-.7,0-.4,0-1.5,0-2.7s0-1.5,0-1.8c0-.4-.1-.6-.6-.7-.2,0-.3,0-.3-.2s.1-.1.3-.1c.5,0,.9,0,1.6,0ZM46.4,741.5c0,.5-.3,1.1-.8,1.4,0,0-.2.1-.3.2,0,0,0,.1,0,.2.1.3,1,1.6,1.5,2.3.3.3.5.5,1,.6,0,0,.2,0,.2.1s0,.1-.2.1c-.1,0-.4,0-.6,0-.6,0-1.1-.3-1.4-.6-.3-.5-.8-1.2-1.2-1.9-.1-.2-.3-.5-.4-.5,0,0-.4-.1-.7-.1s-.1,0-.1.1c0,.2,0,1.5,0,2,0,.4.1.6.6.7.2,0,.2.1.2.2,0,.1-.2.1-.3.1-.4,0-.7,0-1.3,0s-.7,0-.8,0-.3,0-.3-.1,0-.1.2-.2c.5-.1.6-.2.6-.6,0-.4,0-1.4,0-2.1,0-1.4,0-2.3,0-2.7,0-.3-.1-.4-.6-.5-.1,0-.2,0-.2-.2s0-.1.3-.1h.6c.4,0,1.1,0,1.6,0s1.2,0,1.7.4c.3.3.6.8.6,1.2ZM45.5,741.6c0-.2-.1-.7-.4-1-.2-.2-.6-.4-1-.4s-.3,0-.5,0c0,0-.1.2-.1.2,0,.4,0,2.2,0,2.4,0,0,.1.1.2.1.6,0,1.1-.2,1.2-.2.3-.2.6-.6.6-1.2ZM50,739.9h1.5c.3,0,.8,0,.9,0,0,0,0,0,0,.1,0,.4,0,.8,0,1s0,.3-.2.3-.1-.1-.2-.2c-.1-.5-.4-.6-.7-.7-.2,0-.9,0-1.4,0,0,0-.1,0-.1.3,0,.2,0,2,0,2.3,0,0,0,0,0,0h.7c.9,0,.9,0,1.1-.5,0-.2.1-.2.2-.2s.1.2,0,.2c0,.3,0,.5,0,.7s0,.4,0,.6c0,.2,0,.3-.1.3s-.1-.1-.2-.2c-.1-.5-.2-.5-.8-.5-.3,0-.7,0-1,0s0,0,0,0c0,.2,0,1.1,0,1.5s0,.7,0,.8c0,.1.1.2.2.2.2,0,.5,0,.9,0s.7,0,1,0c.3,0,.6-.3.8-.7.1-.2.2-.3.2-.3s0,.2,0,.3c0,0-.3,1-.4,1.1,0,0-.1.1-.2.1-.1,0-1.8,0-3.3,0s-.8,0-1.1,0-.3,0-.3-.1.1-.1.3-.2c.5-.1.7-.2.7-.7,0-.4,0-1.5,0-2.7s0-1.5,0-1.8c0-.4-.1-.6-.6-.7-.2,0-.3,0-.3-.2s.2-.1.3-.1c.5,0,1,0,1.6,0ZM56.7,739.9c.8,0,2,0,2.2,0,.1,0,.2,0,.2,0s0,.1-.1.3c-.1.1-.5.6-.9,1.2-1,1.5-2.5,3.9-2.8,4.3,0,0,0,.1,0,.1.1,0,.9.1,1.4.1.4,0,1,0,1.2,0,.5,0,.7-.1,1.3-1,.1-.2.2-.3.3-.3s0,0,0,.2-.2.7-.5,1.3c0,0-.2.2-.6.2-.9,0-3.1,0-3.6,0s-.8,0-.9,0-.2,0-.2-.1.2-.3.4-.6c.4-.6,3.1-4.7,3.3-5.1,0,0,0-.1,0-.1-.4,0-1.3,0-1.7,0s-.6,0-.7,0c-.3,0-.6.2-.9.8,0,.1-.2.2-.2.2s-.1,0,0-.3c0-.1.3-.8.4-1.2,0,0,0-.1.1-.1s.1,0,.2,0c.1.1.2.1.5.2.3,0,.9,0,1.6,0ZM61.1,743.1c0-.6,0-1.8,0-2.1,0-.5,0-.6-.6-.7-.2,0-.3-.1-.3-.2s.1-.1.3-.1c.3,0,.8,0,1.1,0,.5,0,.7,0,1.1,0s.3,0,.3.1-.1.1-.3.2c-.6.1-.6.4-.6.6,0,.3,0,.9,0,2.8s0,1.3,0,1.6c0,.5,0,.7.7.9.2,0,.3,0,.3.2s-.2.1-.3.1c-.5,0-1.2,0-1.5,0s-.4,0-.8,0-.3,0-.3-.2,0-.1.3-.2c.5-.1.5-.3.6-.7,0-.4,0-1.4,0-2.2ZM66.9,739.8s0,0,.2.2c0,.3.3.7.4,1.2.5,1.5,1.3,3.4,1.4,3.9.3.8.5.9.9,1,.2,0,.2,0,.2.2s0,.1-.3.1-.9,0-1.3,0-.5,0-.8,0-.3,0-.3-.1,0-.1.2-.2c.5,0,.4-.3.4-.5,0-.4-.3-1-.5-1.7,0,0,0-.1-.3-.1-.7,0-1.4,0-1.6,0,0,0,0,0-.1,0-.3.7-.5,1.4-.5,1.7s0,.3.5.4c.2,0,.3.1.3.2s-.1.1-.3.1-.4,0-.8,0-.9,0-1,0-.2,0-.2-.1,0-.2.2-.2c.5-.2.6-.2.9-.8.2-.5,1.4-3.5,1.8-4.5,0-.1,0-.2,0-.2,0,0,0,0,0-.2,0-.1.2-.3.3-.4,0,0,.1-.1.2-.1ZM67.3,743.4s0,0,0,0c-.2-.5-.7-1.9-.8-2.1,0,0,0,0,0,0-.2.5-.7,1.8-.8,2.1,0,0,0,0,0,0,.4,0,1.2,0,1.5,0ZM73.4,743.1c0-.6,0-1.8,0-2.1,0-.5,0-.6-.6-.7-.2,0-.3-.1-.3-.2s.1-.1.3-.1c.3,0,.8,0,1.1,0,.5,0,.7,0,1.1,0s.3,0,.3.1-.1.1-.3.2c-.6.1-.6.4-.6.6,0,.3,0,.9,0,2.8s0,1.3,0,1.6c0,.5,0,.7.7.9.2,0,.3,0,.3.2s-.2.1-.3.1c-.5,0-1.2,0-1.5,0s-.4,0-.8,0-.3,0-.3-.2,0-.1.3-.2c.5-.1.5-.3.6-.7,0-.4,0-1.4,0-2.2ZM78.4,739.8c.5,0,1,.1,1.2.2,0,0,.1.2.1.2,0,.2.1.8.1.8,0,.2,0,.3,0,.3s-.2,0-.2-.2c-.1-.3-.4-.6-.5-.7-.2-.2-.4-.2-.7-.2-.6,0-1.1.5-1.1,1.1s.5,1,1.4,1.6c.9.6,1.4,1.1,1.4,2s-.3,1.1-.8,1.4c-.3.2-.9.4-1.4.4s-1,0-1.3-.3c0,0-.2-.3-.2-.3,0-.3-.2-.8-.2-1s.1-.2.1-.2c0,0,.2.2.4.6.3.6.9.8,1.3.8.6,0,1.2-.5,1.2-1.2s-.2-.9-1.2-1.5c-.9-.6-1.5-1.2-1.5-2s.2-1,.6-1.2c.3-.3.8-.5,1.5-.5ZM85.8,739.9c.5,0,1.9,0,2.3,0,.4,0,.6,0,.7-.2,0,0,.1,0,.2,0s0,0,0,.2c-.1.3-.2.7-.2,1.2,0,0,0,.2-.2.2s-.1,0-.2-.3c0-.5-.2-.6-.8-.6-.2,0-1.2,0-1.4,0,0,0,0,0,0,.1,0,.5,0,1.5,0,2.4s0,2.1,0,2.5c0,.4,0,.6.7.7.1,0,.3.1.3.2,0,.1-.2.1-.3.1s-.8,0-1.2,0-1,0-1.2,0c-.2,0-.3,0-.3-.1s0-.2.2-.2c.7-.2.7-.3.7-1.1,0-.6,0-2.6,0-3.4v-1.2c0,0,0-.1,0-.1-.2,0-1,0-1.2,0-.3,0-.6,0-.7.2,0,0-.2.2-.3.5,0,.2-.2.2-.2.2,0,0-.1-.1-.1-.2,0-.2.2-.8.2-1.3s0-.2.1-.2,0,0,.2.2c0,0,.2.2.4.2.2,0,1.2,0,2.3,0ZM91.4,742.7c0,.2,0,.2.1.2.6,0,2,0,3.6,0s0,0,.1-.2c0-.1,0-1.4,0-1.8,0-.4,0-.5-.5-.6-.2,0-.3,0-.3-.2s0-.1.3-.1.8,0,1,0,.8,0,.9,0c.2,0,.3,0,.3.1s0,.1-.3.2c-.4.1-.5.3-.5.6,0,.5,0,1.5,0,3.2s0,1.4,0,1.6c0,.4.1.4.6.5.2,0,.2.1.2.2,0,0,0,.1-.3.1s-.6,0-.9,0-1,0-1.2,0-.3,0-.3-.1.1-.2.2-.2c.5-.2.6-.3.6-1,0-.4,0-1.2,0-1.6,0-.2,0-.2-.1-.2-1.4,0-3.4,0-3.6,0,0,0,0,0,0,.2,0,.3,0,1.5,0,1.8,0,.5,0,.6.5.8.2,0,.3.1.3.2,0,0-.2.1-.3.1s-.7,0-1.1,0-.7,0-1,0-.3,0-.3-.1.1-.1.2-.2c.5-.1.6-.2.6-.6,0-.4,0-1.6,0-3.2s0-1,0-1.5c0-.3,0-.5-.5-.6-.2,0-.3-.1-.3-.2s.1-.1.3-.1c.3,0,.7,0,1,0,.4,0,.8,0,1,0s.3,0,.3.1c0,0,0,.2-.3.2-.5,0-.5.2-.5.7,0,.3,0,1.6,0,1.8ZM99.7,739.9h1.5c.3,0,.8,0,.9,0,0,0,0,0,0,.1,0,.4,0,.8,0,1s0,.3-.2.3-.1-.1-.2-.2c-.1-.5-.4-.6-.7-.7-.2,0-.9,0-1.4,0,0,0-.1,0-.1.3,0,.2,0,2,0,2.3,0,0,0,0,0,0h.7c.9,0,.9,0,1.1-.5,0-.2.1-.2.2-.2s0,.2,0,.2c0,.3,0,.5,0,.7s0,.4,0,.6c0,.2,0,.3-.1.3s-.1-.1-.2-.2c-.1-.5-.2-.5-.8-.5-.3,0-.7,0-1,0s0,0,0,0c0,.2,0,1.1,0,1.5s0,.7,0,.8c0,.1.1.2.2.2.2,0,.5,0,.9,0s.7,0,.9,0c.3,0,.6-.3.8-.7.1-.2.2-.3.2-.3s0,.2,0,.3c0,0-.3,1-.4,1.1,0,0-.1.1-.2.1-.1,0-1.8,0-3.3,0s-.8,0-1.1,0-.3,0-.3-.1.1-.1.3-.2c.5-.1.7-.2.7-.7,0-.4,0-1.5,0-2.7s0-1.5,0-1.8c0-.4-.1-.6-.6-.7-.2,0-.3,0-.3-.2s.2-.1.3-.1c.5,0,1,0,1.6,0ZM107.9,739.8c.5,0,1,.1,1.2.2,0,0,.1.2.1.2,0,.2.1.8.1.8,0,.2,0,.3,0,.3s-.2,0-.2-.2c-.1-.3-.4-.6-.5-.7-.2-.2-.4-.2-.7-.2-.6,0-1.1.5-1.1,1.1s.5,1,1.4,1.6c.9.6,1.4,1.1,1.4,2s-.3,1.1-.8,1.4c-.3.2-.9.4-1.4.4s-1,0-1.3-.3c0,0-.2-.3-.2-.3,0-.3-.2-.8-.2-1s.1-.2.1-.2c0,0,.2.2.4.6.3.6.9.8,1.3.8.6,0,1.2-.5,1.2-1.2s-.2-.9-1.2-1.5c-.9-.6-1.5-1.2-1.5-2s.2-1,.6-1.2c.3-.3.8-.5,1.5-.5ZM110.3,740c0,0,.1-.1.3-.1.4,0,.7,0,1.1,0s.8,0,1,0,.3,0,.3.1,0,.1-.3.2c-.4,0-.5.2-.6.6,0,.3,0,1.3,0,2.8s.2,1.6.6,1.9c.3.3.9.5,1.4.5.7,0,1.6-.3,1.8-1.4.1-.5.2-1.4.2-2.5s0-1.1,0-1.2c0-.4-.1-.5-.7-.6,0,0-.2-.1-.2-.2s0-.1.2-.1.5,0,.9,0,.6,0,.9,0,.2,0,.2.1,0,.1-.2.2c-.4.1-.6.3-.6.9,0,.4,0,1.6,0,2.1,0,1.7-.5,2.6-1.2,3-.5.3-1,.3-1.4.3-.9,0-1.6-.3-1.8-.6-.6-.5-.8-1.2-.8-2.9s0-2.2,0-2.4c0-.2-.2-.3-.5-.4-.1,0-.2,0-.2-.2ZM118,740c0,0,0,0,.3,0,.6,0,.8,0,1.4,0s0,0,.1.1c.1.4.2.5.4.9.6,1.2,1.7,3.5,1.8,3.7,0,0,0,0,0,0,.1-.2,1.8-3.5,2-4,0,0,.2-.4.2-.6,0,0,0-.1.1-.1.4,0,1.2,0,1.3,0,.1,0,.3,0,.3.1s0,.1-.3.2c-.2,0-.3,0-.4.1-.2,0-.3.2-.3.8,0,2.5,0,4,.1,4.3,0,.4.2.5.7.7.2,0,.3.1.3.2s-.1.1-.3.1-.9,0-1.3,0-.6,0-.8,0-.3,0-.3-.1.1-.2.3-.2c.4-.1.4-.4.4-.7,0-.5,0-3.3,0-3.8,0,0,0-.1,0,0-.2.3-1.2,2.4-1.6,3.2-.2.5-.5,1.1-.6,1.4-.1.3-.2.3-.2.3s-.1,0-.2-.2c0-.2-.2-.6-.4-1-.5-1.3-1.4-3-1.7-3.7,0,0,0,0,0,0,0,.5-.2,2.8-.1,3.8,0,.5,0,.7.6.8.2,0,.3.1.3.2s-.1.1-.3.1c-.3,0-.7,0-1,0s-.6,0-.8,0-.3,0-.3-.1,0-.1.2-.2c.6-.2.7-.3.8-.9,0-.7.3-3.5.3-4.3,0,0,0-.5-.4-.6-.2,0-.3,0-.4-.1,0,0-.2,0-.2-.2ZM127,740c0,0,0,0,.3,0,.6,0,.8,0,1.4,0s.1,0,.1.1c.1.4.2.5.4.9.5,1.2,1.7,3.5,1.8,3.7,0,0,0,0,.1,0,.1-.2,1.8-3.5,2-4,0,0,.2-.4.2-.6,0,0,0-.1.1-.1.4,0,1.2,0,1.3,0,.1,0,.3,0,.3.1s0,.1-.3.2c-.2,0-.3,0-.4.1-.2,0-.3.2-.3.8,0,2.5,0,4,.1,4.3,0,.4.2.5.6.7.2,0,.3.1.3.2s-.1.1-.3.1-.9,0-1.3,0-.6,0-.8,0-.3,0-.3-.1.1-.2.3-.2c.4-.1.4-.4.5-.7,0-.5,0-3.3,0-3.8,0,0,0-.1-.1,0-.2.3-1.2,2.4-1.6,3.2-.2.5-.5,1.1-.6,1.4-.1.3-.2.3-.2.3s-.1,0-.2-.2c0-.2-.2-.6-.4-1-.5-1.3-1.4-3-1.7-3.7,0,0,0,0,0,0,0,.5-.2,2.8-.2,3.8,0,.5,0,.7.6.8.2,0,.3.1.3.2s-.1.1-.3.1c-.3,0-.7,0-1,0s-.6,0-.8,0-.3,0-.3-.1,0-.1.2-.2c.6-.2.7-.3.8-.9,0-.7.3-3.5.3-4.3,0,0,0-.5-.4-.6-.2,0-.3,0-.4-.1,0,0-.2,0-.2-.2ZM136.8,743.1c0-.6,0-1.8,0-2.1,0-.5,0-.6-.6-.7-.2,0-.3-.1-.3-.2s.1-.1.3-.1c.3,0,.8,0,1.1,0,.5,0,.7,0,1.1,0s.3,0,.3.1-.1.1-.3.2c-.6.1-.6.4-.6.6,0,.3,0,.9,0,2.8s0,1.3,0,1.6c0,.5,0,.7.7.9.2,0,.3,0,.3.2s-.2.1-.3.1c-.5,0-1.2,0-1.5,0s-.4,0-.8,0-.3,0-.3-.2,0-.1.3-.2c.5-.1.5-.3.6-.7,0-.4,0-1.4,0-2.2ZM142.4,739.9c.5,0,1.9,0,2.3,0,.4,0,.6,0,.7-.2,0,0,.1,0,.1,0s.1,0,0,.2c-.1.3-.2.7-.2,1.2,0,0,0,.2-.2.2s-.1,0-.1-.3c0-.5-.2-.6-.8-.6-.2,0-1.2,0-1.4,0,0,0,0,0,0,.1,0,.5,0,1.5,0,2.4s0,2.1,0,2.5c0,.4,0,.6.7.7.1,0,.3.1.3.2,0,.1-.2.1-.3.1s-.8,0-1.2,0-1,0-1.2,0c-.2,0-.3,0-.3-.1s0-.2.2-.2c.7-.2.7-.3.7-1.1,0-.6,0-2.6,0-3.4v-1.2c0,0,0-.1,0-.1-.2,0-1,0-1.2,0-.3,0-.6,0-.7.2,0,0-.2.2-.3.5,0,.2-.2.2-.2.2,0,0-.1-.1-.1-.2,0-.2.2-.8.2-1.3s0-.2.1-.2,0,0,.2.2c0,0,.2.2.4.2.2,0,1.2,0,2.3,0ZM151.5,739.8c2,0,3.5,1.5,3.5,3.3s-.7,2.3-1.4,2.9c-.6.4-1.4.6-2,.6-1,0-2-.4-2.6-1.1-.5-.6-.8-1.4-.8-2.3s.6-2.1,1.3-2.7c.5-.4,1.3-.7,2.1-.7ZM151.3,740.1c-.4,0-1,.2-1.3.5-.4.4-.8,1.2-.8,2.3s1.1,3.2,2.6,3.2,1.2-.3,1.3-.5c.4-.4.8-1.2.8-2.4s-.4-2.1-1.2-2.7c-.4-.3-1-.5-1.5-.5ZM157.3,739.9h1.3c.7,0,1.5,0,1.6,0,0,0,.1,0,.1.1,0,.3,0,.7,0,1,0,.1,0,.3-.1.3s-.2,0-.2-.3c-.2-.5-.3-.6-.6-.7-.3,0-1.3,0-1.5,0,0,0-.2,0-.2.1,0,.3,0,1.5,0,2.2s0,.4,0,.4c.4,0,1.2,0,1.4,0,.3,0,.4-.1.5-.5,0-.1.1-.2.2-.2s0,.1,0,.2,0,.5,0,.6c0,.4,0,.6,0,.8s0,.2-.1.2-.1,0-.2-.2c0-.4-.2-.4-.4-.5-.1,0-.5,0-.7,0s-.6,0-.8,0c0,0,0,0,0,.1,0,.3,0,1.6,0,1.9,0,.3,0,.5.7.6.2,0,.3.1.3.2s-.1.1-.3.1-.6,0-1,0-1,0-1.2,0-.3,0-.3-.1.1-.2.3-.2c.5-.1.6-.3.6-.5,0-.3,0-1,0-3s0-1.5,0-1.8c0-.3-.2-.5-.6-.6-.2,0-.3,0-.3-.2s.1-.1.3-.1c.4,0,.8,0,1.2,0ZM166.4,739.8s0,0,.1.2c0,.3.3.7.4,1.2.5,1.5,1.3,3.4,1.4,3.9.3.8.5.9.9,1,.2,0,.2,0,.2.2s0,.1-.3.1-.9,0-1.3,0-.5,0-.8,0-.3,0-.3-.1,0-.1.2-.2c.5,0,.4-.3.4-.5,0-.4-.3-1-.5-1.7,0,0,0-.1-.3-.1-.7,0-1.4,0-1.6,0,0,0,0,0-.1,0-.3.7-.5,1.4-.5,1.7s0,.3.5.4c.2,0,.3.1.3.2s-.1.1-.3.1-.4,0-.8,0-.9,0-1,0-.2,0-.2-.1,0-.2.2-.2c.5-.2.6-.2.9-.8.2-.5,1.4-3.5,1.8-4.5,0-.1,0-.2,0-.2,0,0,0,0,0-.2,0-.1.2-.3.3-.4,0,0,.1-.1.2-.1ZM166.8,743.4s0,0,0,0c-.2-.5-.7-1.9-.8-2.1,0,0,0,0,0,0-.2.5-.7,1.8-.8,2.1,0,0,0,0,0,0,.4,0,1.2,0,1.5,0ZM173.9,741.8c0-.9-.7-1.7-1.6-1.7s-.2,0-.3,0c0,0,0,.1-.1.4,0,.2,0,1.5,0,2.6,0,.9,0,1.7,0,2,0,.6,0,.7.6.9.2,0,.3.1.3.2s-.2.1-.3.1c-.3,0-.7,0-1.1,0s-.7,0-1,0-.3,0-.3-.1.1-.1.2-.2c.5-.1.7-.3.7-.7,0-.5,0-1.3,0-1.8s0-2.5,0-2.8c0-.4,0-.5-.6-.6-.2,0-.3,0-.3-.2s0-.1.2-.1c0,0,.2,0,.3,0,.4,0,1.2,0,1.7,0,.9,0,1.5.2,1.9.6.5.5.6,1,.6,1.4,0,.9-.4,1.3-.7,1.5-.3.2-.7.4-1.2.4s-.4,0-.5,0c-.1,0-.2-.1-.2-.2s0,0,.1,0h.2c.5,0,1.2-.5,1.2-1.6ZM179.3,739.8c2,0,3.5,1.5,3.5,3.3s-.7,2.3-1.4,2.9c-.6.4-1.4.6-2,.6-1,0-2-.4-2.6-1.1-.5-.6-.8-1.4-.8-2.3s.6-2.1,1.3-2.7c.5-.4,1.3-.7,2.1-.7ZM179.1,740.1c-.4,0-1,.2-1.3.5-.4.4-.8,1.2-.8,2.3s1.1,3.2,2.6,3.2,1.2-.3,1.3-.5c.4-.4.8-1.2.8-2.4s-.4-2.1-1.2-2.7c-.4-.3-1-.5-1.5-.5ZM187.6,739.8c.7,0,1.2.1,1.7.2.2,0,.3,0,.4,0,0,0,.1,0,.1.2,0,.2.1.7.1,1.1s0,.2-.1.2-.1,0-.2-.2c-.1-.3-.2-.5-.4-.7-.2-.3-.8-.6-1.6-.6-1.7,0-2.6,1.4-2.6,3s.1,1.3.4,1.8c.5.9,1.4,1.4,2.4,1.4s.6,0,.8-.2c0,0,.2-.4.2-.6,0-.4,0-.9,0-1,0-.2-.1-.4-.9-.5-.1,0-.3,0-.3-.2s.1-.1.3-.1.9,0,1.2,0,.6,0,1,0,.3,0,.3.1-.1.1-.2.2c-.3,0-.3.2-.4.3,0,.1,0,.8,0,1.2s0,.2.1.3c.1,0,.2.1.2.2s0,.1-.2.1c-.2,0-.5.1-.9.2-.4.1-1.1.2-1.4.2-1.1,0-2.1-.3-2.7-.9-.5-.4-1-1.2-1-2.5s.3-1.8,1.1-2.5c.6-.6,1.6-.9,2.6-.9ZM193.1,739.9h1.5c.3,0,.8,0,.9,0,0,0,0,0,0,.1,0,.4,0,.8,0,1s0,.3-.2.3-.1-.1-.2-.2c-.1-.5-.4-.6-.7-.7-.2,0-.9,0-1.4,0,0,0-.1,0-.1.3,0,.2,0,2,0,2.3,0,0,0,0,0,0h.7c.9,0,.9,0,1.1-.5,0-.2.1-.2.2-.2s0,.2,0,.2c0,.3,0,.5,0,.7s0,.4,0,.6c0,.2,0,.3-.1.3s-.1-.1-.2-.2c-.1-.5-.2-.5-.8-.5-.3,0-.7,0-1,0s0,0,0,0c0,.2,0,1.1,0,1.5s0,.7,0,.8c0,.1.1.2.2.2.2,0,.5,0,.9,0s.7,0,.9,0c.3,0,.6-.3.8-.7.1-.2.2-.3.2-.3s.1.2,0,.3c0,0-.3,1-.4,1.1,0,0-.1.1-.2.1-.1,0-1.8,0-3.3,0s-.8,0-1.1,0-.3,0-.3-.1.1-.1.3-.2c.5-.1.7-.2.7-.7,0-.4,0-1.5,0-2.7s0-1.5,0-1.8c0-.4-.1-.6-.6-.7-.2,0-.3,0-.3-.2s.2-.1.3-.1c.5,0,.9,0,1.6,0ZM194.5,738.1c.1,0,.3,0,.3,0,.1,0,.3.2.3.4s-.1.2-.2.3c-.5.3-1,.6-1.5.8,0,0-.3,0-.4,0,0,0,0-.1.1-.3.3-.3.9-.8,1.3-1.1ZM198.8,739.9h1.5c.3,0,.8,0,.9,0,0,0,0,0,0,.1,0,.4,0,.8,0,1s0,.3-.2.3-.1-.1-.2-.2c-.1-.5-.4-.6-.7-.7-.2,0-.9,0-1.4,0,0,0-.1,0-.1.3,0,.2,0,2,0,2.3,0,0,0,0,0,0h.7c.9,0,.9,0,1.1-.5,0-.2.1-.2.2-.2s0,.2,0,.2c0,.3,0,.5,0,.7s0,.4,0,.6c0,.2,0,.3-.1.3s-.1-.1-.2-.2c-.1-.5-.2-.5-.8-.5-.3,0-.7,0-1,0s0,0,0,0c0,.2,0,1.1,0,1.5s0,.7,0,.8c0,.1.1.2.2.2.2,0,.5,0,.9,0s.7,0,.9,0c.3,0,.6-.3.8-.7.1-.2.2-.3.2-.3s.1.2,0,.3c0,0-.3,1-.4,1.1,0,0-.1.1-.2.1-.1,0-1.8,0-3.3,0s-.8,0-1.1,0-.3,0-.3-.1.1-.1.3-.2c.5-.1.7-.2.7-.7,0-.4,0-1.5,0-2.7s0-1.5,0-1.8c0-.4-.1-.6-.6-.7-.2,0-.3,0-.3-.2s.2-.1.3-.1c.5,0,.9,0,1.6,0ZM203.4,739.4c0,0,.1,0,.1.2,0,.4-.2,1.3-.3,1.8,0,0-.1.3-.2.3s-.2-.2-.2-.3c0-.5-.1-1.3-.2-1.5,0,0,0-.1,0-.2.1,0,.5-.4.7-.4ZM206.9,739.8c.5,0,1,.1,1.2.2,0,0,.1.2.1.2,0,.2.1.8.1.8,0,.2,0,.3,0,.3s-.2,0-.2-.2c-.1-.3-.4-.6-.5-.7-.2-.2-.4-.2-.7-.2-.6,0-1.1.5-1.1,1.1s.5,1,1.4,1.6c.9.6,1.4,1.1,1.4,2s-.3,1.1-.8,1.4c-.3.2-.9.4-1.4.4s-1,0-1.3-.3c-.1,0-.2-.3-.2-.3,0-.3-.1-.8-.1-1s0-.2.1-.2c0,0,.2.2.4.6.3.6.9.8,1.3.8.6,0,1.2-.5,1.2-1.2s-.2-.9-1.2-1.5c-.9-.6-1.5-1.2-1.5-2s.2-1,.6-1.2c.3-.3.8-.5,1.5-.5ZM215,741.8c0-.9-.7-1.7-1.6-1.7s-.2,0-.3,0c0,0,0,.1-.1.4,0,.2,0,1.5,0,2.6,0,.9,0,1.7,0,2,0,.6,0,.7.6.9.2,0,.3.1.3.2s-.2.1-.3.1c-.3,0-.7,0-1.1,0s-.7,0-1,0-.3,0-.3-.1.1-.1.2-.2c.5-.1.7-.3.7-.7,0-.5,0-1.3,0-1.8s0-2.5,0-2.8c0-.4,0-.5-.6-.6-.2,0-.3,0-.3-.2s0-.1.2-.1c0,0,.2,0,.3,0,.4,0,1.2,0,1.7,0,.9,0,1.5.2,1.9.6.5.5.6,1,.6,1.4,0,.9-.4,1.3-.7,1.5-.3.2-.7.4-1.2.4s-.4,0-.5,0c-.1,0-.2-.1-.2-.2s0,0,.1,0h.2c.5,0,1.2-.5,1.2-1.6ZM221.6,741.5c0,.5-.3,1.1-.8,1.4,0,0-.2.1-.3.2,0,0,0,.1,0,.2.1.3,1,1.6,1.5,2.3.3.3.6.5,1,.6,0,0,.2,0,.2.1s0,.1-.2.1c-.1,0-.4,0-.6,0-.6,0-1.1-.3-1.4-.6-.3-.5-.9-1.2-1.2-1.9-.1-.2-.3-.5-.4-.5,0,0-.4-.1-.7-.1s-.1,0-.1.1c0,.2,0,1.5,0,2,0,.4.1.6.6.7.2,0,.2.1.2.2,0,.1-.2.1-.3.1-.4,0-.7,0-1.3,0s-.7,0-.8,0-.3,0-.3-.1,0-.1.2-.2c.5-.1.6-.2.6-.6,0-.4,0-1.4,0-2.1,0-1.4,0-2.3,0-2.7,0-.3-.1-.4-.6-.5-.1,0-.2,0-.2-.2s0-.1.3-.1h.6c.4,0,1.1,0,1.6,0s1.2,0,1.7.4c.3.3.6.8.6,1.2ZM220.6,741.6c0-.2-.1-.7-.4-1-.2-.2-.7-.4-1-.4s-.3,0-.5,0c0,0-.1.2-.1.2,0,.4,0,2.2,0,2.4,0,0,.1.1.2.1.6,0,1.1-.2,1.2-.2.3-.2.6-.6.6-1.2ZM225.2,739.9h1.5c.3,0,.8,0,.9,0,0,0,0,0,0,.1,0,.4,0,.8,0,1s0,.3-.2.3-.1-.1-.2-.2c-.1-.5-.4-.6-.7-.7-.2,0-.9,0-1.4,0,0,0-.1,0-.1.3,0,.2,0,2,0,2.3,0,0,0,0,0,0h.7c.9,0,.9,0,1.1-.5,0-.2.1-.2.2-.2s.1.2,0,.2c0,.3,0,.5,0,.7s0,.4,0,.6c0,.2,0,.3-.1.3s-.1-.1-.2-.2c-.1-.5-.2-.5-.8-.5-.3,0-.7,0-1,0s0,0,0,0c0,.2,0,1.1,0,1.5s0,.7,0,.8c0,.1.1.2.2.2.2,0,.5,0,.9,0s.7,0,.9,0c.3,0,.6-.3.8-.7.1-.2.2-.3.2-.3s.1.2,0,.3c0,0-.3,1-.4,1.1,0,0-.1.1-.2.1-.1,0-1.8,0-3.3,0s-.8,0-1.1,0-.3,0-.3-.1.1-.1.3-.2c.5-.1.7-.2.7-.7,0-.4,0-1.5,0-2.7s0-1.5,0-1.8c0-.4-.1-.6-.6-.7-.2,0-.3,0-.3-.2s.1-.1.3-.1c.5,0,.9,0,1.6,0ZM229.1,740c0,0,0,0,.3,0,.6,0,.8,0,1.4,0s.1,0,.1.1c.1.4.2.5.4.9.5,1.2,1.7,3.5,1.8,3.7,0,0,0,0,.1,0,.1-.2,1.8-3.5,2-4,0,0,.2-.4.2-.6,0,0,0-.1.1-.1.4,0,1.2,0,1.3,0,.1,0,.3,0,.3.1s0,.1-.3.2c-.2,0-.3,0-.4.1-.2,0-.3.2-.3.8,0,2.5,0,4,.1,4.3,0,.4.2.5.6.7.2,0,.3.1.3.2s-.1.1-.3.1-.9,0-1.3,0-.6,0-.8,0-.3,0-.3-.1.1-.2.3-.2c.4-.1.4-.4.5-.7,0-.5,0-3.3,0-3.8,0,0,0-.1-.1,0-.2.3-1.2,2.4-1.6,3.2-.2.5-.5,1.1-.6,1.4-.1.3-.2.3-.2.3s-.1,0-.2-.2c0-.2-.2-.6-.4-1-.5-1.3-1.4-3-1.7-3.7,0,0,0,0,0,0,0,.5-.2,2.8-.2,3.8,0,.5.1.7.6.8.2,0,.3.1.3.2s-.1.1-.3.1c-.3,0-.7,0-1,0s-.6,0-.8,0-.3,0-.3-.1,0-.1.2-.2c.6-.2.7-.3.8-.9,0-.7.3-3.5.3-4.3,0,0,0-.5-.4-.6-.2,0-.3,0-.4-.1,0,0-.2,0-.2-.2ZM238.9,743.1c0-.6,0-1.8,0-2.1,0-.5,0-.6-.6-.7-.2,0-.3-.1-.3-.2s.1-.1.3-.1c.3,0,.8,0,1.1,0,.5,0,.7,0,1.1,0s.3,0,.3.1-.1.1-.3.2c-.6.1-.6.4-.6.6,0,.3,0,.9,0,2.8s0,1.3,0,1.6c0,.5,0,.7.7.9.2,0,.3,0,.3.2s-.2.1-.3.1c-.5,0-1.2,0-1.5,0s-.4,0-.8,0-.3,0-.3-.2,0-.1.3-.2c.5-.1.5-.3.6-.7,0-.4,0-1.4,0-2.2ZM241.5,740c0,0,.1-.1.3-.1.4,0,.7,0,1.1,0s.8,0,1,0,.3,0,.3.1,0,.1-.3.2c-.4,0-.5.2-.6.6,0,.3,0,1.3,0,2.8s.2,1.6.6,1.9c.3.3.9.5,1.4.5.7,0,1.6-.3,1.9-1.4.1-.5.2-1.4.2-2.5s0-1.1,0-1.2c0-.4-.1-.5-.7-.6,0,0-.2-.1-.2-.2s0-.1.2-.1.5,0,.9,0,.6,0,.9,0,.2,0,.2.1,0,.1-.2.2c-.4.1-.6.3-.6.9,0,.4,0,1.6,0,2.1,0,1.7-.5,2.6-1.2,3-.5.3-1,.3-1.4.3-.9,0-1.6-.3-1.8-.6-.6-.5-.8-1.2-.8-2.9s0-2.2,0-2.4c0-.2-.2-.3-.5-.4-.1,0-.2,0-.2-.2ZM249.2,740c0,0,0,0,.3,0,.6,0,.8,0,1.4,0s.1,0,.1.1c.1.4.2.5.4.9.6,1.2,1.7,3.5,1.8,3.7,0,0,0,0,.1,0,.1-.2,1.8-3.5,2-4,0,0,.2-.4.2-.6,0,0,0-.1.1-.1.4,0,1.2,0,1.3,0,.1,0,.3,0,.3.1s0,.1-.3.2c-.2,0-.3,0-.5.1-.2,0-.3.2-.3.8,0,2.5,0,4,.1,4.3,0,.4.2.5.6.7.2,0,.3.1.3.2s-.1.1-.3.1-.9,0-1.3,0-.6,0-.8,0-.3,0-.3-.1.1-.2.3-.2c.4-.1.4-.4.4-.7,0-.5,0-3.3,0-3.8,0,0,0-.1-.1,0-.2.3-1.2,2.4-1.6,3.2-.2.5-.5,1.1-.6,1.4-.1.3-.2.3-.2.3s-.1,0-.2-.2c0-.2-.2-.6-.4-1-.5-1.3-1.4-3-1.7-3.7,0,0,0,0,0,0,0,.5-.2,2.8-.2,3.8,0,.5.1.7.6.8.2,0,.3.1.3.2s-.1.1-.3.1c-.3,0-.7,0-1,0s-.6,0-.8,0-.3,0-.3-.1,0-.1.2-.2c.6-.2.7-.3.8-.9,0-.7.3-3.5.3-4.3,0,0,0-.5-.4-.6-.2,0-.3,0-.4-.1,0,0-.2,0-.2-.2ZM263.9,739.8c.4,0,.8,0,1.2.2.2,0,.6.2.8.2,0,0,.1,0,.1.3s0,.7,0,.9c0,.2,0,.3-.1.3s-.1-.1-.2-.3c-.1-.3-.3-.6-.4-.7-.5-.4-1-.5-1.6-.5-1.6,0-2.6,1.3-2.6,2.8s.1,1.2.3,1.7c.6,1.1,1.7,1.6,2.5,1.6s.7,0,1.1-.2c.4-.2.7-.5.9-1,.1-.2.2-.3.2-.3.1,0,.1.2,0,.3,0,.3-.2.8-.4,1,0,0-.2.2-.3.3-.2,0-.9.3-1.8.3-1.4,0-2.5-.7-2.9-1.2-.4-.4-.8-1.2-.8-2.3s.7-2,1.1-2.4c.9-.7,1.8-.9,2.7-.9ZM269,742.7c0,.2,0,.2.1.2.6,0,2,0,3.6,0s0,0,.1-.2c0-.1,0-1.4,0-1.8,0-.4-.1-.5-.5-.6-.2,0-.3,0-.3-.2s.1-.1.3-.1.8,0,1,0,.8,0,.9,0c.2,0,.3,0,.3.1s0,.1-.3.2c-.4.1-.5.3-.5.6,0,.5,0,1.5,0,3.2s0,1.4,0,1.6c0,.4.1.4.6.5.2,0,.2.1.2.2,0,0,0,.1-.3.1s-.6,0-.9,0-1,0-1.2,0-.3,0-.3-.1.1-.2.2-.2c.5-.2.6-.3.6-1,0-.4,0-1.2,0-1.6,0-.2,0-.2-.1-.2-1.4,0-3.4,0-3.6,0,0,0,0,0,0,.2,0,.3,0,1.5,0,1.8,0,.5,0,.6.5.8.2,0,.3.1.3.2,0,0-.2.1-.3.1s-.7,0-1.1,0-.7,0-1,0-.3,0-.3-.1.1-.1.2-.2c.5-.1.6-.2.6-.6,0-.4,0-1.6,0-3.2s0-1,0-1.5c0-.3,0-.5-.5-.6-.2,0-.3-.1-.3-.2s.1-.1.3-.1c.3,0,.7,0,.9,0,.4,0,.8,0,1,0s.3,0,.3.1c0,0,0,.2-.3.2-.4,0-.5.2-.5.7,0,.3,0,1.6,0,1.8ZM277.3,739.9h1.5c.3,0,.8,0,.9,0,0,0,0,0,0,.1,0,.4,0,.8,0,1s0,.3-.2.3-.1-.1-.2-.2c-.1-.5-.4-.6-.7-.7-.2,0-.9,0-1.4,0,0,0-.1,0-.1.3,0,.2,0,2,0,2.3,0,0,0,0,0,0h.7c.9,0,.9,0,1.1-.5,0-.2.1-.2.2-.2s.1.2,0,.2c0,.3,0,.5,0,.7s0,.4,0,.6c0,.2,0,.3-.1.3s-.1-.1-.2-.2c-.1-.5-.2-.5-.8-.5-.3,0-.7,0-1,0s0,0,0,0c0,.2,0,1.1,0,1.5s0,.7,0,.8c0,.1.1.2.2.2.2,0,.5,0,.9,0s.7,0,1,0c.3,0,.6-.3.8-.7.1-.2.2-.3.2-.3s.1.2,0,.3c0,0-.3,1-.4,1.1,0,0-.1.1-.2.1-.1,0-1.8,0-3.3,0s-.8,0-1.1,0-.3,0-.3-.1.1-.1.3-.2c.5-.1.7-.2.7-.7,0-.4,0-1.5,0-2.7s0-1.5,0-1.8c0-.4-.1-.6-.6-.7-.2,0-.3,0-.3-.2s.2-.1.3-.1c.5,0,1,0,1.6,0ZM285.9,741.5c0,.5-.3,1.1-.8,1.4,0,0-.2.1-.3.2,0,0,0,.1,0,.2.1.3,1,1.6,1.5,2.3.3.3.6.5,1,.6,0,0,.2,0,.2.1s0,.1-.1.1c-.1,0-.4,0-.6,0-.6,0-1.1-.3-1.4-.6-.3-.5-.9-1.2-1.2-1.9-.1-.2-.3-.5-.4-.5,0,0-.4-.1-.7-.1s-.1,0-.1.1c0,.2,0,1.5,0,2,0,.4.1.6.6.7.2,0,.2.1.2.2,0,.1-.2.1-.3.1-.4,0-.7,0-1.3,0s-.7,0-.8,0-.3,0-.3-.1,0-.1.2-.2c.5-.1.6-.2.6-.6,0-.4,0-1.4,0-2.1,0-1.4,0-2.3,0-2.7,0-.3-.1-.4-.6-.5-.1,0-.2,0-.2-.2s0-.1.3-.1h.6c.4,0,1.1,0,1.6,0s1.2,0,1.7.4c.3.3.6.8.6,1.2ZM284.9,741.6c0-.2-.1-.7-.4-1-.2-.2-.6-.4-1-.4s-.4,0-.5,0c0,0-.1.2-.1.2,0,.4,0,2.2,0,2.4,0,0,.1.1.1.1.6,0,1.1-.2,1.2-.2.3-.2.6-.6.6-1.2ZM292.3,741.5c0,.5-.3,1.1-.8,1.4,0,0-.2.1-.3.2,0,0,0,.1,0,.2.1.3,1,1.6,1.5,2.3.3.3.5.5,1,.6,0,0,.2,0,.2.1s0,.1-.1.1c-.1,0-.4,0-.6,0-.6,0-1.1-.3-1.4-.6-.3-.5-.9-1.2-1.2-1.9-.1-.2-.3-.5-.4-.5,0,0-.4-.1-.7-.1s-.1,0-.1.1c0,.2,0,1.5,0,2,0,.4.1.6.6.7.2,0,.2.1.2.2,0,.1-.2.1-.3.1-.4,0-.6,0-1.3,0s-.7,0-.8,0-.3,0-.3-.1,0-.1.2-.2c.5-.1.6-.2.6-.6,0-.4,0-1.4,0-2.1,0-1.4,0-2.3,0-2.7,0-.3-.1-.4-.6-.5-.1,0-.2,0-.2-.2s0-.1.3-.1h.6c.4,0,1.1,0,1.6,0s1.2,0,1.7.4c.3.3.6.8.6,1.2ZM291.4,741.6c0-.2-.1-.7-.4-1-.2-.2-.6-.4-1-.4s-.4,0-.5,0c0,0-.1.2-.1.2,0,.4,0,2.2,0,2.4,0,0,.1.1.2.1.6,0,1.1-.2,1.2-.2.3-.2.6-.6.6-1.2ZM293.2,740c0,0,.1-.1.3-.1s.7,0,1.2,0,.4,0,.8,0,.2,0,.2.1,0,.2-.2.2c-.4,0-.3.2-.2.5.1.2.8,1.4,1.3,2.1,0,0,0,0,.1,0,.2-.4,1-1.6,1.2-2,.2-.4.1-.5-.3-.6-.1,0-.2-.1-.2-.2s.1,0,.2,0c.3,0,.4,0,.7,0,.4,0,1,0,1.1,0s.2,0,.2.1c0,0-.1.1-.3.2-.5.1-.8.4-1.1.8-.5.6-1,1.5-1.3,2,0,.1-.2.5-.2.6,0,.6,0,1.8,0,2.1,0,.2.1.3.7.5.2,0,.3.1.3.2s-.1.1-.3.1-.7,0-.9,0c-.6,0-1.3,0-1.4,0s-.2,0-.2-.1,0-.2.3-.2c.5-.1.6-.3.6-.5,0-.4,0-1.5,0-2s0-.3,0-.4c-.2-.4-.8-1.4-1.2-2.1-.5-.7-.6-.8-1-.9-.2,0-.3-.1-.3-.2ZM301.8,740c0,0,0-.1.3-.1s.5,0,.8,0,1.1,0,1.3,0,.3,0,.3.1,0,.1-.2.2c-.6.1-.6.2-.7.4,0,.5,0,1.5,0,3s0,1.7,0,2c0,.2.3.4.4.4.2,0,.6,0,.9,0s.6,0,.7,0c0,0,.2,0,.4-.2.1-.1.3-.3.6-.7.1-.2.2-.2.2-.2s0,.1,0,.3c-.1.5-.2.7-.3,1.1,0,0-.2.2-.2.2-.1,0-1,0-3.1,0s-1.1,0-1.3,0-.3,0-.3-.1,0-.2.2-.2c.6,0,.7-.3.7-.7,0-.2,0-1.7,0-3.2s0-1.2,0-1.5c0-.2,0-.4-.5-.5-.2,0-.3-.1-.3-.2ZM308.4,743.1c0-.6,0-1.8,0-2.1,0-.5,0-.6-.6-.7-.2,0-.3-.1-.3-.2s.1-.1.3-.1c.3,0,.8,0,1.1,0,.5,0,.7,0,1.1,0s.3,0,.3.1-.1.1-.3.2c-.6.1-.6.4-.6.6,0,.3,0,.9,0,2.8s0,1.3,0,1.6c0,.5,0,.7.7.9.2,0,.3,0,.3.2s-.2.1-.3.1c-.5,0-1.2,0-1.5,0s-.4,0-.8,0-.3,0-.3-.2,0-.1.3-.2c.5-.1.5-.3.6-.7,0-.4,0-1.4,0-2.2ZM310.9,740c0,0,.1-.1.3-.1s.8,0,1.3,0,.2,0,.2.1c.1.2.4.5.8,1,.5.6,2.6,2.9,3.2,3.6,0,0,0,0,0,0,0-.3,0-1.4,0-2.7s0-.7,0-1c0-.2,0-.5-.6-.6-.2,0-.3-.1-.3-.2s.1,0,.3,0c.2,0,.5,0,.8,0s.7,0,1,0,.2,0,.2.1,0,.2-.2.2c-.4.1-.6.2-.6.7,0,.4-.1,2.5-.1,4s0,1.2,0,1.4,0,.2-.1.2c-.2,0-.4-.2-.5-.3-.2-.2-.4-.5-.6-.8-.9-1.1-2.6-3-3.5-4.1,0,0-.1,0-.1,0,0,.3,0,.5,0,1.3s0,2.4,0,2.7c0,.4.1.6.6.7.2,0,.2.1.2.2,0,.1-.1.1-.3.1-.3,0-.7,0-1,0s-.5,0-.7,0-.3,0-.3-.1.1-.1.2-.2c.5-.1.7-.2.7-.9,0-.9.2-3.2.2-4s0-.5,0-.5c-.2-.3-.4-.3-.8-.5-.1,0-.2,0-.2-.2ZM320.8,739.9h1.5c.3,0,.8,0,.9,0,0,0,0,0,0,.1,0,.4,0,.8,0,1s0,.3-.2.3-.1-.1-.2-.2c-.1-.5-.4-.6-.7-.7-.2,0-.9,0-1.4,0,0,0-.1,0-.1.3,0,.2,0,2,0,2.3,0,0,0,0,0,0h.7c.9,0,.9,0,1.1-.5,0-.2.1-.2.2-.2s.1.2,0,.2c0,.3,0,.5,0,.7s0,.4,0,.6c0,.2,0,.3-.1.3s-.1-.1-.2-.2c-.1-.5-.2-.5-.8-.5-.3,0-.7,0-1,0s0,0,0,0c0,.2,0,1.1,0,1.5s0,.7,0,.8c0,.1.1.2.2.2.2,0,.5,0,.9,0s.7,0,1,0c.3,0,.6-.3.8-.7.1-.2.2-.3.2-.3s.1.2,0,.3c0,0-.3,1-.4,1.1,0,0-.1.1-.2.1-.1,0-1.8,0-3.3,0s-.8,0-1.1,0-.3,0-.3-.1.1-.1.3-.2c.5-.1.7-.2.7-.7,0-.4,0-1.5,0-2.7s0-1.5,0-1.8c0-.4-.1-.6-.6-.7-.2,0-.3,0-.3-.2s.2-.1.3-.1c.5,0,1,0,1.6,0ZM325.4,745.3c.4,0,.6.4.6.6,0,.3-.3.6-.6.6s-.6-.2-.6-.6.4-.6.6-.6ZM28.3,754c0,0,.1-.1.3-.1.5,0,.7,0,1.1,0s.8,0,.9,0c.2,0,.3,0,.3.1s0,.1-.3.2c-.3,0-.4.2-.3.4.2.5,1.2,2.9,1.9,4.4,0,0,0,0,0,0,0-.1.5-1,.8-1.7,0,0,0,0,0-.1-.4-.9-.8-1.9-1-2.2-.3-.6-.3-.7-.7-.8-.2,0-.2-.1-.2-.2s.1-.1.3-.1.5,0,.9,0c.5,0,.9,0,1,0s.2,0,.2.1,0,.2-.2.2c-.4,0-.4.2-.3.5.1.2.3.8.7,1.6,0,0,0,0,0,0,.2-.5.4-.8.6-1.3.2-.5.1-.7-.3-.8-.1,0-.2-.1-.2-.1,0,0,0-.1.3-.1s.4,0,.7,0,.7,0,.8,0,.2,0,.2,0c0,.1,0,.1-.3.2-.4,0-.5.2-.8.7,0,.2-.4.6-.9,1.7,0,0,0,.1,0,.2.4.8.8,1.8,1,2.2,0,0,0,0,.1,0,.4-.9,1.2-2.6,1.8-4,.2-.5.1-.6-.3-.8-.1,0-.2-.1-.2-.2,0,0,.1-.1.3-.1s.5,0,.7,0c.3,0,.6,0,.9,0s.3,0,.3.1,0,.1-.3.2c-.4,0-.6.2-.8.8-.1.2-.8,1.4-1.4,2.9-.7,1.6-.7,1.7-1,2.4,0,.1-.2.2-.2.2s-.1,0-.2-.2c-.2-.6-.7-1.7-1.1-2.5,0,0,0,0,0,0-.3.7-.9,1.8-1.2,2.6,0,.1-.2.2-.2.2s-.1,0-.2-.2c-.1-.3-.2-.7-.6-1.6-.4-.9-1.3-3-1.7-3.8-.2-.5-.3-.7-.8-.8-.1,0-.3,0-.3-.2ZM40.4,753.9h1.5c.3,0,.8,0,.9,0,0,0,0,0,0,.1,0,.4,0,.8,0,1s0,.3-.2.3-.1-.1-.2-.2c-.1-.5-.4-.6-.7-.7-.2,0-.9,0-1.4,0,0,0-.1,0-.1.3,0,.2,0,2,0,2.3,0,0,0,0,0,0h.7c.9,0,.9,0,1.1-.5,0-.2.1-.2.2-.2s0,.2,0,.2c0,.3,0,.5,0,.7s0,.4,0,.6c0,.2,0,.3-.1.3s-.1-.1-.2-.2c-.1-.5-.2-.5-.8-.5-.3,0-.7,0-1,0s0,0,0,0c0,.2,0,1.1,0,1.5s0,.7,0,.8c0,.1.1.2.2.2.2,0,.5,0,.9,0s.7,0,1,0c.3,0,.6-.3.8-.7.1-.2.2-.3.2-.3s.1.2,0,.3c0,0-.3,1-.4,1.1,0,0-.1.1-.2.1-.1,0-1.8,0-3.3,0s-.8,0-1.1,0-.3,0-.3-.1.1-.1.3-.2c.5-.1.7-.2.7-.7,0-.4,0-1.5,0-2.7s0-1.5,0-1.8c0-.4-.1-.6-.6-.7-.2,0-.3,0-.3-.2s.2-.1.3-.1c.5,0,1,0,1.6,0ZM50.1,753.8c.4,0,.8,0,1.2.2.2,0,.6.2.8.2,0,0,.1,0,.1.3s0,.7,0,.9c0,.2,0,.3-.2.3s-.1-.1-.2-.3c0-.3-.3-.6-.4-.7-.5-.4-1-.5-1.6-.5-1.6,0-2.6,1.3-2.6,2.8s.1,1.2.3,1.7c.6,1.1,1.7,1.6,2.5,1.6s.7,0,1.1-.2c.4-.2.7-.5.9-1,.1-.2.2-.3.2-.3.1,0,.1.2,0,.3,0,.3-.2.8-.4,1,0,0-.2.2-.3.3-.2,0-.9.3-1.8.3-1.4,0-2.5-.7-2.9-1.2-.4-.4-.8-1.2-.8-2.3s.7-2,1.1-2.4c.8-.7,1.8-.9,2.7-.9ZM56.6,753.8s0,0,.1.2c0,.3.3.7.4,1.2.5,1.5,1.3,3.4,1.4,3.9.3.8.5.9.9,1,.2,0,.2,0,.2.2s0,.1-.3.1-.9,0-1.3,0-.5,0-.8,0-.3,0-.3-.1,0-.1.2-.2c.5,0,.4-.3.4-.5,0-.4-.3-1-.6-1.7,0,0,0-.1-.3-.1-.7,0-1.5,0-1.7,0,0,0,0,0-.1,0-.3.7-.5,1.4-.5,1.7s0,.3.5.4c.2,0,.3.1.3.2s-.2.1-.3.1-.4,0-.8,0-.9,0-1,0-.2,0-.2-.1,0-.2.2-.2c.5-.2.6-.2.9-.8.2-.5,1.4-3.5,1.8-4.5,0-.1,0-.2,0-.2,0,0,0,0,0-.2,0-.1.2-.3.3-.4,0,0,.1-.1.2-.1ZM57,757.4s0,0,0,0c-.2-.5-.7-1.9-.8-2.1,0,0,0,0,0,0-.2.5-.7,1.8-.8,2.1,0,0,0,0,0,0,.4,0,1.2,0,1.5,0ZM65,755.5c0,.5-.3,1.1-.8,1.4,0,0-.2.1-.3.2,0,0,0,.1,0,.2.1.3,1,1.6,1.5,2.3.3.3.5.5,1,.6,0,0,.2,0,.2.1s0,.1-.2.1c-.1,0-.4,0-.6,0-.6,0-1.1-.3-1.4-.6-.3-.5-.8-1.2-1.2-1.9-.1-.2-.3-.5-.4-.5,0,0-.4-.1-.7-.1s-.1,0-.1.1c0,.2,0,1.5,0,2,0,.4.1.6.6.7.2,0,.2.1.2.2,0,.1-.2.1-.3.1-.4,0-.7,0-1.3,0s-.7,0-.8,0-.3,0-.3-.1,0-.1.2-.2c.5-.1.6-.2.6-.6,0-.4,0-1.4,0-2.1,0-1.4,0-2.3,0-2.7,0-.3-.1-.4-.6-.5-.1,0-.2,0-.2-.2s0-.1.3-.1h.6c.4,0,1.1,0,1.6,0s1.2,0,1.7.4c.3.3.6.8.6,1.2ZM64.1,755.6c0-.2-.1-.7-.4-1-.2-.2-.6-.4-1-.4s-.3,0-.5,0c0,0-.1.2-.1.2,0,.4,0,2.2,0,2.4,0,0,.1.1.2.1.6,0,1.1-.2,1.2-.2.3-.2.6-.6.6-1.2ZM68.6,753.9h1.5c.3,0,.8,0,.9,0,0,0,0,0,0,.1,0,.4,0,.8,0,1s0,.3-.2.3-.1-.1-.2-.2c-.1-.5-.4-.6-.7-.7-.2,0-.9,0-1.4,0,0,0-.1,0-.1.3,0,.2,0,2,0,2.3,0,0,0,0,0,0h.7c.9,0,.9,0,1.1-.5,0-.2.1-.2.2-.2s0,.2,0,.2c0,.3,0,.5,0,.7s0,.4,0,.6c0,.2,0,.3-.1.3s-.1-.1-.2-.2c-.1-.5-.2-.5-.8-.5-.3,0-.7,0-1,0s0,0,0,0c0,.2,0,1.1,0,1.5s0,.7,0,.8c0,.1.1.2.2.2.2,0,.5,0,.9,0s.7,0,.9,0c.3,0,.6-.3.8-.7.1-.2.2-.3.2-.3s.1.2,0,.3c0,0-.3,1-.4,1.1,0,0-.1.1-.2.1-.1,0-1.8,0-3.3,0s-.8,0-1.1,0-.3,0-.3-.1.1-.1.3-.2c.5-.1.7-.2.7-.7,0-.4,0-1.5,0-2.7s0-1.5,0-1.8c0-.4-.1-.6-.6-.7-.2,0-.3,0-.3-.2s.2-.1.3-.1c.5,0,.9,0,1.6,0ZM73.9,753.9h1.3c.7,0,1.5,0,1.6,0,0,0,.1,0,.1.1,0,.3,0,.7,0,1,0,.1,0,.3-.1.3s-.2,0-.2-.3c-.2-.5-.3-.6-.6-.7-.3,0-1.3,0-1.5,0,0,0-.2,0-.2.1,0,.3,0,1.5,0,2.2s0,.4,0,.4c.4,0,1.2,0,1.4,0,.3,0,.4-.1.5-.5,0-.1.1-.2.2-.2s0,.1,0,.2,0,.5,0,.6c0,.4,0,.6,0,.8s0,.2-.2.2-.1,0-.1-.2c-.1-.4-.2-.4-.4-.5-.1,0-.5,0-.7,0s-.6,0-.8,0c0,0,0,0,0,.1,0,.3,0,1.6,0,1.9,0,.3,0,.5.7.6.2,0,.3.1.3.2s0,.1-.3.1-.6,0-1,0-1,0-1.2,0-.3,0-.3-.1,0-.2.3-.2c.5-.1.6-.3.6-.5,0-.3,0-1,0-3s0-1.5,0-1.8c0-.3-.2-.5-.6-.6-.2,0-.3,0-.3-.2s.1-.1.3-.1c.4,0,.8,0,1.1,0ZM77.8,754c0,0,.1-.1.3-.1.4,0,.7,0,1.1,0s.8,0,1,0,.3,0,.3.1,0,.1-.3.2c-.4,0-.5.2-.6.6,0,.3,0,1.3,0,2.8s.2,1.6.6,1.9c.3.3.9.5,1.4.5.7,0,1.6-.3,1.8-1.4.1-.5.2-1.4.2-2.5s0-1.1,0-1.2c0-.4-.1-.5-.7-.6,0,0-.2-.1-.2-.2s0-.1.2-.1.5,0,.9,0,.6,0,.9,0,.2,0,.2.1,0,.1-.2.2c-.4.1-.6.3-.7.9,0,.4,0,1.6,0,2.1,0,1.7-.5,2.6-1.2,3-.5.3-1,.3-1.4.3-.9,0-1.6-.3-1.8-.6-.6-.5-.8-1.2-.8-2.9s0-2.2,0-2.4c0-.2-.2-.3-.5-.4-.1,0-.2,0-.2-.2ZM85.6,754c0,0,0-.1.3-.1s.5,0,.8,0,1.1,0,1.3,0,.3,0,.3.1,0,.1-.2.2c-.6.1-.6.2-.7.4,0,.5,0,1.5,0,3s0,1.7,0,2c0,.2.3.4.3.4.2,0,.6,0,.9,0s.6,0,.7,0c0,0,.2,0,.4-.2.1-.1.3-.3.6-.7.1-.2.2-.2.2-.2s0,.1,0,.3c-.1.5-.2.7-.3,1.1,0,0-.2.2-.2.2-.1,0-1,0-3.1,0s-1.1,0-1.3,0-.3,0-.3-.1,0-.2.2-.2c.6,0,.7-.3.7-.7,0-.2,0-1.7,0-3.2s0-1.2,0-1.5c0-.2,0-.4-.5-.5-.2,0-.3-.1-.3-.2ZM91.4,754c0,0,0-.1.3-.1s.5,0,.8,0,1.1,0,1.3,0,.3,0,.3.1,0,.1-.2.2c-.6.1-.6.2-.7.4,0,.5,0,1.5,0,3s0,1.7,0,2c0,.2.3.4.3.4.2,0,.6,0,.9,0s.6,0,.7,0,.2,0,.4-.2c.1-.1.3-.3.6-.7.1-.2.2-.2.2-.2s0,.1,0,.3c-.1.5-.2.7-.3,1.1,0,0-.2.2-.2.2-.1,0-1,0-3.1,0s-1.2,0-1.3,0-.3,0-.3-.1,0-.2.2-.2c.5,0,.7-.3.7-.7,0-.2,0-1.7,0-3.2s0-1.2,0-1.5c0-.2,0-.4-.5-.5-.2,0-.3-.1-.3-.2ZM95.9,754c0,0,0-.1.3-.1s.7,0,1.2,0,.4,0,.8,0,.2,0,.2.1,0,.2-.2.2c-.3,0-.3.2-.2.5.1.2.8,1.4,1.3,2.1,0,0,0,0,.1,0,.2-.4,1-1.6,1.3-2,.2-.4.1-.5-.3-.6-.2,0-.2-.1-.2-.2s.1,0,.2,0c.3,0,.4,0,.7,0,.3,0,1,0,1.1,0s.2,0,.2.1c0,0,0,.1-.3.2-.5.1-.8.4-1.1.8-.5.6-1,1.5-1.3,2,0,.1-.2.5-.2.6,0,.6,0,1.8,0,2.1,0,.2.1.3.7.5.2,0,.3.1.3.2s0,.1-.3.1-.7,0-.9,0c-.6,0-1.3,0-1.4,0s-.2,0-.2-.1,0-.2.3-.2c.5-.1.6-.3.7-.5,0-.4,0-1.5,0-2s0-.3,0-.4c-.2-.4-.8-1.4-1.2-2.1-.5-.7-.6-.8-1-.9-.2,0-.3-.1-.3-.2ZM106.9,753.8c.5,0,1,.1,1.2.2,0,0,.1.2.1.2,0,.2,0,.8,0,.8,0,.2,0,.3,0,.3s-.2,0-.2-.2c-.1-.3-.4-.6-.5-.7-.2-.2-.4-.2-.7-.2-.6,0-1.1.5-1.1,1.1s.5,1,1.4,1.6c.9.6,1.4,1.1,1.4,2s-.3,1.1-.8,1.4c-.3.2-.9.4-1.4.4s-1,0-1.3-.3c0,0-.2-.3-.2-.3,0-.3-.2-.8-.2-1s0-.2.1-.2c0,0,.2.2.4.6.3.6.9.8,1.3.8.6,0,1.2-.5,1.2-1.2s-.2-.9-1.2-1.5c-.9-.6-1.5-1.2-1.5-2s.2-1,.6-1.2c.3-.3.8-.5,1.5-.5ZM111.3,753.9h1.5c.3,0,.8,0,.9,0,0,0,0,0,0,.1,0,.4,0,.8,0,1s0,.3-.2.3-.1-.1-.2-.2c-.1-.5-.4-.6-.7-.7-.2,0-.9,0-1.4,0,0,0-.1,0-.1.3,0,.2,0,2,0,2.3,0,0,0,0,0,0h.7c.9,0,.9,0,1.1-.5,0-.2.1-.2.2-.2s.1.2,0,.2c0,.3,0,.5,0,.7s0,.4,0,.6c0,.2,0,.3-.1.3s-.1-.1-.2-.2c-.1-.5-.2-.5-.8-.5-.3,0-.7,0-1,0s0,0,0,0c0,.2,0,1.1,0,1.5s0,.7,0,.8c0,.1.1.2.2.2.2,0,.5,0,.9,0s.7,0,.9,0c.3,0,.6-.3.8-.7.1-.2.2-.3.2-.3s0,.2,0,.3c0,0-.3,1-.4,1.1,0,0-.1.1-.2.1-.1,0-1.8,0-3.3,0s-.8,0-1.1,0-.3,0-.3-.1.1-.1.3-.2c.5-.1.7-.2.7-.7,0-.4,0-1.5,0-2.7s0-1.5,0-1.8c0-.4-.1-.6-.6-.7-.2,0-.3,0-.3-.2s.2-.1.3-.1c.5,0,1,0,1.6,0ZM115.2,754c0,0,0-.1.3-.1s.5,0,.8,0,1.1,0,1.3,0,.3,0,.3.1,0,.1-.2.2c-.6.1-.6.2-.7.4,0,.5,0,1.5,0,3s0,1.7,0,2c0,.2.3.4.3.4.2,0,.6,0,.9,0s.6,0,.7,0c0,0,.2,0,.4-.2.1-.1.3-.3.6-.7.1-.2.2-.2.2-.2s0,.1,0,.3c-.1.5-.2.7-.3,1.1,0,0-.2.2-.2.2-.1,0-1,0-3.1,0s-1.1,0-1.3,0-.3,0-.3-.1,0-.2.2-.2c.6,0,.7-.3.7-.7,0-.2,0-1.7,0-3.2s0-1.2,0-1.5c0-.2,0-.4-.5-.5-.2,0-.3-.1-.3-.2ZM122.8,753.9h1.5c.3,0,.8,0,.9,0,0,0,0,0,0,.1,0,.4,0,.8,0,1s0,.3-.2.3-.1-.1-.2-.2c-.1-.5-.4-.6-.7-.7-.2,0-.9,0-1.4,0,0,0-.1,0-.1.3,0,.2,0,2,0,2.3,0,0,0,0,0,0h.7c.9,0,.9,0,1.1-.5,0-.2.1-.2.2-.2s0,.2,0,.2c0,.3,0,.5,0,.7s0,.4,0,.6c0,.2,0,.3-.1.3s-.1-.1-.2-.2c-.1-.5-.2-.5-.8-.5-.3,0-.7,0-1,0s0,0,0,0c0,.2,0,1.1,0,1.5s0,.7,0,.8c0,.1.1.2.2.2.2,0,.5,0,.9,0s.7,0,.9,0c.3,0,.6-.3.8-.7.1-.2.2-.3.2-.3s.1.2,0,.3c0,0-.3,1-.4,1.1,0,0-.1.1-.2.1-.1,0-1.8,0-3.3,0s-.8,0-1.1,0-.3,0-.3-.1.1-.1.3-.2c.5-.1.7-.2.7-.7,0-.4,0-1.5,0-2.7s0-1.5,0-1.8c0-.4-.1-.6-.6-.7-.2,0-.3,0-.3-.2s.2-.1.3-.1c.5,0,.9,0,1.6,0ZM130.5,753.8c.4,0,.8,0,1.2.2.2,0,.6.2.8.2,0,0,.1,0,.1.3s0,.7,0,.9c0,.2,0,.3-.1.3s-.1-.1-.2-.3c0-.3-.3-.6-.4-.7-.5-.4-1-.5-1.6-.5-1.6,0-2.6,1.3-2.6,2.8s.1,1.2.3,1.7c.6,1.1,1.7,1.6,2.5,1.6s.7,0,1.1-.2c.4-.2.7-.5.9-1,.1-.2.2-.3.2-.3.1,0,.1.2,0,.3,0,.3-.2.8-.4,1,0,0-.2.2-.3.3-.2,0-.9.3-1.8.3-1.4,0-2.5-.7-2.9-1.2-.4-.4-.8-1.2-.8-2.3s.7-2,1.1-2.4c.9-.7,1.8-.9,2.7-.9ZM136.8,753.9c.5,0,1.9,0,2.3,0,.4,0,.6,0,.7-.2,0,0,.1,0,.2,0s0,0,0,.2c0,.3-.2.7-.2,1.2,0,0,0,.2-.2.2s-.1,0-.1-.3c0-.5-.2-.6-.8-.6-.2,0-1.2,0-1.4,0,0,0,0,0,0,.1,0,.5,0,1.5,0,2.4s0,2.1,0,2.5c0,.4,0,.6.7.7.1,0,.3.1.3.2,0,.1-.2.1-.3.1s-.8,0-1.2,0-1,0-1.2,0c-.2,0-.3,0-.3-.1s.1-.2.2-.2c.7-.2.7-.3.7-1.1,0-.6,0-2.6,0-3.4v-1.2c0,0,0-.1,0-.1-.2,0-1,0-1.2,0-.3,0-.6,0-.7.2,0,0-.2.2-.3.5-.1.2-.2.2-.2.2,0,0-.1-.1-.1-.2,0-.2.2-.8.2-1.3s0-.2.2-.2,0,0,.2.2c0,0,.2.2.4.2.2,0,1.2,0,2.3,0ZM145.6,753.8s0,0,.1.2c0,.3.3.7.4,1.2.5,1.5,1.3,3.4,1.4,3.9.3.8.5.9.9,1,.2,0,.2,0,.2.2s0,.1-.3.1-.9,0-1.3,0-.5,0-.8,0-.3,0-.3-.1,0-.1.2-.2c.5,0,.4-.3.4-.5,0-.4-.3-1-.5-1.7,0,0,0-.1-.3-.1-.7,0-1.4,0-1.6,0,0,0,0,0-.1,0-.3.7-.5,1.4-.5,1.7s0,.3.5.4c.2,0,.3.1.3.2s-.1.1-.3.1-.4,0-.8,0-.9,0-1,0-.2,0-.2-.1,0-.2.2-.2c.5-.2.6-.2.9-.8.2-.5,1.4-3.5,1.8-4.5,0-.1,0-.2,0-.2,0,0,0,0,0-.2,0-.1.2-.3.3-.4,0,0,.1-.1.2-.1ZM146,757.4s0,0,0,0c-.2-.5-.7-1.9-.8-2.1,0,0,0,0,0,0-.2.5-.7,1.8-.8,2.1,0,0,0,0,0,0,.4,0,1.2,0,1.5,0ZM149.1,754c0,0,.1-.1.3-.1s.8,0,1.3,0,.2,0,.2.1c.1.2.4.5.8,1,.5.6,2.6,2.9,3.2,3.6,0,0,.1,0,.1,0,0-.3,0-1.4,0-2.7s0-.7,0-1c0-.2,0-.5-.6-.6-.2,0-.3-.1-.3-.2s.1,0,.3,0c.2,0,.5,0,.8,0s.7,0,1,0,.2,0,.2.1,0,.2-.2.2c-.4.1-.6.2-.6.7,0,.4-.1,2.5-.1,4s0,1.2,0,1.4,0,.2-.1.2c-.2,0-.4-.2-.5-.3-.2-.2-.4-.5-.6-.8-.9-1.1-2.6-3-3.5-4.1,0,0-.1,0-.1,0,0,.3,0,.5,0,1.3s0,2.4,0,2.7c0,.4.1.6.6.7.2,0,.2.1.2.2,0,.1-.1.1-.3.1-.3,0-.7,0-1,0s-.5,0-.7,0-.3,0-.3-.1.1-.1.2-.2c.5-.1.7-.2.7-.9,0-.9.2-3.2.2-4s0-.5,0-.5c-.2-.3-.4-.3-.8-.5-.1,0-.2,0-.2-.2ZM160.1,753.9c1.4,0,2.4.6,2.8,1,.5.5.9,1.4.9,2.2,0,1.5-.9,2.5-1.6,2.9-.6.3-1.4.5-2.4.5s-1.3,0-2,0c-.2,0-.4,0-.6,0s-.3,0-.3-.2.1-.1.2-.2c.7,0,.7-.3.8-1.1,0-.5,0-.8,0-1.4s0-1.7,0-2.5c0-.6,0-.8-.6-.9-.1,0-.2,0-.2-.2s0-.1.2-.1h.3c.5,0,1.6,0,2.5,0ZM159.7,754.2c-.3,0-.6,0-.6,0,0,0,0,0-.1.1,0,.2,0,1,0,1.9v1.5c0,.7,0,1.3,0,1.7,0,.3.2.4.2.5.2.1.6.3.8.3.4,0,1.2-.2,1.8-.6.6-.5,1-1.4,1-2.5s-.4-1.8-1-2.2c-.5-.4-1.3-.6-2-.6ZM170.1,753.8c2,0,3.5,1.5,3.5,3.3s-.7,2.3-1.4,2.9c-.6.4-1.4.6-2,.6-1,0-2-.4-2.6-1.1-.5-.6-.8-1.4-.8-2.3s.6-2.1,1.3-2.7c.5-.4,1.3-.7,2.1-.7ZM169.9,754.1c-.4,0-1,.2-1.3.5-.4.4-.8,1.2-.8,2.3s1.1,3.2,2.6,3.2,1.2-.3,1.3-.5c.4-.4.8-1.2.8-2.4s-.4-2.1-1.2-2.7c-.4-.3-1-.5-1.5-.5ZM176,753.9h1.3c.7,0,1.5,0,1.6,0,0,0,.1,0,.1.1,0,.3,0,.7,0,1,0,.1,0,.3-.1.3s-.2,0-.2-.3c-.2-.5-.3-.6-.6-.7-.3,0-1.3,0-1.5,0,0,0-.2,0-.2.1,0,.3,0,1.5,0,2.2s0,.4,0,.4c.4,0,1.2,0,1.4,0,.3,0,.4-.1.5-.5,0-.1.1-.2.2-.2s0,.1,0,.2,0,.5,0,.6c0,.4,0,.6,0,.8s0,.2-.2.2-.1,0-.1-.2c-.1-.4-.2-.4-.4-.5-.1,0-.5,0-.7,0s-.6,0-.8,0c0,0,0,0,0,.1,0,.3,0,1.6,0,1.9,0,.3,0,.5.7.6.2,0,.3.1.3.2s-.1.1-.3.1-.6,0-1,0-1,0-1.2,0-.3,0-.3-.1.1-.2.3-.2c.5-.1.6-.3.6-.5,0-.3,0-1,0-3s0-1.5,0-1.8c0-.3-.2-.5-.6-.6-.2,0-.3,0-.3-.2s.1-.1.3-.1c.4,0,.8,0,1.1,0ZM181.3,753.9h1.3c.7,0,1.5,0,1.6,0,0,0,.1,0,.1.1,0,.3,0,.7,0,1,0,.1,0,.3-.1.3s-.2,0-.2-.3c-.1-.5-.3-.6-.6-.7-.3,0-1.3,0-1.5,0-.1,0-.2,0-.2.1,0,.3,0,1.5,0,2.2s0,.4.1.4c.4,0,1.1,0,1.4,0,.3,0,.4-.1.5-.5,0-.1.1-.2.2-.2s.1.1.1.2,0,.5,0,.6c0,.4,0,.6,0,.8s0,.2-.1.2-.1,0-.2-.2c0-.4-.2-.4-.4-.5-.1,0-.5,0-.7,0s-.6,0-.8,0c0,0,0,0,0,.1,0,.3,0,1.6,0,1.9,0,.3,0,.5.7.6.2,0,.3.1.3.2s0,.1-.3.1-.6,0-1,0-1,0-1.2,0-.3,0-.3-.1,0-.2.3-.2c.5-.1.6-.3.6-.5,0-.3,0-1,0-3s0-1.5,0-1.8c0-.3-.2-.5-.6-.6-.2,0-.3,0-.3-.2s.1-.1.3-.1c.4,0,.8,0,1.2,0ZM187.1,753.9h1.5c.3,0,.8,0,.9,0,0,0,0,0,0,.1,0,.4,0,.8,0,1s0,.3-.2.3-.1-.1-.2-.2c-.1-.5-.4-.6-.7-.7-.2,0-.9,0-1.4,0,0,0-.1,0-.1.3,0,.2,0,2,0,2.3,0,0,0,0,0,0h.7c.9,0,.9,0,1.1-.5,0-.2.1-.2.2-.2s0,.2,0,.2c0,.3,0,.5,0,.7s0,.4,0,.6c0,.2,0,.3-.1.3s-.1-.1-.2-.2c-.1-.5-.2-.5-.8-.5-.3,0-.7,0-1,0s0,0,0,0c0,.2,0,1.1,0,1.5s0,.7,0,.8c0,.1.1.2.2.2.2,0,.5,0,.9,0s.7,0,.9,0c.3,0,.6-.3.8-.7.1-.2.2-.3.2-.3s.1.2,0,.3c0,0-.3,1-.4,1.1,0,0-.1.1-.2.1-.1,0-1.8,0-3.3,0s-.8,0-1.1,0-.3,0-.3-.1.1-.1.3-.2c.5-.1.7-.2.7-.7,0-.4,0-1.5,0-2.7s0-1.5,0-1.8c0-.4-.1-.6-.6-.7-.2,0-.3,0-.3-.2s.1-.1.3-.1c.5,0,.9,0,1.6,0ZM195.6,755.5c0,.5-.3,1.1-.8,1.4,0,0-.2.1-.3.2,0,0,0,.1,0,.2.1.3,1,1.6,1.5,2.3.3.3.6.5,1,.6,0,0,.2,0,.2.1s0,.1-.2.1c-.1,0-.4,0-.6,0-.6,0-1.1-.3-1.4-.6-.3-.5-.8-1.2-1.2-1.9-.1-.2-.3-.5-.4-.5,0,0-.4-.1-.7-.1s-.1,0-.1.1c0,.2,0,1.5,0,2,0,.4.1.6.6.7.2,0,.2.1.2.2,0,.1-.2.1-.3.1-.4,0-.7,0-1.3,0s-.7,0-.8,0-.3,0-.3-.1,0-.1.2-.2c.4-.1.6-.2.6-.6,0-.4,0-1.4,0-2.1,0-1.4,0-2.3,0-2.7,0-.3-.1-.4-.6-.5-.1,0-.2,0-.2-.2s0-.1.3-.1h.6c.4,0,1.1,0,1.6,0s1.2,0,1.7.4c.3.3.6.8.6,1.2ZM194.7,755.6c0-.2-.1-.7-.4-1-.2-.2-.7-.4-1-.4s-.4,0-.5,0c0,0-.1.2-.1.2,0,.4,0,2.2,0,2.4,0,0,.1.1.1.1.6,0,1.1-.2,1.2-.2.3-.2.6-.6.6-1.2ZM202.2,753.9c.5,0,1.9,0,2.3,0,.4,0,.6,0,.7-.2,0,0,.1,0,.1,0s.1,0,0,.2c0,.3-.2.7-.2,1.2,0,0,0,.2-.2.2s-.1,0-.1-.3c0-.5-.2-.6-.8-.6-.2,0-1.2,0-1.4,0,0,0,0,0,0,.1,0,.5,0,1.5,0,2.4s0,2.1,0,2.5c0,.4,0,.6.7.7.1,0,.3.1.3.2,0,.1-.2.1-.3.1s-.8,0-1.2,0-1,0-1.2,0c-.2,0-.3,0-.3-.1s.1-.2.2-.2c.7-.2.7-.3.7-1.1,0-.6,0-2.6,0-3.4v-1.2c0,0,0-.1,0-.1-.2,0-1,0-1.2,0-.3,0-.6,0-.7.2,0,0-.2.2-.3.5-.1.2-.2.2-.2.2,0,0-.1-.1-.1-.2,0-.2.2-.8.2-1.3s0-.2.2-.2,0,0,.2.2c0,0,.2.2.4.2.2,0,1.2,0,2.3,0ZM207.8,756.7c0,.2,0,.2.1.2.6,0,2,0,3.6,0s0,0,.1-.2c0-.1,0-1.4,0-1.8,0-.4,0-.5-.5-.6-.1,0-.3,0-.3-.2s0-.1.3-.1.8,0,1,0,.8,0,.9,0c.2,0,.3,0,.3.1s0,.1-.3.2c-.4.1-.5.3-.5.6,0,.5,0,1.5,0,3.2s0,1.4,0,1.6c0,.4.1.4.6.5.1,0,.2.1.2.2,0,0,0,.1-.3.1s-.6,0-.9,0-1,0-1.2,0-.3,0-.3-.1.1-.2.2-.2c.5-.2.6-.3.6-1,0-.4,0-1.2,0-1.6,0-.2,0-.2-.1-.2-1.4,0-3.4,0-3.6,0,0,0-.1,0-.1.2,0,.3,0,1.5,0,1.8,0,.5.1.6.5.8.2,0,.3.1.3.2,0,0-.2.1-.3.1s-.7,0-1.1,0-.7,0-1,0-.3,0-.3-.1.1-.1.2-.2c.5-.1.6-.2.6-.6,0-.4,0-1.6,0-3.2s0-1,0-1.5c0-.3,0-.5-.5-.6-.2,0-.3-.1-.3-.2s.1-.1.3-.1c.3,0,.7,0,.9,0,.4,0,.8,0,1,0s.3,0,.3.1c0,0-.1.2-.3.2-.4,0-.5.2-.5.7,0,.3,0,1.6,0,1.8ZM216.2,753.9h1.5c.3,0,.8,0,.9,0,0,0,0,0,0,.1,0,.4,0,.8,0,1s0,.3-.2.3-.1-.1-.2-.2c-.1-.5-.4-.6-.7-.7-.2,0-.9,0-1.4,0,0,0-.1,0-.1.3,0,.2,0,2,0,2.3,0,0,0,0,0,0h.7c.9,0,.9,0,1.1-.5,0-.2.1-.2.2-.2s0,.2,0,.2c0,.3,0,.5,0,.7s0,.4,0,.6c0,.2,0,.3-.1.3s-.1-.1-.2-.2c-.1-.5-.2-.5-.8-.5-.3,0-.7,0-1,0s0,0,0,0c0,.2,0,1.1,0,1.5s0,.7,0,.8c0,.1.1.2.2.2.2,0,.5,0,.9,0s.7,0,.9,0c.3,0,.6-.3.8-.7.1-.2.2-.3.2-.3s.1.2,0,.3c0,0-.3,1-.4,1.1,0,0-.1.1-.2.1-.1,0-1.8,0-3.3,0s-.8,0-1.1,0-.3,0-.3-.1.1-.1.3-.2c.5-.1.7-.2.7-.7,0-.4,0-1.5,0-2.7s0-1.5,0-1.8c0-.4-.1-.6-.6-.7-.2,0-.3,0-.3-.2s.1-.1.3-.1c.5,0,1,0,1.6,0ZM223.4,753.9h1.3c.7,0,1.5,0,1.6,0,0,0,.1,0,.1.1,0,.3,0,.7,0,1,0,.1,0,.3-.1.3s-.2,0-.2-.3c-.2-.5-.3-.6-.6-.7-.3,0-1.3,0-1.5,0,0,0-.2,0-.2.1,0,.3,0,1.5,0,2.2s0,.4,0,.4c.4,0,1.2,0,1.4,0,.3,0,.4-.1.5-.5,0-.1.1-.2.2-.2s0,.1,0,.2,0,.5,0,.6c0,.4,0,.6,0,.8s0,.2-.2.2-.1,0-.1-.2c-.1-.4-.2-.4-.4-.5-.1,0-.5,0-.7,0s-.6,0-.8,0c0,0,0,0,0,.1,0,.3,0,1.6,0,1.9,0,.3,0,.5.6.6.2,0,.3.1.3.2s-.1.1-.3.1-.6,0-1,0-1,0-1.2,0-.3,0-.3-.1.1-.2.3-.2c.5-.1.6-.3.6-.5,0-.3,0-1,0-3s0-1.5,0-1.8c0-.3-.2-.5-.6-.6-.2,0-.3,0-.3-.2s.1-.1.3-.1c.4,0,.8,0,1.1,0ZM228.1,757.1c0-.6,0-1.8,0-2.1,0-.5,0-.6-.6-.7-.2,0-.3-.1-.3-.2s.1-.1.3-.1c.3,0,.8,0,1.1,0,.5,0,.7,0,1.1,0s.3,0,.3.1-.1.1-.3.2c-.6.1-.6.4-.6.6,0,.3,0,.9,0,2.8s0,1.3,0,1.6c0,.5,0,.7.7.9.2,0,.3,0,.3.2s-.2.1-.3.1c-.5,0-1.2,0-1.5,0s-.4,0-.8,0-.3,0-.3-.2,0-.1.3-.2c.5-.1.5-.3.6-.7,0-.4,0-1.4,0-2.2ZM230.6,754c0,0,.1-.1.3-.1s.8,0,1.3,0,.2,0,.2.1c.1.2.4.5.8,1,.5.6,2.6,2.9,3.2,3.6,0,0,.1,0,.1,0,0-.3,0-1.4,0-2.7s0-.7,0-1c0-.2,0-.5-.6-.6-.2,0-.3-.1-.3-.2s.1,0,.3,0c.2,0,.5,0,.8,0s.7,0,1,0,.2,0,.2.1,0,.2-.2.2c-.4.1-.6.2-.6.7,0,.4-.1,2.5-.1,4s0,1.2,0,1.4,0,.2-.1.2c-.2,0-.4-.2-.5-.3-.2-.2-.4-.5-.6-.8-.9-1.1-2.6-3-3.5-4.1,0,0-.1,0-.1,0,0,.3,0,.5,0,1.3s0,2.4,0,2.7c0,.4.1.6.6.7.2,0,.2.1.2.2,0,.1-.1.1-.3.1-.3,0-.7,0-1,0s-.5,0-.7,0-.3,0-.3-.1.1-.1.2-.2c.5-.1.7-.2.7-.9,0-.9.2-3.2.2-4s0-.5,0-.5c-.2-.3-.4-.3-.8-.5-.1,0-.2,0-.2-.2ZM240.5,753.9h1.5c.3,0,.8,0,.9,0,0,0,0,0,0,.1,0,.4,0,.8,0,1s0,.3-.2.3-.1-.1-.2-.2c-.1-.5-.4-.6-.7-.7-.2,0-.9,0-1.4,0,0,0-.1,0-.1.3,0,.2,0,2,0,2.3,0,0,0,0,0,0h.7c.9,0,.9,0,1.1-.5,0-.2.1-.2.2-.2s0,.2,0,.2c0,.3,0,.5,0,.7s0,.4,0,.6c0,.2,0,.3-.1.3s-.1-.1-.2-.2c-.1-.5-.2-.5-.8-.5-.3,0-.7,0-1,0s0,0,0,0c0,.2,0,1.1,0,1.5s0,.7,0,.8c0,.1.1.2.2.2.2,0,.5,0,.9,0s.7,0,.9,0c.3,0,.6-.3.8-.7.1-.2.2-.3.2-.3s.1.2,0,.3c0,0-.3,1-.4,1.1,0,0-.1.1-.2.1-.1,0-1.8,0-3.3,0s-.8,0-1.1,0-.3,0-.3-.1.1-.1.3-.2c.5-.1.7-.2.7-.7,0-.4,0-1.5,0-2.7s0-1.5,0-1.8c0-.4-.1-.6-.6-.7-.2,0-.3,0-.3-.2s.2-.1.3-.1c.5,0,.9,0,1.6,0ZM246.8,753.8c.5,0,1,.1,1.2.2,0,0,.1.2.1.2,0,.2,0,.8,0,.8,0,.2,0,.3,0,.3s-.2,0-.2-.2c-.1-.3-.4-.6-.5-.7-.2-.2-.4-.2-.7-.2-.6,0-1.1.5-1.1,1.1s.5,1,1.4,1.6c.9.6,1.4,1.1,1.4,2s-.3,1.1-.8,1.4c-.3.2-.9.4-1.4.4s-1,0-1.3-.3c-.1,0-.2-.3-.2-.3,0-.3-.1-.8-.1-1s.1-.2.1-.2c0,0,.2.2.4.6.3.6.9.8,1.3.8.6,0,1.2-.5,1.2-1.2s-.2-.9-1.2-1.5c-.9-.6-1.5-1.2-1.5-2s.2-1,.6-1.2c.3-.3.8-.5,1.5-.5ZM252.3,753.9c.5,0,1.9,0,2.3,0,.4,0,.6,0,.7-.2,0,0,.1,0,.1,0s.1,0,0,.2c-.1.3-.2.7-.2,1.2,0,0,0,.2-.2.2s-.1,0-.1-.3c0-.5-.2-.6-.8-.6-.2,0-1.2,0-1.4,0,0,0,0,0,0,.1,0,.5,0,1.5,0,2.4s0,2.1,0,2.5c0,.4,0,.6.7.7.1,0,.3.1.3.2,0,.1-.2.1-.3.1s-.8,0-1.2,0-1,0-1.2,0c-.2,0-.3,0-.3-.1s0-.2.2-.2c.7-.2.7-.3.7-1.1,0-.6,0-2.6,0-3.4v-1.2c0,0,0-.1,0-.1-.2,0-1,0-1.2,0-.3,0-.6,0-.7.2,0,0-.2.2-.3.5,0,.2-.2.2-.2.2,0,0-.1-.1-.1-.2,0-.2.2-.8.2-1.3s0-.2.1-.2,0,0,.2.2c0,0,.2.2.4.2.2,0,1.2,0,2.3,0ZM261.8,753.8c.4,0,.8,0,1.2.2.2,0,.6.2.8.2,0,0,.1,0,.1.3s0,.7,0,.9c0,.2,0,.3-.2.3s-.1-.1-.2-.3c0-.3-.3-.6-.4-.7-.5-.4-1-.5-1.6-.5-1.6,0-2.6,1.3-2.6,2.8s.1,1.2.3,1.7c.6,1.1,1.7,1.6,2.5,1.6s.7,0,1.1-.2c.4-.2.7-.5.9-1,.1-.2.2-.3.2-.3.1,0,.1.2,0,.3,0,.3-.2.8-.4,1,0,0-.2.2-.3.3-.2,0-.9.3-1.8.3-1.4,0-2.5-.7-2.9-1.2-.4-.4-.8-1.2-.8-2.3s.7-2,1.1-2.4c.9-.7,1.8-.9,2.7-.9ZM266.9,756.7c0,.2,0,.2.1.2.6,0,2,0,3.6,0s0,0,.1-.2c0-.1,0-1.4,0-1.8,0-.4-.1-.5-.5-.6-.1,0-.3,0-.3-.2s.1-.1.3-.1.8,0,1,0,.8,0,.9,0c.2,0,.3,0,.3.1s0,.1-.3.2c-.4.1-.5.3-.5.6,0,.5,0,1.5,0,3.2s0,1.4,0,1.6c0,.4.1.4.6.5.1,0,.2.1.2.2,0,0,0,.1-.3.1s-.6,0-.9,0-1,0-1.2,0-.3,0-.3-.1.1-.2.2-.2c.5-.2.6-.3.6-1,0-.4,0-1.2,0-1.6,0-.2,0-.2-.1-.2-1.4,0-3.4,0-3.6,0,0,0-.1,0-.1.2,0,.3,0,1.5,0,1.8,0,.5.1.6.5.8.2,0,.3.1.3.2,0,0-.2.1-.3.1s-.7,0-1.1,0-.7,0-1,0-.3,0-.3-.1.1-.1.2-.2c.5-.1.6-.2.6-.6,0-.4,0-1.6,0-3.2s0-1,0-1.5c0-.3,0-.5-.5-.6-.2,0-.3-.1-.3-.2s.1-.1.3-.1c.3,0,.7,0,1,0,.4,0,.8,0,1,0s.3,0,.3.1c0,0-.1.2-.3.2-.5,0-.5.2-.5.7,0,.3,0,1.6,0,1.8ZM275.3,753.9h1.5c.3,0,.8,0,.9,0,0,0,0,0,0,.1,0,.4,0,.8,0,1s0,.3-.2.3-.1-.1-.2-.2c-.1-.5-.4-.6-.7-.7-.2,0-.9,0-1.4,0,0,0-.1,0-.1.3,0,.2,0,2,0,2.3,0,0,0,0,0,0h.7c.9,0,.9,0,1.1-.5,0-.2.1-.2.2-.2s.1.2,0,.2c0,.3,0,.5,0,.7s0,.4,0,.6c0,.2,0,.3-.1.3s-.1-.1-.2-.2c-.1-.5-.2-.5-.8-.5-.3,0-.7,0-1,0s0,0,0,0c0,.2,0,1.1,0,1.5s0,.7,0,.8c0,.1.1.2.2.2.2,0,.5,0,.9,0s.7,0,.9,0c.3,0,.6-.3.8-.7.1-.2.2-.3.2-.3s0,.2,0,.3c0,0-.3,1-.4,1.1,0,0-.1.1-.2.1-.1,0-1.8,0-3.3,0s-.8,0-1.1,0-.3,0-.3-.1.1-.1.3-.2c.5-.1.7-.2.7-.7,0-.4,0-1.5,0-2.7s0-1.5,0-1.8c0-.4-.1-.6-.6-.7-.2,0-.3,0-.3-.2s.1-.1.3-.1c.5,0,.9,0,1.6,0ZM283.8,755.5c0,.5-.3,1.1-.8,1.4,0,0-.2.1-.3.2,0,0,0,.1,0,.2.1.3,1,1.6,1.5,2.3.3.3.5.5,1,.6,0,0,.2,0,.2.1s0,.1-.2.1c-.1,0-.4,0-.6,0-.6,0-1.1-.3-1.4-.6-.3-.5-.8-1.2-1.2-1.9-.1-.2-.3-.5-.4-.5,0,0-.4-.1-.7-.1s-.1,0-.1.1c0,.2,0,1.5,0,2,0,.4.1.6.6.7.2,0,.2.1.2.2,0,.1-.2.1-.3.1-.4,0-.6,0-1.3,0s-.7,0-.8,0-.3,0-.3-.1,0-.1.2-.2c.4-.1.6-.2.6-.6,0-.4,0-1.4,0-2.1,0-1.4,0-2.3,0-2.7,0-.3-.1-.4-.6-.5-.1,0-.2,0-.2-.2s0-.1.3-.1h.6c.4,0,1.1,0,1.6,0s1.2,0,1.7.4c.3.3.6.8.6,1.2ZM282.9,755.6c0-.2-.1-.7-.4-1-.2-.2-.6-.4-1-.4s-.4,0-.5,0c0,0-.1.2-.1.2,0,.4,0,2.2,0,2.4,0,0,.1.1.1.1.6,0,1.1-.2,1.2-.2.3-.2.6-.6.6-1.2ZM290.3,755.5c0,.5-.3,1.1-.8,1.4,0,0-.2.1-.3.2,0,0,0,.1,0,.2.1.3,1,1.6,1.5,2.3.3.3.6.5,1,.6,0,0,.2,0,.2.1s0,.1-.1.1c-.1,0-.4,0-.6,0-.6,0-1.1-.3-1.4-.6-.3-.5-.9-1.2-1.2-1.9-.1-.2-.3-.5-.4-.5,0,0-.4-.1-.7-.1s-.1,0-.1.1c0,.2,0,1.5,0,2,0,.4.1.6.6.7.2,0,.2.1.2.2,0,.1-.2.1-.3.1-.4,0-.6,0-1.3,0s-.7,0-.8,0-.3,0-.3-.1,0-.1.2-.2c.4-.1.6-.2.6-.6,0-.4,0-1.4,0-2.1,0-1.4,0-2.3,0-2.7,0-.3-.1-.4-.6-.5-.2,0-.2,0-.2-.2s0-.1.3-.1h.6c.4,0,1.1,0,1.6,0s1.2,0,1.7.4c.3.3.6.8.6,1.2ZM289.3,755.6c0-.2-.1-.7-.4-1-.2-.2-.6-.4-1-.4s-.3,0-.5,0c0,0-.1.2-.1.2,0,.4,0,2.2,0,2.4,0,0,.1.1.1.1.6,0,1.1-.2,1.2-.2.3-.2.6-.6.6-1.2ZM292.9,757.1c0-.6,0-1.8,0-2.1,0-.5,0-.6-.6-.7-.2,0-.3-.1-.3-.2s.1-.1.3-.1c.3,0,.8,0,1.1,0,.5,0,.7,0,1.1,0s.3,0,.3.1-.1.1-.3.2c-.6.1-.6.4-.6.6,0,.3,0,.9,0,2.8s0,1.3,0,1.6c0,.5,0,.7.7.9.2,0,.3,0,.3.2s-.2.1-.3.1c-.5,0-1.2,0-1.5,0s-.4,0-.8,0-.3,0-.3-.2,0-.1.3-.2c.5-.1.5-.3.6-.7,0-.4,0-1.4,0-2.2ZM297.4,753.9h1.5c.3,0,.8,0,.9,0,0,0,0,0,0,.1,0,.4,0,.8,0,1s0,.3-.2.3-.1-.1-.2-.2c-.1-.5-.4-.6-.7-.7-.2,0-.9,0-1.4,0,0,0-.1,0-.1.3,0,.2,0,2,0,2.3,0,0,0,0,0,0h.7c.9,0,.9,0,1.1-.5,0-.2.1-.2.2-.2s0,.2,0,.2c0,.3,0,.5,0,.7s0,.4,0,.6c0,.2,0,.3-.1.3s-.1-.1-.2-.2c-.1-.5-.2-.5-.8-.5-.3,0-.7,0-1,0s0,0,0,0c0,.2,0,1.1,0,1.5s0,.7,0,.8c0,.1.1.2.2.2.2,0,.5,0,.9,0s.7,0,.9,0c.3,0,.6-.3.8-.7.1-.2.2-.3.2-.3s.1.2,0,.3c0,0-.3,1-.4,1.1,0,0-.1.1-.2.1-.1,0-1.8,0-3.3,0s-.8,0-1.1,0-.3,0-.3-.1.1-.1.3-.2c.5-.1.7-.2.7-.7,0-.4,0-1.5,0-2.7s0-1.5,0-1.8c0-.4-.1-.6-.6-.7-.2,0-.3,0-.3-.2s.1-.1.3-.1c.5,0,1,0,1.6,0ZM303.7,753.8c.5,0,1,.1,1.2.2,0,0,.1.2.1.2,0,.2.1.8.1.8,0,.2,0,.3,0,.3s-.2,0-.2-.2c-.1-.3-.4-.6-.5-.7-.2-.2-.4-.2-.7-.2-.6,0-1.1.5-1.1,1.1s.5,1,1.4,1.6c.9.6,1.4,1.1,1.4,2s-.3,1.1-.8,1.4c-.3.2-.9.4-1.4.4s-1,0-1.3-.3c-.1,0-.2-.3-.2-.3,0-.3-.1-.8-.1-1s.1-.2.1-.2c0,0,.2.2.4.6.3.6.9.8,1.3.8.6,0,1.2-.5,1.2-1.2s-.2-.9-1.2-1.5c-.9-.6-1.5-1.2-1.5-2s.2-1,.6-1.2c.3-.3.8-.5,1.5-.5ZM30.2,767.9h1.3c.7,0,1.5,0,1.6,0,0,0,.1,0,.1.1,0,.3,0,.7,0,1,0,.1,0,.3-.1.3s-.2,0-.2-.3c-.1-.5-.3-.6-.6-.7-.3,0-1.3,0-1.5,0,0,0-.2,0-.2.1,0,.3,0,1.5,0,2.2s0,.4.1.4c.4,0,1.1,0,1.4,0,.3,0,.4-.1.5-.5,0-.1.1-.2.2-.2s0,.1,0,.2,0,.5,0,.6c0,.4,0,.6,0,.8s0,.2-.1.2-.1,0-.2-.2c0-.4-.2-.4-.4-.5-.1,0-.5,0-.7,0s-.6,0-.8,0c0,0,0,0,0,.1,0,.3,0,1.6,0,1.9,0,.3,0,.5.7.6.2,0,.3.1.3.2s0,.1-.3.1-.6,0-1,0-1,0-1.2,0-.3,0-.3-.1,0-.2.3-.2c.5-.1.6-.3.6-.5,0-.3,0-1,0-3s0-1.5,0-1.8c0-.3-.2-.5-.6-.6-.2,0-.3,0-.3-.2s.1-.1.3-.1c.4,0,.8,0,1.1,0ZM38.8,769.5c0,.5-.3,1.1-.8,1.4,0,0-.2.1-.3.2,0,0,0,.1,0,.2.1.3,1,1.6,1.5,2.3.3.3.5.5,1,.6,0,0,.2,0,.2.1s0,.1-.2.1c-.1,0-.4,0-.6,0-.6,0-1.1-.3-1.4-.6-.3-.5-.9-1.2-1.2-1.9-.1-.2-.3-.5-.4-.5,0,0-.4-.1-.7-.1s-.1,0-.1.1c0,.2,0,1.5,0,2,0,.4.1.6.6.7.2,0,.2.1.2.2,0,.1-.2.1-.3.1-.4,0-.6,0-1.3,0s-.7,0-.8,0-.3,0-.3-.1,0-.1.2-.2c.4-.1.6-.2.6-.6,0-.4,0-1.4,0-2.1,0-1.4,0-2.3,0-2.7,0-.3-.1-.4-.6-.5-.1,0-.2,0-.2-.2s0-.1.3-.1h.6c.4,0,1.1,0,1.6,0s1.2,0,1.7.4c.3.3.6.8.6,1.2ZM37.8,769.6c0-.2-.1-.7-.4-1-.2-.2-.6-.4-1-.4s-.4,0-.5,0c0,0-.1.2-.1.2,0,.4,0,2.2,0,2.4,0,0,0,.1.2.1.6,0,1.1-.2,1.2-.2.3-.2.6-.6.6-1.2ZM43.8,767.8c2,0,3.5,1.5,3.5,3.3s-.7,2.3-1.4,2.9c-.6.4-1.5.6-2,.6-1,0-2-.4-2.6-1.1-.5-.6-.8-1.4-.8-2.3s.5-2.1,1.3-2.7c.5-.4,1.3-.7,2.1-.7ZM43.6,768.1c-.4,0-1,.2-1.3.5-.4.4-.8,1.2-.8,2.3s1.1,3.2,2.6,3.2,1.2-.3,1.3-.5c.4-.4.8-1.2.8-2.4s-.4-2.1-1.2-2.7c-.4-.3-1-.5-1.5-.5ZM48.3,768c0,0,0,0,.3,0,.6,0,.8,0,1.4,0s0,0,.1.1c.1.4.2.5.4.9.5,1.2,1.7,3.5,1.8,3.7,0,0,0,0,.1,0,.1-.2,1.8-3.5,2-4,0,0,.2-.4.2-.6,0,0,0-.1.1-.1.4,0,1.2,0,1.3,0,.1,0,.3,0,.3.1s0,.1-.3.2c-.2,0-.3,0-.5.1-.2,0-.3.2-.3.8,0,2.5,0,4,.1,4.3,0,.4.2.5.6.7.2,0,.3.1.3.2s-.1.1-.3.1-.9,0-1.3,0-.6,0-.8,0-.3,0-.3-.1.1-.2.3-.2c.4-.1.4-.4.5-.7,0-.5,0-3.3,0-3.8,0,0,0-.1-.1,0-.2.3-1.2,2.4-1.6,3.2-.2.5-.5,1.1-.6,1.4-.1.3-.2.3-.2.3s-.1,0-.2-.2c0-.2-.2-.6-.4-1-.5-1.3-1.4-3-1.7-3.7,0,0,0,0,0,0,0,.5-.2,2.8-.2,3.8,0,.5.1.7.6.8.2,0,.3.1.3.2s-.1.1-.3.1c-.3,0-.7,0-1,0s-.6,0-.8,0-.3,0-.3-.1,0-.1.2-.2c.6-.2.7-.3.8-.9,0-.7.3-3.5.3-4.3,0,0,0-.5-.4-.6-.2,0-.3,0-.4-.1,0,0-.2,0-.2-.2ZM63,767.8c.4,0,.8,0,1.2.2.3,0,.6.2.8.2,0,0,.1,0,.1.3s0,.7,0,.9c0,.2,0,.3-.2.3s-.1-.1-.2-.3c0-.3-.3-.6-.4-.7-.5-.4-1-.5-1.6-.5-1.6,0-2.6,1.3-2.6,2.8s.1,1.2.3,1.7c.6,1.1,1.7,1.6,2.5,1.6s.7,0,1.1-.2c.4-.2.7-.5.9-1,.1-.2.2-.3.2-.3.1,0,.1.2,0,.3,0,.3-.2.8-.4,1,0,0-.2.2-.3.3-.2,0-.9.3-1.8.3-1.4,0-2.5-.7-2.9-1.2-.4-.4-.8-1.2-.8-2.3s.7-2,1.1-2.4c.8-.7,1.8-.9,2.7-.9ZM69.5,767.8s0,0,.2.2c0,.3.3.7.4,1.2.5,1.5,1.3,3.4,1.4,3.9.3.8.5.9.9,1,.2,0,.2,0,.2.2s0,.1-.3.1-.9,0-1.3,0-.5,0-.8,0-.3,0-.3-.1,0-.1.2-.2c.5,0,.4-.3.4-.5,0-.4-.3-1-.6-1.7,0,0,0-.1-.3-.1-.7,0-1.4,0-1.7,0,0,0,0,0-.1,0-.3.7-.5,1.4-.5,1.7s0,.3.5.4c.2,0,.3.1.3.2s-.2.1-.3.1-.4,0-.8,0-.9,0-1,0-.2,0-.2-.1,0-.2.2-.2c.5-.2.6-.2.9-.8.2-.5,1.4-3.5,1.8-4.5,0-.1,0-.2,0-.2,0,0,0,0,0-.2,0-.1.2-.3.3-.4,0,0,.1-.1.2-.1ZM69.9,771.4s0,0,0,0c-.2-.5-.7-1.9-.8-2.1,0,0,0,0,0,0-.2.5-.7,1.8-.8,2.1,0,0,0,0,0,0,.4,0,1.2,0,1.5,0ZM73,768c0,0,0-.1.3-.1s.8,0,1.3,0,.2,0,.2.1c.2.2.4.5.8,1,.5.6,2.6,2.9,3.2,3.6,0,0,0,0,0,0,0-.3,0-1.4,0-2.7s0-.7,0-1c0-.2,0-.5-.6-.6-.2,0-.3-.1-.3-.2s.1,0,.3,0c.2,0,.5,0,.8,0s.7,0,1,0,.2,0,.2.1,0,.2-.2.2c-.4.1-.6.2-.6.7,0,.4-.1,2.5-.1,4s0,1.2,0,1.4,0,.2-.1.2c-.2,0-.4-.2-.5-.3-.2-.2-.4-.5-.6-.8-.9-1.1-2.6-3-3.5-4.1,0,0-.1,0-.1,0,0,.3,0,.5,0,1.3s0,2.4,0,2.7c0,.4.1.6.6.7.2,0,.2.1.2.2,0,.1-.1.1-.3.1-.3,0-.7,0-1,0s-.5,0-.7,0-.3,0-.3-.1.1-.1.2-.2c.5-.1.7-.2.7-.9,0-.9.2-3.2.2-4s0-.5,0-.5c-.2-.3-.3-.3-.8-.5-.1,0-.2,0-.2-.2ZM83.9,767.8s0,0,.2.2c0,.3.3.7.4,1.2.5,1.5,1.3,3.4,1.4,3.9.3.8.5.9.9,1,.2,0,.2,0,.2.2s0,.1-.3.1-.9,0-1.3,0-.5,0-.8,0-.3,0-.3-.1,0-.1.2-.2c.5,0,.4-.3.4-.5,0-.4-.3-1-.5-1.7,0,0,0-.1-.3-.1-.7,0-1.4,0-1.6,0,0,0,0,0-.1,0-.3.7-.5,1.4-.5,1.7s0,.3.5.4c.2,0,.3.1.3.2s-.1.1-.3.1-.4,0-.8,0-.9,0-1,0-.2,0-.2-.1,0-.2.2-.2c.5-.2.6-.2.9-.8.2-.5,1.4-3.5,1.8-4.5,0-.1,0-.2,0-.2,0,0,0,0,0-.2,0-.1.2-.3.3-.4,0,0,.1-.1.2-.1ZM84.3,771.4s0,0,0,0c-.2-.5-.7-1.9-.8-2.1,0,0,0,0,0,0-.2.5-.7,1.8-.8,2.1,0,0,0,0,0,0,.4,0,1.2,0,1.5,0ZM90.6,767.9c1.4,0,2.3.6,2.8,1,.5.5.9,1.4.9,2.2,0,1.5-.9,2.5-1.6,2.9-.6.3-1.4.5-2.4.5s-1.3,0-2,0c-.2,0-.4,0-.6,0s-.3,0-.3-.2,0-.1.2-.2c.7,0,.7-.3.8-1.1,0-.5,0-.8,0-1.4s0-1.7,0-2.5c0-.6,0-.8-.6-.9-.1,0-.2,0-.2-.2s0-.1.2-.1h.3c.5,0,1.6,0,2.5,0ZM90.2,768.2c-.3,0-.6,0-.7,0,0,0,0,0,0,.1,0,.2,0,1,0,1.9v1.5c0,.7,0,1.3,0,1.7,0,.3.2.4.2.5.2.1.6.3.8.3.4,0,1.2-.2,1.8-.6.6-.5,1-1.4,1-2.5s-.4-1.8-1-2.2c-.5-.4-1.3-.6-2-.6ZM98.2,767.8s0,0,.1.2c0,.3.3.7.4,1.2.5,1.5,1.3,3.4,1.4,3.9.3.8.5.9.9,1,.2,0,.2,0,.2.2s0,.1-.3.1-.9,0-1.3,0-.5,0-.8,0-.3,0-.3-.1,0-.1.2-.2c.5,0,.4-.3.4-.5,0-.4-.3-1-.6-1.7,0,0,0-.1-.3-.1-.7,0-1.5,0-1.7,0,0,0,0,0-.1,0-.3.7-.5,1.4-.5,1.7s0,.3.5.4c.2,0,.3.1.3.2s-.2.1-.3.1-.4,0-.8,0-.9,0-1,0-.2,0-.2-.1,0-.2.2-.2c.5-.2.6-.2.9-.8.2-.5,1.4-3.5,1.8-4.5,0-.1,0-.2,0-.2,0,0,0,0,0-.2,0-.1.2-.3.3-.4,0,0,.1-.1.2-.1ZM98.6,771.4s0,0,0,0c-.2-.5-.7-1.9-.8-2.1,0,0,0,0,0,0-.2.5-.7,1.8-.8,2.1,0,0,0,0,0,0,.4,0,1.2,0,1.5,0ZM30.7,782.9h1.5c.3,0,.8,0,.9,0,0,0,0,0,0,.1,0,.4,0,.8,0,1s0,.3-.2.3-.1-.1-.2-.2c-.1-.5-.4-.6-.7-.7-.2,0-.9,0-1.4,0,0,0-.1,0-.1.3,0,.2,0,2,0,2.3,0,0,0,0,0,0h.7c.9,0,.9,0,1.1-.5,0-.2.1-.2.2-.2s.1.2,0,.2c0,.3,0,.5,0,.7s0,.4,0,.6c0,.2,0,.3-.1.3s-.1-.1-.2-.2c-.1-.5-.2-.5-.8-.5-.3,0-.7,0-1,0s0,0,0,0c0,.2,0,1.1,0,1.5s0,.7,0,.8c0,.1.1.2.2.2.2,0,.5,0,.9,0s.7,0,.9,0c.3,0,.6-.3.8-.7.1-.2.2-.3.2-.3s0,.2,0,.3c0,0-.3,1-.4,1.1,0,0-.1.1-.2.1-.1,0-1.8,0-3.3,0s-.8,0-1.1,0-.3,0-.3-.1.1-.1.3-.2c.5-.1.7-.2.7-.7,0-.4,0-1.5,0-2.7s0-1.5,0-1.8c0-.4-.1-.6-.6-.7-.2,0-.3,0-.3-.2s.2-.1.3-.1c.5,0,.9,0,1.6,0ZM34.6,782.9c0,0,0-.1.3-.1s.9,0,1.3,0,.6,0,.9,0,.2,0,.2.1,0,.1-.2.2c-.2,0-.3.2-.2.4.3.5,1,1.7,1.2,1.9,0,0,0,0,0,0,.3-.4,1.2-1.5,1.3-1.8.2-.3,0-.4-.4-.5-.2,0-.2-.1-.2-.2,0,0,0-.1.3-.1.3,0,.6,0,.9,0s.8,0,1.1,0,.2,0,.2.1-.1.2-.2.2c-.5.1-.9.3-1.2.7-.4.4-1,1.2-1.5,1.8,0,0,0,0,0,.1,0,.2,1.2,1.9,1.5,2.3.4.5.5.7,1.2.9.2,0,.2.1.2.2,0,0,0,.1-.3.1-.3,0-.9,0-1.5,0s-.7,0-.8,0c-.2,0-.2,0-.2-.1s0-.1.2-.2c.2,0,.3,0,.4-.1,0,0,0-.1,0-.2-.2-.4-1.2-2-1.3-2.1,0,0,0,0,0,0-.3.4-.8,1-1.1,1.4-.5.7-.3.8,0,1,.2,0,.2.1.2.2,0,0-.1.1-.2.1-.3,0-.7,0-1,0s-.8,0-1,0-.3,0-.3-.1.1-.2.4-.2c.5-.1.9-.4,1.2-.7.4-.4,1-1.1,1.6-2,0,0,0-.1,0-.1,0-.2-1.1-1.8-1.6-2.5-.2-.3-.6-.5-1-.6-.2,0-.3-.1-.3-.2ZM45.5,782.7c.4,0,.8,0,1.2.2.2,0,.6.2.8.2,0,0,.2,0,.2.3s0,.7,0,.9c0,.2,0,.3-.2.3s-.1-.1-.2-.3c0-.3-.3-.6-.4-.7-.5-.4-1-.5-1.6-.5-1.6,0-2.6,1.3-2.6,2.8s.1,1.2.3,1.7c.6,1.1,1.7,1.6,2.5,1.6s.7,0,1.1-.2c.4-.2.7-.5.9-1,.1-.2.2-.3.2-.3.1,0,.1.2,0,.3,0,.3-.2.8-.4,1,0,0-.2.2-.3.3-.2,0-.9.3-1.8.3-1.4,0-2.5-.7-2.9-1.2-.4-.4-.8-1.2-.8-2.3s.7-2,1.1-2.4c.8-.7,1.8-.9,2.7-.9ZM48.9,783c0,0,0-.1.3-.1s.5,0,.8,0,1.1,0,1.3,0,.3,0,.3.1,0,.1-.2.2c-.6.1-.6.2-.7.4,0,.5,0,1.5,0,3s0,1.7,0,2c0,.2.3.4.3.4.2,0,.6,0,.9,0s.6,0,.7,0c0,0,.2,0,.4-.2.1-.1.3-.3.6-.7.1-.2.2-.2.2-.2s0,.1,0,.3c-.1.5-.2.7-.3,1.1,0,0-.2.2-.2.2-.1,0-1,0-3.1,0s-1.2,0-1.3,0-.3,0-.3-.1,0-.2.2-.2c.5,0,.7-.3.7-.7,0-.2,0-1.7,0-3.2s0-1.2,0-1.5c0-.2,0-.4-.5-.5-.2,0-.3-.1-.3-.2ZM54.1,783c0,0,.1-.1.3-.1.4,0,.7,0,1.1,0s.8,0,1,0,.3,0,.3.1,0,.1-.3.2c-.4,0-.5.2-.6.6,0,.3,0,1.3,0,2.8s.2,1.6.6,1.9c.3.3.9.5,1.4.5.7,0,1.6-.3,1.9-1.4.1-.5.2-1.4.2-2.5s0-1.1,0-1.2c0-.4-.1-.5-.7-.6,0,0-.2-.1-.2-.2s0-.1.2-.1.5,0,.9,0,.6,0,.9,0,.2,0,.2.1,0,.1-.2.2c-.4.1-.6.3-.6.9,0,.4,0,1.6,0,2.1,0,1.7-.5,2.6-1.2,3-.5.3-1,.3-1.4.3-.9,0-1.6-.3-1.8-.6-.6-.5-.8-1.2-.8-2.9s0-2.2,0-2.4c0-.2-.2-.3-.5-.4-.1,0-.2,0-.2-.2ZM64,782.7c.5,0,1,.1,1.2.2,0,0,.1.2.1.2,0,.2,0,.8,0,.8,0,.2,0,.3,0,.3s-.2,0-.2-.2c-.1-.3-.4-.6-.5-.7-.2-.2-.4-.2-.7-.2-.6,0-1.1.5-1.1,1.1s.5,1,1.4,1.6c.9.6,1.4,1.1,1.4,2s-.3,1.1-.8,1.4c-.3.2-.9.4-1.4.4s-1,0-1.3-.3c0,0-.2-.3-.2-.3,0-.3-.2-.8-.2-1s.1-.2.1-.2c0,0,.2.2.4.6.3.6.9.8,1.3.8.6,0,1.2-.5,1.2-1.2s-.2-.9-1.2-1.5c-.9-.6-1.5-1.2-1.5-2s.2-1,.6-1.2c.3-.3.8-.5,1.5-.5ZM67.4,786c0-.6,0-1.8,0-2.1,0-.5,0-.6-.6-.7-.2,0-.3-.1-.3-.2s.1-.1.3-.1c.3,0,.8,0,1.1,0,.5,0,.7,0,1.1,0s.3,0,.3.1-.1.1-.3.2c-.6.1-.6.4-.6.6,0,.3,0,.9,0,2.8s0,1.3,0,1.6c0,.5,0,.7.7.9.2,0,.3,0,.3.2s-.2.1-.3.1c-.5,0-1.2,0-1.5,0s-.4,0-.8,0-.3,0-.3-.2,0-.1.3-.2c.5-.1.5-.3.6-.7,0-.4,0-1.4,0-2.2ZM69.6,783c0,0,.2-.1.3-.1s.6,0,1.1,0,.8,0,1,0,.2,0,.2.1,0,.2-.2.2c-.5.1-.5.3-.4.5.2.5,1.2,3.3,1.6,4.1,0,0,0,0,0,0,0-.2,1.2-2.8,1.6-3.8.2-.6,0-.7-.4-.8-.1,0-.2-.1-.2-.2s.1-.1.3-.1c.2,0,.5,0,.8,0s.7,0,.9,0,.3,0,.3.1-.1.1-.3.2c-.4.1-.7.3-.9.8-.4.9-.7,1.5-1.3,3-.5,1.3-.7,1.6-.9,2.3,0,.1-.1.2-.2.2s-.2,0-.2-.2c0-.3-.2-.9-.5-1.6-.3-.9-1.2-3.2-1.4-3.7-.2-.5-.4-.7-.9-.9-.1,0-.2,0-.2-.2ZM78.5,782.9h1.5c.3,0,.8,0,.9,0,0,0,0,0,0,.1,0,.4,0,.8,0,1s0,.3-.2.3-.1-.1-.2-.2c-.1-.5-.4-.6-.7-.7-.2,0-.9,0-1.4,0,0,0-.1,0-.1.3,0,.2,0,2,0,2.3,0,0,0,0,0,0h.7c.9,0,.9,0,1.1-.5,0-.2.1-.2.2-.2s0,.2,0,.2c0,.3,0,.5,0,.7s0,.4,0,.6c0,.2,0,.3-.1.3s-.1-.1-.2-.2c-.1-.5-.2-.5-.8-.5-.3,0-.7,0-1,0s0,0,0,0c0,.2,0,1.1,0,1.5s0,.7,0,.8c0,.1.1.2.2.2.2,0,.5,0,.9,0s.7,0,.9,0c.3,0,.6-.3.8-.7.1-.2.2-.3.2-.3s.1.2,0,.3c0,0-.3,1-.4,1.1,0,0-.1.1-.2.1-.1,0-1.8,0-3.3,0s-.8,0-1.1,0-.3,0-.3-.1.1-.1.3-.2c.5-.1.7-.2.7-.7,0-.4,0-1.5,0-2.7s0-1.5,0-1.8c0-.4-.1-.6-.6-.7-.2,0-.3,0-.3-.2s.1-.1.3-.1c.5,0,.9,0,1.6,0ZM82.4,783c0,0,0-.1.3-.1s.5,0,.8,0,1.1,0,1.3,0,.3,0,.3.1,0,.1-.2.2c-.6.1-.6.2-.7.4,0,.5,0,1.5,0,3s0,1.7,0,2c0,.2.3.4.4.4.2,0,.6,0,.9,0s.6,0,.7,0,.2,0,.4-.2c.1-.1.3-.3.6-.7.1-.2.2-.2.2-.2s0,.1,0,.3c-.1.5-.2.7-.3,1.1,0,0-.2.2-.2.2-.1,0-1,0-3.1,0s-1.1,0-1.3,0-.3,0-.3-.1,0-.2.2-.2c.6,0,.7-.3.7-.7,0-.2,0-1.7,0-3.2s0-1.2,0-1.5c0-.2,0-.4-.5-.5-.2,0-.3-.1-.3-.2ZM87,782.9c0,0,.1-.1.3-.1s.7,0,1.2,0,.4,0,.8,0,.2,0,.2.1,0,.2-.2.2c-.3,0-.3.2-.2.5.1.2.8,1.4,1.3,2.1,0,0,0,0,.1,0,.2-.4,1-1.6,1.2-2,.2-.4.1-.5-.3-.6-.2,0-.2-.1-.2-.2s.1,0,.2,0c.3,0,.4,0,.7,0,.3,0,1,0,1.1,0s.2,0,.2.1c0,0-.1.1-.3.2-.5.1-.8.4-1.1.8-.5.6-1,1.5-1.3,2,0,.1-.2.5-.2.6,0,.6,0,1.8,0,2.1,0,.2.1.3.7.5.2,0,.3.1.3.2s0,.1-.3.1-.7,0-.9,0c-.6,0-1.3,0-1.4,0s-.2,0-.2-.1,0-.2.3-.2c.5-.1.6-.3.6-.5,0-.4,0-1.5,0-2s0-.3,0-.4c-.2-.4-.8-1.4-1.2-2.1-.5-.7-.6-.8-1-.9-.2,0-.3-.1-.3-.2ZM97,782.9h1.3c.7,0,1.5,0,1.6,0,0,0,.1,0,.1.1,0,.3,0,.7,0,1,0,.1,0,.3-.1.3s-.2,0-.2-.3c-.1-.5-.3-.6-.6-.7-.3,0-1.3,0-1.5,0-.1,0-.2,0-.2.1,0,.3,0,1.5,0,2.2s0,.4.1.4c.4,0,1.1,0,1.4,0,.3,0,.4-.1.5-.5,0-.1.1-.2.2-.2s.1.1.1.2,0,.5,0,.6c0,.4,0,.6,0,.8s0,.2-.1.2-.1,0-.2-.2c0-.4-.2-.4-.4-.5-.1,0-.5,0-.7,0s-.6,0-.8,0c0,0,0,0,0,.1,0,.3,0,1.6,0,1.9,0,.3,0,.5.7.6.2,0,.3.1.3.2s0,.1-.3.1-.6,0-1,0-1,0-1.2,0-.3,0-.3-.1,0-.2.3-.2c.5-.1.6-.3.6-.5,0-.3,0-1,0-3s0-1.5,0-1.8c0-.3-.2-.5-.6-.6-.2,0-.3,0-.3-.2s.1-.1.3-.1c.4,0,.8,0,1.2,0ZM104.5,782.7c2,0,3.5,1.5,3.5,3.3s-.7,2.3-1.4,2.9c-.6.4-1.4.6-2,.6-1,0-2-.4-2.6-1.1-.5-.6-.8-1.4-.8-2.3s.6-2.1,1.3-2.7c.5-.4,1.3-.7,2.1-.7ZM104.2,783c-.4,0-1,.2-1.3.5-.4.4-.8,1.2-.8,2.3s1.1,3.2,2.6,3.2,1.2-.3,1.3-.5c.4-.4.8-1.2.8-2.4s-.4-2.1-1.2-2.7c-.4-.3-1-.5-1.5-.5ZM113.6,784.5c0,.5-.3,1.1-.8,1.4,0,0-.2.1-.3.2,0,0,0,.1,0,.2.1.3,1,1.6,1.5,2.3.3.3.6.5,1,.6,0,0,.2,0,.2.1s0,.1-.1.1c-.1,0-.4,0-.6,0-.6,0-1.1-.3-1.4-.6-.3-.5-.9-1.2-1.2-1.9-.1-.2-.3-.5-.4-.5,0,0-.4-.1-.7-.1s-.1,0-.1.1c0,.2,0,1.5,0,2,0,.4.1.6.6.7.2,0,.2.1.2.2,0,.1-.2.1-.3.1-.4,0-.7,0-1.3,0s-.7,0-.8,0-.3,0-.3-.1,0-.1.2-.2c.5-.1.6-.2.6-.6,0-.4,0-1.4,0-2.1,0-1.4,0-2.3,0-2.7,0-.3-.1-.4-.6-.5-.2,0-.2,0-.2-.2s0-.1.3-.1h.6c.4,0,1.1,0,1.6,0s1.2,0,1.7.4c.3.3.6.8.6,1.2ZM112.7,784.5c0-.2-.1-.7-.4-1-.2-.2-.7-.4-1-.4s-.3,0-.5,0c0,0-.1.2-.1.2,0,.4,0,2.2,0,2.4,0,0,.1.1.2.1.6,0,1.1-.2,1.2-.2.3-.2.6-.6.6-1.2ZM116.9,782.9c0,0,0-.1.3-.1s.7,0,1.2,0,.4,0,.8,0,.2,0,.2.1,0,.2-.2.2c-.4,0-.3.2-.2.5.1.2.8,1.4,1.3,2.1,0,0,0,0,.1,0,.2-.4,1-1.6,1.2-2,.2-.4.1-.5-.3-.6-.1,0-.2-.1-.2-.2s.1,0,.2,0c.3,0,.4,0,.7,0,.4,0,1,0,1.1,0s.2,0,.2.1c0,0,0,.1-.3.2-.5.1-.8.4-1.1.8-.5.6-1,1.5-1.3,2,0,.1-.2.5-.2.6,0,.6,0,1.8,0,2.1,0,.2.1.3.7.5.2,0,.3.1.3.2s-.1.1-.3.1-.7,0-.9,0c-.6,0-1.3,0-1.4,0s-.2,0-.2-.1,0-.2.3-.2c.5-.1.6-.3.7-.5,0-.4,0-1.5,0-2s0-.3,0-.4c-.2-.4-.8-1.4-1.2-2.1-.5-.7-.6-.8-1-.9-.2,0-.3-.1-.3-.2ZM126.7,782.7c2,0,3.5,1.5,3.5,3.3s-.7,2.3-1.4,2.9c-.6.4-1.4.6-2,.6-1,0-2-.4-2.6-1.1-.5-.6-.8-1.4-.8-2.3s.6-2.1,1.3-2.7c.5-.4,1.3-.7,2.1-.7ZM126.5,783c-.4,0-1,.2-1.3.5-.4.4-.8,1.2-.8,2.3s1.1,3.2,2.6,3.2,1.2-.3,1.3-.5c.4-.4.8-1.2.8-2.4s-.4-2.1-1.2-2.7c-.4-.3-1-.5-1.5-.5ZM131.1,783c0,0,.1-.1.3-.1.4,0,.7,0,1.1,0s.8,0,1,0,.3,0,.3.1,0,.1-.3.2c-.4,0-.5.2-.6.6,0,.3,0,1.3,0,2.8s.2,1.6.6,1.9c.3.3.9.5,1.4.5.7,0,1.6-.3,1.8-1.4.1-.5.2-1.4.2-2.5s0-1.1,0-1.2c0-.4-.1-.5-.7-.6,0,0-.2-.1-.2-.2s0-.1.2-.1.5,0,.9,0,.6,0,.9,0,.2,0,.2.1,0,.1-.2.2c-.4.1-.6.3-.7.9,0,.4,0,1.6,0,2.1,0,1.7-.5,2.6-1.2,3-.5.3-1,.3-1.4.3-.9,0-1.6-.3-1.8-.6-.6-.5-.8-1.2-.8-2.9s0-2.2,0-2.4c0-.2-.2-.3-.5-.4-.1,0-.2,0-.2-.2ZM138.3,788.2c.5,0,.6.4.6.6,0,.3-.3.6-.6.6s-.6-.2-.6-.6.4-.6.6-.6Z"/>
    </g>
  </g>
</svg>