<svg width="271" height="30" viewBox="0 0 271 30" fill="none" xmlns="http://www.w3.org/2000/svg">
<path d="M88.3584 29.2567C88.8347 27.4483 89.5967 25.9254 89.6444 24.355C89.7873 18.1683 89.7873 11.934 89.6444 5.74738C89.6444 4.12933 88.9776 2.55887 88.5489 0.51251C93.3118 0.655279 98.3606 0.0366074 103.314 1.08358C107.124 1.89261 109.22 4.51004 109.315 7.84132C109.411 11.2202 107.41 13.6949 103.6 14.8846C102.981 15.075 102.314 15.1702 101.647 15.3605C103.171 18.7394 109.696 26.4489 113.221 29.114C109.935 30.0182 107.648 28.7332 105.696 26.0682C103.695 23.3556 101.314 20.8809 99.4084 18.1207C97.7414 15.7412 95.7886 14.9322 92.645 15.9792C92.645 18.3587 92.645 20.9285 92.645 23.4984C92.645 24.3074 92.645 25.0688 92.645 25.8779C92.5498 28.9236 92.1687 29.3043 89.0252 29.3043C88.6918 29.3043 88.3584 29.2091 88.3584 29.2091L88.3584 29.2567ZM92.7403 14.4087C95.6933 14.4087 98.1701 14.5991 100.599 14.4087C104.076 14.0756 105.886 11.8865 105.981 8.22205C106.077 4.55764 104.457 2.32091 100.98 1.74984C99.456 1.51189 97.8367 1.51188 96.2649 1.55947C93.7882 1.65465 92.9308 2.32092 92.7879 4.748C92.5974 7.84133 92.7879 10.9823 92.7879 14.4563L92.7403 14.4087Z" fill="#C9A063"/>
<path d="M178.569 28.4C182.951 28.4 186.618 28.5427 190.286 28.4C192.81 28.2572 194.048 26.1632 195.43 24.2596C195.191 25.8777 194.953 27.4482 194.715 29.209L174.52 29.209C180.426 19.929 186.142 10.9821 192.143 1.60692C187.904 1.60692 184.284 1.32138 180.76 1.74968C179.093 1.94004 177.616 3.46292 175.854 4.5099C175.902 3.51051 175.997 2.32076 176.044 0.893066L196.096 0.893066C193.239 5.79481 190.238 10.2207 187.38 14.6941C184.57 19.12 181.712 23.5458 178.616 28.4476L178.569 28.4Z" fill="#C9A063"/>
<path d="M254.823 0.89321C257.776 0.845621 258.634 1.32152 259.824 4.36726C262.396 10.9822 264.825 17.6448 267.445 24.2122C268.112 25.9254 269.255 27.4483 270.16 28.9712C267.207 29.685 266.111 29.2567 264.873 26.3538C264.016 24.3074 263.254 22.1659 262.396 19.9767L249.87 19.9767C249.012 22.261 248.06 24.6405 247.155 27.02C246.631 28.4477 246.012 29.7802 244.25 29.3043C245.25 27.4007 246.393 25.5923 247.203 23.6411C249.584 17.5496 251.87 11.4581 254.061 5.31906C254.537 4.03414 254.537 2.65404 254.776 0.94081L254.823 0.89321ZM256.443 4.27208C256.204 4.27208 255.966 4.27208 255.728 4.27208C253.966 8.98347 252.013 13.6473 250.394 18.8821C254.442 18.8821 257.967 19.0725 261.968 18.7394C260.015 13.6473 258.253 8.98348 256.49 4.31968L256.443 4.27208Z" fill="#C9A063"/>
<path d="M46.825 0.798095L65.5909 0.798096C65.972 2.08302 66.353 3.36794 66.7341 4.60527C66.5912 4.70045 66.4959 4.79564 66.353 4.89082C65.8767 4.46251 65.4957 3.84385 64.9241 3.55831C63.4476 2.79687 61.9711 1.89267 60.3993 1.60713C58.3989 1.274 56.3508 1.46435 54.3028 1.55953C51.9689 1.65471 51.064 2.36856 51.0163 4.55769C50.9211 11.5534 50.9211 18.5491 51.0163 25.5448C51.0163 27.5911 51.8737 28.4002 53.9694 28.4953C56.6842 28.6381 59.4468 28.8285 62.0664 28.4002C64.0668 28.067 65.8767 26.7821 67.9724 25.8303C67.6866 26.7821 67.3532 27.8767 66.9722 29.2092L46.0629 29.2092C47.8252 27.496 47.7775 25.402 47.7775 23.3557C47.7775 17.8352 47.8728 12.2672 47.7775 6.74682C47.7775 4.84323 47.206 2.89205 46.825 0.893277L46.825 0.798095Z" fill="#C9A063"/>
<path d="M134.511 29.2567C134.94 27.3531 135.607 25.6875 135.607 24.0219C135.749 18.0255 135.749 12.0768 135.607 6.0805C135.607 4.36727 134.987 2.65404 134.606 0.798036C134.987 0.798036 135.654 0.655273 136.273 0.655273C141.894 0.655273 147.562 0.655273 153.372 0.655273C153.706 1.98779 154.039 3.12993 154.325 4.27209C150.848 0.464906 146.371 1.55947 142.227 1.55947C139.655 1.55947 138.798 2.41609 138.655 5.03352C138.512 7.9365 138.56 10.8871 138.56 13.8376C138.56 17.4545 138.512 21.0713 138.607 24.6881C138.702 27.6863 139.56 28.4477 142.513 28.5429C143.751 28.5429 144.99 28.4953 146.228 28.5429C149.895 28.7808 153.229 28.3049 155.897 25.2116C155.468 26.5441 155.039 27.8766 154.611 29.2567L134.416 29.2567L134.511 29.2567Z" fill="#C9A063"/>
<path d="M25.1543 1.65449L25.1543 6.88938C24.7732 6.60384 24.3922 6.50866 24.2493 6.27071C19.6293 -0.962937 8.76974 -0.534631 4.76887 7.03214C1.48244 13.1712 3.62577 22.4988 9.19841 26.6391C12.5801 29.1138 16.3428 29.1614 20.2008 28.2572C21.0581 28.0668 21.8678 27.7337 23.2491 27.3054C21.5821 29.1138 19.8198 29.3993 18.1527 29.6373C12.4372 30.4463 7.19797 29.4469 3.48287 24.7355C-0.279849 20.0242 -0.660876 14.5513 1.48245 9.03091C4.34022 1.79726 12.9135 -1.67678 20.439 1.27379C22.2806 2.0035 23.8683 2.16212 25.2019 1.74968L25.1543 1.65449Z" fill="#C9A063"/>
<path d="M222.387 29.2566L217.005 29.2566C217.386 27.5434 218.101 25.9253 218.101 24.3073C218.244 18.1206 218.244 11.8863 218.101 5.69966C218.101 4.1292 217.482 2.55873 217.148 0.988267C220.387 0.512369 221.244 1.17863 221.292 4.74786C221.292 11.0773 221.244 17.4067 221.34 23.7362C221.34 25.5446 222.006 27.353 222.387 29.3042L222.387 29.2566Z" fill="#C9A063"/>
<path d="M147.705 17.3595C146.181 16.3601 144.942 15.5511 143.609 14.6469C144.895 13.7427 146.228 12.8385 147.705 11.7915L147.705 17.3119L147.705 17.3595Z" fill="#C9A063"/>
<path d="M55.7317 14.5988C57.0654 13.6946 58.3037 12.8856 59.8279 11.8862L59.8279 17.3115C58.4466 16.4073 57.2083 15.5506 55.7317 14.5988Z" fill="#C9A063"/>
</svg>
