<svg width="20" height="25" viewBox="0 0 20 25" fill="none" xmlns="http://www.w3.org/2000/svg">
<path d="M10 12.5C10.6875 12.5 11.276 12.2552 11.7656 11.7656C12.2552 11.276 12.5 10.6875 12.5 10C12.5 9.3125 12.2552 8.72396 11.7656 8.23438C11.276 7.74479 10.6875 7.5 10 7.5C9.3125 7.5 8.72396 7.74479 8.23438 8.23438C7.74479 8.72396 7.5 9.3125 7.5 10C7.5 10.6875 7.74479 11.276 8.23438 11.7656C8.72396 12.2552 9.3125 12.5 10 12.5ZM10 21.6875C12.5417 19.3542 14.4271 17.2344 15.6562 15.3281C16.8854 13.4219 17.5 11.7292 17.5 10.25C17.5 7.97917 16.776 6.11979 15.3281 4.67188C13.8802 3.22396 12.1042 2.5 10 2.5C7.89583 2.5 6.11979 3.22396 4.67188 4.67188C3.22396 6.11979 2.5 7.97917 2.5 10.25C2.5 11.7292 3.11458 13.4219 4.34375 15.3281C5.57292 17.2344 7.45833 19.3542 10 21.6875ZM10 25C6.64583 22.1458 4.14062 19.4948 2.48438 17.0469C0.828125 14.599 0 12.3333 0 10.25C0 7.125 1.00521 4.63542 3.01562 2.78125C5.02604 0.927083 7.35417 0 10 0C12.6458 0 14.974 0.927083 16.9844 2.78125C18.9948 4.63542 20 7.125 20 10.25C20 12.3333 19.1719 14.599 17.5156 17.0469C15.8594 19.4948 13.3542 22.1458 10 25Z" fill="#E5B874"/>
</svg>
