<svg width="34" height="34" viewBox="0 0 34 34" fill="none" xmlns="http://www.w3.org/2000/svg">
<path d="M21.7228 5.3125H12.2761C10.4297 5.31391 8.65928 6.04802 7.35365 7.35365C6.04802 8.65928 5.31391 10.4297 5.3125 12.2761V21.7228C5.31363 23.5694 6.04762 25.3401 7.35328 26.646C8.65894 27.9518 10.4295 28.6861 12.2761 28.6875H21.7228C23.5693 28.6858 25.3398 27.9515 26.6454 26.6457C27.951 25.3399 28.685 23.5693 28.6864 21.7228V12.2761C28.6856 10.4295 27.9517 8.65878 26.6459 7.35303C25.3402 6.04728 23.5694 5.31334 21.7228 5.3125ZM26.3362 21.7228C26.3359 22.9463 25.8498 24.1195 24.9847 24.9846C24.1195 25.8498 22.9463 26.3359 21.7228 26.3362H12.2761C11.6703 26.3362 11.0705 26.2169 10.5108 25.985C9.95116 25.7531 9.44266 25.4133 9.01435 24.9849C8.58605 24.5565 8.24633 24.0479 8.0146 23.4882C7.78287 22.9285 7.66367 22.3286 7.66381 21.7228V12.2761C7.66367 11.6704 7.78288 11.0706 8.01462 10.5109C8.24636 9.95125 8.5861 9.44274 9.01442 9.01442C9.44274 8.5861 9.95125 8.24636 10.5109 8.01462C11.0706 7.78288 11.6704 7.66367 12.2761 7.66381H21.7228C22.946 7.66409 24.119 8.15012 24.9839 9.01504C25.8488 9.87995 26.3348 11.0529 26.3351 12.2761L26.3362 21.7228Z" fill="#E5B874"/>
<path d="M17.0005 10.9565C13.6664 10.9565 10.957 13.667 10.957 17C10.957 20.3331 13.6675 23.0435 17.0005 23.0435C20.3336 23.0435 23.044 20.3331 23.044 17C23.044 13.667 20.3347 10.9565 17.0005 10.9565ZM17.0005 20.6922C16.0213 20.6924 15.0821 20.3035 14.3896 19.6112C13.6971 18.9189 13.308 17.9798 13.3078 17.0006C13.3077 16.0213 13.6965 15.0822 14.3889 14.3896C15.0812 13.6971 16.0202 13.308 16.9995 13.3079C17.9787 13.3077 18.9179 13.6966 19.6104 14.3889C20.3029 15.0812 20.692 16.0203 20.6922 16.9995C20.6923 17.9787 20.3035 18.9179 19.6111 19.6104C18.9188 20.303 17.9798 20.6921 17.0005 20.6922ZM23.0568 9.55298C23.3431 9.55319 23.623 9.63828 23.861 9.79748C24.0989 9.95669 24.2844 10.1829 24.3939 10.4475C24.5034 10.712 24.5319 11.0031 24.476 11.284C24.4201 11.5648 24.2822 11.8227 24.0797 12.0252C23.8773 12.2277 23.6193 12.3656 23.3385 12.4215C23.0577 12.4774 22.7666 12.4488 22.502 12.3393C22.2374 12.2298 22.0112 12.0444 21.852 11.8064C21.6928 11.5684 21.6077 11.2886 21.6075 11.0022C21.6075 10.2032 22.1494 9.55298 23.0568 9.55298Z" fill="#E5B874"/>
</svg>
