<svg width="184" height="71" viewBox="0 0 184 71" fill="none" xmlns="http://www.w3.org/2000/svg">
<path d="M59.6788 17.6114C55.6259 17.6114 52.4843 19.9668 50.8285 22.8187C50.9951 21.9628 51.1583 20.9631 51.1583 19.8949V18.1831C47.9318 18.611 44.7084 18.6829 40.6556 18.6829V19.5388C43.9638 19.9668 45.2865 22.1784 45.2865 25.9581V48.4567C42.6379 46.0457 40.7863 42.3052 39.6367 40.2537C38.2324 37.7448 22.2465 0 22.2465 0H21.3353L7.1945 40.515C5.20891 46.294 2.97512 49.1459 0 49.93V50.7859C1.07444 50.6421 3.47478 50.5017 6.12006 50.5017C8.51714 50.5017 10.9991 50.6454 12.9847 50.7859V49.93C7.9391 48.9303 7.60925 45.0788 9.59484 39.303L11.4988 33.6678H29.6336C29.6336 33.6678 32.5532 40.5607 33.2652 41.9491C36.1717 47.6399 38.4153 49.3322 40.2996 50.6781C41.619 51.6222 43.3597 52.2984 45.2897 52.7362V63.6931C45.2897 67.8288 43.5524 69.4002 40.6589 70.1124V70.9683C43.4707 70.7526 46.0343 70.684 48.5163 70.684C51.4098 70.684 54.0584 70.8278 56.7036 70.9683V70.1124C52.4843 69.4002 50.9983 67.5446 50.9983 63.1214V53.3373C53.0296 53.3373 55.0381 53.1282 56.8147 52.7264C62.1869 51.5078 70.1096 47.6399 71.1775 35.0202C72.1638 23.3545 66.1319 17.6147 59.682 17.6147L59.6788 17.6114ZM12.0736 32.1716L19.5163 10.2741L29.134 32.1716H12.0736ZM65.2991 34.9059C64.7929 43.7328 62.2228 49.3387 56.4195 50.9917C54.927 51.4164 53.1505 51.4196 50.9918 51.0178V25.4615C51.9029 22.394 54.7148 19.4702 57.6899 19.4702C61.7427 19.4702 66.0013 22.5835 65.2959 34.9092L65.2991 34.9059Z" fill="#E5B874"/>
<path d="M87.3595 17.6115C79.1722 17.6115 73.5485 25.1023 73.5485 35.7293C73.5485 46.3562 79.1722 53.847 87.3595 53.847C95.5468 53.847 101.17 46.4281 101.17 35.7293C101.17 25.0305 95.4651 17.6115 87.3595 17.6115ZM87.3595 52.635C82.8952 52.635 80.3283 46.9279 80.3283 35.7293C80.3283 24.5306 82.8919 18.7517 87.3595 18.7517C91.8271 18.7517 94.3907 24.5306 94.3907 35.7293C94.3907 46.9279 91.8271 52.635 87.3595 52.635Z" fill="#E5B874"/>
<path d="M177.684 50.3351C176.25 51.3838 174.686 51.8476 173.145 51.8476C171.27 51.8476 169.784 51.2531 168.622 50.1489C166.933 48.5384 165.937 45.8465 165.437 42.3282C165.157 40.3713 165.036 38.1564 165.036 35.7325V33.8769H184C184 23.3611 179.157 18.8594 173.977 17.7748C173.69 17.7258 173.399 17.6931 173.106 17.667C172.985 17.6539 172.87 17.6441 172.75 17.6409C172.733 17.6409 172.72 17.6376 172.71 17.6409C172.629 17.6311 172.55 17.6278 172.469 17.6278C172.276 17.618 172.09 17.6147 171.9 17.6147C171.734 17.6147 171.564 17.618 171.398 17.6278C171.322 17.6278 171.247 17.6311 171.172 17.6376C165.379 17.9675 160.908 22.2699 159.193 29.2119C158.69 31.2243 158.423 33.4522 158.423 35.8795C158.423 39.4109 158.971 42.3902 159.912 44.8436C162.266 50.982 167.083 53.8535 171.982 53.8535C174.983 53.8535 177.655 52.7232 179.722 50.7043C181.649 48.8356 183.05 46.2059 183.729 43.0109L182.403 42.6548C181.312 46.464 179.617 48.9304 177.684 50.3416V50.3351ZM166.179 25.0173C166.179 25.0173 166.185 25.0043 166.185 25.001C166.878 22.6097 167.9 20.5908 169.307 19.5356C169.97 19.0358 170.725 18.7548 171.571 18.7548C171.727 18.7548 171.878 18.7646 172.025 18.7908C175.369 19.2155 177.119 24.4652 177.279 32.5245H165.039C165.14 30.0482 165.503 27.3596 166.182 25.0206L166.179 25.0173Z" fill="#E5B874"/>
<path d="M156.316 33.8737C156.316 23.3579 151.473 18.8562 146.294 17.7716C146.006 17.7226 145.716 17.6899 145.422 17.6638C145.301 17.6507 145.187 17.6409 145.066 17.6377C145.049 17.6377 145.036 17.6344 145.027 17.6377C144.945 17.6279 144.867 17.6246 144.785 17.6246C144.592 17.6148 144.406 17.6115 144.217 17.6115C144.05 17.6115 143.88 17.6148 143.714 17.6246C143.639 17.6246 143.564 17.6279 143.488 17.6344C137.695 17.9643 133.224 22.2667 131.51 29.2087C131.007 31.2211 130.739 33.4491 130.739 35.8763C130.739 39.4077 131.287 42.3871 132.228 44.8404C134.583 50.9788 139.4 53.8503 144.298 53.8503C147.3 53.8503 149.971 52.72 152.038 50.7011C153.965 48.8325 155.366 46.2027 156.045 43.0077L154.719 42.6517C153.629 46.4608 151.934 48.9272 150 50.3385C148.567 51.3871 147.002 51.851 145.458 51.851C143.583 51.851 142.097 51.2565 140.935 50.1523C139.246 48.5417 138.25 45.8499 137.75 42.3315C137.47 40.3747 137.349 38.1598 137.349 35.7358V33.8803H156.313L156.316 33.8737ZM138.492 25.0174C138.492 25.0174 138.498 25.0043 138.498 25.0011C139.191 22.6098 140.213 20.5909 141.62 19.5357C142.283 19.0359 143.038 18.7549 143.884 18.7549C144.04 18.7549 144.191 18.7647 144.338 18.7909C147.682 19.2155 149.432 24.4653 149.592 32.5245H137.352C137.453 30.0483 137.816 27.3597 138.495 25.0207L138.492 25.0174Z" fill="#E5B874"/>
<path d="M148.207 11.6496C150.082 10.2873 152.025 10.3037 152.267 10.6728C152.512 11.042 152.923 9.6013 152.923 9.6013L149.497 6.62524C149.497 6.62524 144.759 8.37298 143.165 15.5404H144.968C145.487 14.4362 147.064 12.4761 148.207 11.6496Z" fill="#E5B874"/>
<path d="M118.613 49.4238H111.582C107.695 49.4238 106.288 47.5682 106.288 45.6441C106.288 43.7199 107.777 42.0767 110.67 41.5083C112.241 42.2205 114.06 42.5798 115.964 42.5798C122.499 42.5798 128.286 38.0161 128.286 30.0973C128.286 26.7456 127.212 23.9622 125.556 21.8943L124.788 21.0352C125.533 20.8 126.261 20.6235 126.83 20.5549C129.256 20.2707 130.889 21.1756 130.866 21.6003C130.843 22.025 132.084 20.996 132.084 20.996L131.036 16.9026C131.036 16.9026 127.395 16.3963 122.767 19.4606C120.768 18.2388 118.41 17.6115 115.961 17.6115C109.511 17.6115 103.473 22.1067 103.473 30.094C103.473 35.0857 105.87 38.7968 109.263 40.7929C106.036 41.5769 103.391 44.0041 103.391 47.1403C103.391 49.7799 105.128 52.2038 108.848 53.2754C104.381 54.4873 101.072 57.6267 101.072 61.6221C101.072 66.9731 106.696 70.9651 116.043 70.9651C125.389 70.9651 132.75 67.1854 132.75 59.7665C132.75 53.6314 127.208 49.4238 118.61 49.4238H118.613ZM115.883 18.7517C117.718 18.7517 119.168 19.7252 120.184 21.4925C120.177 21.499 120.167 21.5056 120.161 21.5154L120.213 21.5448C121.33 23.5212 121.921 26.4711 121.921 30.1659C121.921 37.0132 119.854 41.4364 115.968 41.4364C112.081 41.4364 109.848 37.0132 109.848 30.0222C109.848 23.0312 112.081 18.7517 115.886 18.7517H115.883ZM116.464 69.7532C110.426 69.7532 106.787 66.3295 106.787 61.1222C106.787 58.3389 108.11 55.1309 110.84 53.7752C111.751 53.9189 112.826 53.9875 113.982 53.9875H117.042C123.492 53.9875 127.048 56.3396 127.048 61.1908C127.048 66.5419 122.499 69.7499 116.461 69.7499L116.464 69.7532Z" fill="#E5B874"/>
</svg>
