<svg width="266" height="12" viewBox="0 0 266 12" fill="none" xmlns="http://www.w3.org/2000/svg">
<path d="M0.81611 0.908691L5.57905 0.908691C7.24608 0.908691 9.91333 1.47977 9.91333 4.23998C9.91333 7.00019 7.19845 7.71403 5.72193 7.71403L2.67365 7.71403L2.67365 11.6164L0.863731 11.6164L0.863731 0.908691L0.81611 0.908691ZM5.29327 6.0008C6.67452 6.0008 8.00815 5.62008 8.00815 4.23998C8.00815 2.85988 6.62688 2.47915 5.24563 2.47915L2.67365 2.47915L2.67365 6.0008L5.29327 6.0008Z" fill="#C9A063"/>
<path d="M13.2953 0.908691L18.0582 0.908691C19.63 0.908691 22.3925 1.47977 22.3925 4.28757C22.3925 6.23875 20.9636 7.28573 19.2966 7.52368C20.392 8.90378 21.5351 10.2363 22.6306 11.6164L20.5825 11.6164L17.3437 7.66644L15.1528 7.66644L15.1528 11.6164L13.3429 11.6164L13.3429 0.908691L13.2953 0.908691ZM17.7724 6.09598C19.1537 6.09598 20.4873 5.66767 20.4873 4.28757C20.4873 2.90747 19.106 2.43156 17.7248 2.43156L15.1528 2.43156L15.1528 6.09598L17.7724 6.09598Z" fill="#C9A063"/>
<path d="M26.2025 0.908691L28.0125 0.908691L28.0125 11.6164L26.2025 11.6164L26.2025 0.908691Z" fill="#C9A063"/>
<path d="M32.4898 0.908691L34.7284 0.908691C36.2525 3.62131 37.7291 6.28634 39.2532 8.95137C40.825 6.28634 42.3015 3.57372 43.8256 0.908691L46.0642 0.908691L46.0642 11.6164L44.2066 11.6164L44.2066 4.1448L39.9676 11.6164L38.5388 11.6164C37.1575 9.14172 35.7762 6.66706 34.3474 4.1448L34.3474 11.6164L32.4898 11.6164L32.4898 0.908691Z" fill="#C9A063"/>
<path d="M50.5418 0.908674L58.7817 0.908675L58.7817 2.47914L52.3517 2.47914L52.3517 5.28693L58.4483 5.28693L58.4483 6.95258L52.3517 6.95258L52.3517 9.95074L58.9246 9.95074L58.9246 11.5688L50.4941 11.5688L50.4941 0.861084L50.5418 0.908674Z" fill="#C9A063"/>
<path d="M68.2117 0.908674L76.4516 0.908675L76.4516 2.47914L70.0216 2.47914L70.0216 5.28693L76.1182 5.28693L76.1182 6.95258L70.0216 6.95258L70.0216 9.95074L76.5945 9.95074L76.5945 11.5688L68.1641 11.5688L68.1641 0.861084L68.2117 0.908674Z" fill="#C9A063"/>
<path d="M80.357 0.908691L85.12 0.908691C89.4066 0.908691 91.2166 3.28818 91.2166 6.19116C91.2166 9.37967 89.0256 11.6164 85.2629 11.6164L80.357 11.6164L80.357 0.908691ZM85.1676 9.99834C87.5015 9.99834 89.3114 8.95137 89.3114 6.28634C89.3114 3.28819 87.1204 2.47915 84.6913 2.47915L82.2146 2.47915L82.2146 9.99834L85.1676 9.99834Z" fill="#C9A063"/>
<path d="M94.932 0.908691L96.7419 0.908691L96.7419 11.6164L94.932 11.6164L94.932 0.908691Z" fill="#C9A063"/>
<path d="M99.8855 2.47915L99.8855 0.908691L109.935 0.908691L109.935 2.47915L105.792 2.47915L105.792 11.6164L103.982 11.6164L103.982 2.47915L99.8379 2.47915L99.8855 2.47915Z" fill="#C9A063"/>
<path d="M113.079 0.908691L114.889 0.908691L114.889 11.6164L113.079 11.6164L113.079 0.908691Z" fill="#C9A063"/>
<path d="M118.604 6.28627C118.604 3.00257 121.51 0.718261 125.082 0.718261C128.654 0.718262 131.559 3.09775 131.559 6.28627C131.559 9.47478 128.702 11.8543 125.082 11.8543C121.462 11.8543 118.604 9.56996 118.604 6.28627ZM125.082 10.1886C127.558 10.1886 129.607 8.52298 129.607 6.23868C129.607 3.95437 127.606 2.28872 125.082 2.28872C122.557 2.28872 120.509 3.95437 120.509 6.23867C120.509 8.52298 122.605 10.1886 125.082 10.1886Z" fill="#C9A063"/>
<path d="M135.227 0.908691L137.132 0.908691C139.228 3.28818 141.562 5.95321 143.8 8.61824L143.8 0.908691L145.61 0.908691L145.61 11.6164L143.705 11.6164C141.514 9.09413 139.275 6.66706 137.037 4.00203L137.037 11.6164L135.227 11.6164L135.227 0.908691Z" fill="#C9A063"/>
<path d="M154.85 6.28627C154.85 3.00257 157.756 0.718261 161.328 0.718261C164.9 0.718262 167.805 3.09775 167.805 6.28627C167.805 9.47478 164.948 11.8543 161.328 11.8543C157.708 11.8543 154.85 9.56996 154.85 6.28627ZM161.328 10.1886C163.805 10.1886 165.853 8.52298 165.853 6.23868C165.853 3.95437 163.852 2.28872 161.328 2.28872C158.803 2.28872 156.755 3.95437 156.755 6.23867C156.755 8.52298 158.851 10.1886 161.328 10.1886Z" fill="#C9A063"/>
<path d="M171.473 0.908691L179.57 0.908691L179.57 2.52674L173.282 2.52674L173.282 5.52491L179.236 5.52491L179.236 7.19054L173.282 7.19054L173.282 11.6164L171.473 11.6164L171.473 0.908691Z" fill="#C9A063"/>
<path d="M187.476 6.23866C187.476 2.71701 190.476 0.670654 193.953 0.670654C196.525 0.670654 198.859 1.90799 199.717 3.95435L198.05 4.62061C197.335 3.2405 195.859 2.3363 193.906 2.3363C191.381 2.3363 189.381 3.85917 189.381 6.33384C189.381 9.09405 191.858 10.2362 194.144 10.2362C196.43 10.2362 197.954 9.18923 198.573 7.47599L200.24 8.04707C199.288 10.5693 197.097 11.9018 194.096 11.9018C190.286 11.9018 187.523 9.66512 187.523 6.28625L187.476 6.23866Z" fill="#C9A063"/>
<path d="M203.384 0.908691L205.194 0.908691L205.194 5.47731L211.815 5.47731L211.815 0.908691L213.625 0.908691L213.625 11.6164L211.815 11.6164L211.815 7.14296L205.194 7.14296L205.194 11.6164L203.384 11.6164L203.384 0.908691Z" fill="#C9A063"/>
<path d="M218.102 0.908674L226.342 0.908675L226.342 2.47914L219.912 2.47914L219.912 5.28693L226.008 5.28693L226.008 6.95258L219.912 6.95258L219.912 9.95074L226.485 9.95074L226.485 11.5688L218.054 11.5688L218.054 0.861084L218.102 0.908674Z" fill="#C9A063"/>
<path d="M230.248 0.908691L234.963 0.908691C236.535 0.908691 239.297 1.47977 239.297 4.28757C239.297 6.23875 237.868 7.28573 236.201 7.52368C237.297 8.90378 238.44 10.2363 239.535 11.6164L237.487 11.6164L234.249 7.66644L232.058 7.66644L232.058 11.6164L230.248 11.6164L230.248 0.908691ZM234.725 6.09598C236.106 6.09598 237.44 5.66767 237.44 4.28757C237.44 2.90747 236.058 2.43156 234.677 2.43156L232.058 2.43156L232.058 6.09598L234.677 6.09598L234.725 6.09598Z" fill="#C9A063"/>
<path d="M243.155 0.908691L247.87 0.908691C249.442 0.908691 252.204 1.47977 252.204 4.28757C252.204 6.23875 250.776 7.28573 249.109 7.52368C250.204 8.90378 251.347 10.2363 252.443 11.6164L250.395 11.6164L247.156 7.66644L244.965 7.66644L244.965 11.6164L243.155 11.6164L243.155 0.908691ZM247.584 6.09598C248.966 6.09598 250.299 5.66767 250.299 4.28757C250.299 2.90747 248.918 2.43156 247.537 2.43156L244.965 2.43156L244.965 6.09598L247.584 6.09598Z" fill="#C9A063"/>
<path d="M258.92 7.8568C257.444 5.66767 254.967 1.90808 254.253 0.908691L256.205 0.908691L259.778 6.19116C260.968 4.52552 261.111 4.19239 263.398 0.908691L265.35 0.908691C263.779 3.193 262.254 5.5249 260.683 7.8568L260.683 11.6164L258.873 11.6164L258.873 7.8568L258.92 7.8568Z" fill="#C9A063"/>
</svg>
