<svg width="39" height="39" viewBox="0 0 39 39" fill="none" xmlns="http://www.w3.org/2000/svg">
<g clip-path="url(#clip0_51_2555)">
<path d="M23.716 13.5012C23.6244 13.5771 23.5481 13.6682 23.4718 13.7897C23.3802 13.9415 23.3497 14.0781 23.3497 14.1388C23.2734 14.4425 23.4107 14.7765 23.6549 14.9587L23.8381 15.1105C23.9907 15.2319 24.1585 15.2775 24.3417 15.2775C24.5248 15.2775 24.7079 15.2167 24.8453 15.0953L24.9063 15.0346C24.9063 15.0346 25.0284 14.9283 25.0895 14.8827C25.1963 14.7917 25.2879 14.7006 25.3947 14.5943C25.5778 14.4273 25.7457 14.2603 25.9441 14.1085L26.0509 14.0174C26.8903 13.3494 27.7601 12.651 28.5385 11.8464C28.6911 11.6946 28.8437 11.5579 28.981 11.4061C29.2405 11.1632 29.4999 10.9203 29.7288 10.6622C29.8662 10.4952 30.0188 10.3434 30.1714 10.1916L30.4766 9.87276C30.675 9.67539 30.9039 9.44767 31.0871 9.15921C31.1023 9.12885 31.1634 9.06812 31.2244 9.0074L31.3618 8.87076C31.6212 8.61267 31.8654 8.35458 32.1401 8.11167L32.2927 7.97503C32.4606 7.82322 32.6132 7.6714 32.7658 7.54994C32.9489 7.42849 33.071 7.27667 33.2083 7.12485C33.3762 6.94267 33.4678 6.62386 33.422 6.38095C33.3762 6.10768 33.1931 5.87995 32.9336 5.74331C32.7658 5.65222 32.5674 5.63704 32.3842 5.68259C31.7433 5.84958 31.2702 6.22913 30.8887 6.59349C30.6292 6.85158 30.3698 7.10967 30.1103 7.36776L29.8662 7.61067C29.7288 7.74731 29.5915 7.88394 29.4694 8.03576C29.2863 8.26349 29.0726 8.49121 28.8437 8.71894L28.5995 8.96185C28.4927 9.06812 28.3858 9.1744 28.2943 9.29585C28.0959 9.53876 27.8975 9.7513 27.6838 9.93348C27.4549 10.1308 27.2413 10.3586 27.0124 10.5711C26.8903 10.6926 26.7529 10.8292 26.6308 10.9507C26.4172 11.148 26.2035 11.3302 25.9899 11.5124L25.6999 11.7553C25.4252 11.9982 25.1505 12.2259 24.8758 12.4537C24.5095 12.7421 24.1433 13.0609 23.6854 13.486L23.716 13.5012Z" fill="#37000A"/>
<path d="M18.5117 37.215C18.5117 37.7312 18.7407 38.0348 18.9543 38.1866C19.0917 38.2929 19.2595 38.3385 19.4274 38.3385C19.5342 38.3385 19.6411 38.3233 19.7326 38.2777C19.9768 38.1715 20.2973 37.9437 20.3736 37.4427C20.4804 36.7444 20.5262 35.9701 20.5109 35.0896C20.5109 34.8315 20.5109 34.5886 20.5109 34.3305C20.5109 33.8446 20.5109 33.3436 20.4652 32.8275C20.4346 32.4935 20.4499 32.1443 20.4652 31.7799V31.4004C20.4652 31.2789 20.4652 31.1423 20.4804 31.0208C20.4804 30.8387 20.4957 30.6413 20.4957 30.4591C20.4957 29.867 20.4652 29.2597 20.4346 28.6677V28.5614C20.3889 27.7871 20.3583 27.0432 20.4346 26.2993C20.4652 25.9653 20.3278 25.6617 20.0836 25.4643C19.8395 25.2669 19.5037 25.2062 19.1832 25.3125C18.7559 25.4339 18.466 25.7983 18.4354 26.2386C18.4049 26.5574 18.4354 26.861 18.4354 27.1191C18.4812 27.9541 18.4965 28.7891 18.5117 29.6241C18.5117 30.0037 18.5117 30.3984 18.5117 30.7779V31.7192C18.5117 32.0684 18.5117 32.4024 18.5117 32.7516C18.5117 33.1615 18.5117 33.5562 18.5117 33.9661V34.9377C18.527 35.4843 18.527 36.046 18.527 36.5925C18.527 36.6988 18.527 36.8203 18.527 36.9265V37.215H18.5117Z" fill="#37000A"/>
<path d="M0.641073 20.0899C0.763162 20.1658 0.88525 20.1962 0.976816 20.2114C1.48043 20.3328 1.96878 20.3025 2.36557 20.2569C2.57923 20.2417 2.77762 20.2265 2.99127 20.2114L4.15111 20.181C4.24268 20.181 4.34951 20.181 4.44107 20.181C4.94469 20.2265 5.43304 20.2114 5.92139 20.181C6.07401 20.181 6.24188 20.181 6.39449 20.181H7.40172C7.40172 20.181 7.53907 20.181 7.61537 20.181H7.70694C8.11898 20.181 8.53103 20.181 8.94308 20.1962L10.1792 20.2265C10.4539 20.2265 10.7286 20.2265 10.9881 20.2569C11.4001 20.2721 11.7969 20.2873 12.2089 20.3176C12.2395 20.3176 12.2547 20.3176 12.2852 20.3176C12.7889 20.3176 13.033 20.014 13.1246 19.847C13.2925 19.5434 13.2925 19.1942 13.1246 18.8905C12.9415 18.5565 12.621 18.3592 12.2242 18.344L10.927 18.2985C10.7134 18.2985 10.4997 18.2985 10.2708 18.2985H10.0571C9.75192 18.2681 9.4467 18.2681 9.11095 18.2985C9.00413 18.2985 8.8973 18.2985 8.71417 18.2985H8.46999C8.05794 18.2681 7.64589 18.2529 7.20332 18.2833C6.95915 18.2985 6.71497 18.2985 6.48605 18.2833H6.21135C6.21135 18.2833 6.15031 18.2833 6.11979 18.2833C6.01296 18.2833 5.86035 18.2529 5.69248 18.2833C5.50935 18.3136 5.29569 18.2833 5.08204 18.2833H4.57842C4.22742 18.2529 3.81537 18.2377 3.3728 18.3288C3.05232 18.2985 2.73184 18.3288 2.4724 18.344C2.21296 18.3592 1.98405 18.3895 1.77039 18.344C1.73987 18.344 1.70935 18.3288 1.6483 18.344C1.60252 18.344 1.572 18.344 1.52621 18.344C1.40413 18.344 1.2973 18.344 1.19047 18.344C1.03786 18.3744 0.88525 18.4047 0.717378 18.4806C0.412158 18.6021 0.198503 18.9057 0.183242 19.2549C0.15272 19.6193 0.335852 19.9381 0.625812 20.1203L0.641073 20.0899Z" fill="#37000A"/>
<path d="M5.66203 7.15497L5.86043 7.36751C6.19617 7.73187 6.51665 8.09624 6.86765 8.43024C6.95922 8.52133 7.05079 8.61242 7.15761 8.68833C7.29496 8.80978 7.41705 8.93123 7.53914 9.05269C7.63071 9.14378 7.73753 9.25005 7.8291 9.34114L8.27167 9.72069C8.56163 9.9636 8.83633 10.2217 9.12629 10.4798C9.32468 10.662 9.52308 10.8441 9.73673 11.0263C10.0877 11.3451 10.4387 11.6488 10.7592 11.9828C10.8355 12.0587 10.9118 12.1346 11.0034 12.1953L11.1865 12.3471C11.1865 12.3471 11.3239 12.4534 11.3697 12.5141C11.5833 12.7419 11.797 12.9696 12.0106 13.1973L13.4604 14.7459C13.4604 14.7459 13.6283 14.9432 13.8267 15.0191C13.9946 15.095 14.1319 15.1102 14.2693 15.1102C14.4677 15.1102 14.6203 15.0495 14.7118 14.9888C14.9255 14.8673 15.0323 14.7003 15.0934 14.594C15.246 14.3663 15.246 14.0323 15.1544 13.7742C15.1239 13.6983 15.0628 13.5617 14.956 13.425C14.7729 13.2277 14.5897 13.0151 14.3913 12.8026L14.0861 12.4838C13.9183 12.3016 13.7504 12.1194 13.5825 11.9372C13.1399 11.4514 12.6516 10.9049 12.0411 10.4494C11.9954 10.419 11.9496 10.3735 11.9038 10.328L11.5528 9.99396C11.3849 9.82696 11.2171 9.67514 11.0339 9.50814C10.8355 9.32596 10.6371 9.15896 10.4235 8.97678L9.9046 8.50614C9.61464 8.24805 9.32468 7.98996 9.03472 7.71669C8.69898 7.39787 8.34798 7.06388 8.01223 6.72988C7.8291 6.54769 7.66123 6.38069 7.4781 6.19851L7.12709 5.83415C6.97448 5.68233 6.73031 5.46979 6.36404 5.3787C6.0283 5.30279 5.69255 5.43942 5.4789 5.7127C5.26525 5.98597 5.23472 6.31997 5.41786 6.66915C5.4789 6.77542 5.53994 6.92724 5.67729 7.07906L5.66203 7.15497Z" fill="#37000A"/>
<path d="M27.3481 28.3789C27.5312 28.5459 27.6991 28.6977 27.8669 28.8647C28.2332 29.2291 28.5842 29.5934 28.9352 29.9578L29.5151 30.5499C29.6067 30.641 29.6983 30.7169 29.8203 30.8232C30.0035 30.9902 30.2019 31.142 30.4003 31.2938C30.736 31.5519 31.0412 31.81 31.3159 32.0832C31.4533 32.2351 31.6211 32.3262 31.8043 32.4324C31.9569 32.5235 32.1095 32.5691 32.2774 32.5691C32.5216 32.5691 32.7657 32.478 32.9489 32.2806C33.2541 31.977 33.3151 31.5367 33.1015 31.1572C33.0557 31.0812 32.9641 30.9598 32.8878 30.8991C32.7505 30.7776 32.6284 30.6562 32.5063 30.5347C32.2621 30.2918 32.0179 30.0489 31.7127 29.8212C31.4685 29.639 31.2244 29.4264 30.9649 29.1835C30.7665 28.9862 30.5834 28.7888 30.385 28.5914C30.2324 28.4244 30.0798 28.2726 29.9272 28.1208C29.5609 27.7564 29.1794 27.3921 28.8131 27.0277C28.6147 26.8303 28.4011 26.6482 28.2027 26.466L27.7754 26.0713C27.7754 26.0713 27.6838 25.9802 27.638 25.9346C27.5464 25.8284 27.4396 25.7373 27.3328 25.6462C26.936 25.3122 26.5697 24.963 26.2035 24.6138C26.0203 24.4316 25.8372 24.2646 25.6541 24.0976C25.5015 23.961 25.3489 23.8244 25.1962 23.6725L24.9979 23.4904C24.7689 23.2778 24.4179 23.2171 24.1432 23.3537C23.9448 23.4448 23.5328 23.627 23.4565 24.1432C23.4107 24.4772 23.5175 24.7808 23.8075 25.0389L24.2195 25.4336C24.4637 25.6765 24.7232 25.9194 24.9826 26.1472C25.6388 26.7393 26.2798 27.3313 26.9207 27.9538C27.0734 28.1056 27.226 28.2423 27.3938 28.3941L27.3481 28.3789Z" fill="#37000A"/>
<path d="M5.40271 32.448C5.40271 32.7972 5.60111 33.1008 5.92159 33.2223C6.02841 33.2526 6.1505 33.283 6.28785 33.283C6.51677 33.283 6.79147 33.2071 7.06617 32.9338C7.26456 32.7516 7.44769 32.5543 7.64609 32.3569L8.36336 31.5978C8.36336 31.5978 8.5007 31.4612 8.56175 31.4004L9.0501 30.9146C9.27902 30.6869 9.52319 30.444 9.75211 30.2314C9.82842 30.1555 9.91998 30.0948 10.0115 30.0341C10.0879 29.9734 10.1642 29.9126 10.2405 29.8519C10.622 29.5483 10.9425 29.1991 11.2477 28.8651C11.3545 28.7436 11.4613 28.6374 11.5682 28.5159C11.7208 28.3489 11.8887 28.1971 12.0565 28.0453C12.377 27.772 12.7585 27.4228 13.1095 26.9977C13.3232 26.7245 13.5216 26.4815 13.7505 26.2994C14.0252 26.0716 14.2541 25.8287 14.4678 25.601C14.6662 25.3885 14.8493 25.1911 15.0477 25.0241C15.2613 24.8419 15.3834 24.5686 15.3377 24.2954C15.2766 23.8247 14.9714 23.4907 14.5441 23.3996C14.2846 23.3389 13.9031 23.3541 13.4911 23.8096C13.43 23.8703 13.3842 23.931 13.3232 23.9917L12.5449 24.7964C12.3617 24.9937 12.1634 25.1911 11.9802 25.3733C11.8429 25.5099 11.7055 25.6617 11.5682 25.8135C11.3545 26.0413 11.1714 26.2538 10.9577 26.436C10.5152 26.8004 10.1336 27.2103 9.75211 27.605C9.58424 27.7872 9.40111 27.9542 9.23323 28.1364C9.01958 28.3489 8.83645 28.5159 8.63805 28.6525C8.28705 28.9258 7.98183 29.1991 7.72239 29.4724C7.55452 29.6545 7.37139 29.8367 7.18825 30.0189C7.03564 30.1707 6.89829 30.3225 6.74568 30.4744C6.40994 30.8235 6.08946 31.1727 5.78424 31.5219C5.69267 31.6282 5.40271 31.947 5.38745 32.448H5.40271Z" fill="#37000A"/>
<path d="M19.107 13.2278C19.107 13.2278 19.2596 13.243 19.3206 13.243C19.6716 13.243 19.9768 13.0912 20.1905 12.8179C20.2821 12.6965 20.3431 12.5446 20.3584 12.3928L20.3889 11.9222C20.4042 11.6186 20.4347 11.2997 20.4499 10.9961C20.4499 10.8595 20.4805 10.7228 20.4957 10.5862C20.5262 10.3129 20.5568 10.0396 20.5568 9.75119C20.5568 9.52347 20.5568 9.28056 20.572 9.05283C20.5873 8.65811 20.6026 8.26338 20.5873 7.86865C20.572 7.32211 20.5873 6.76038 20.5873 6.21384V5.43957C20.5873 5.3333 20.5873 5.21184 20.5873 5.10557V4.71084C20.572 4.43757 20.5568 4.1643 20.5568 3.89103C20.5568 3.70885 20.5568 3.52667 20.5568 3.35967C20.5568 3.19267 20.5568 3.01049 20.5568 2.84349C20.5568 2.46394 20.5568 2.0844 20.5568 1.70485V1.62894C20.5568 1.50749 20.5568 1.37085 20.5415 1.23422V1.06722C20.511 0.672491 20.1905 0.338492 19.7937 0.32331C19.2138 0.277765 18.7712 0.626946 18.6797 1.20385C18.6034 1.78076 18.5881 2.35767 18.6339 2.91939C18.6339 2.91939 18.6339 3.02567 18.6491 3.04085L18.6186 3.46594C18.6034 3.67848 18.5881 3.89103 18.5728 4.10357C18.5728 4.37685 18.5576 4.63494 18.5728 4.90821C18.6186 5.27257 18.6186 5.65211 18.6034 6.04684C18.6034 6.22902 18.6034 6.4112 18.6034 6.59338C18.6034 6.77557 18.6034 6.95775 18.6034 7.13993C18.6034 7.39802 18.6034 7.65611 18.6034 7.9142C18.6034 8.33929 18.6034 8.65811 18.6034 8.94656C18.5728 9.23501 18.5576 9.52347 18.5423 9.8271L18.466 11.406C18.466 11.406 18.466 11.4819 18.466 11.4971V11.6337C18.4202 11.8311 18.405 12.0285 18.3897 12.2258C18.3744 12.4536 18.4507 12.6357 18.466 12.6813C18.5576 12.9546 18.8018 13.1671 19.0917 13.2126L19.107 13.2278Z" fill="#37000A"/>
<path d="M29.6677 18.3894C29.1946 18.3439 28.7216 18.3135 28.2485 18.2983C27.8364 18.2983 27.4091 18.2983 26.9971 18.2983H26.5087C26.4019 18.2983 26.2951 18.2983 26.1882 18.3287C25.7609 18.4198 25.4099 18.8297 25.4099 19.27C25.4099 19.7558 25.7762 20.1961 26.2645 20.2568C26.3103 20.2568 26.4171 20.2568 26.4629 20.2568H26.6461C26.7681 20.2568 26.8902 20.2568 27.0123 20.2568H27.1497C27.577 20.2568 28.0043 20.2568 28.4163 20.2872C28.63 20.2872 28.8284 20.3023 29.042 20.3175C29.3015 20.3327 29.5762 20.3479 29.8356 20.3631C30.0493 20.3631 30.2629 20.3631 30.4766 20.3631C30.9802 20.3631 31.5296 20.3631 32.1248 20.3175C32.8726 20.2872 33.6509 20.272 34.5208 20.272C34.9938 20.272 35.4669 20.2872 35.94 20.3175C36.23 20.3175 36.52 20.3327 36.8099 20.3479C37.0083 20.3479 37.2067 20.3327 37.3746 20.3023C37.8629 20.2112 38.1987 19.8013 38.1681 19.2852C38.1529 18.9208 37.8782 18.602 37.5119 18.5412C37.2677 18.4957 37.0388 18.4805 36.8099 18.4502H36.6573C36.2758 18.3894 35.879 18.3742 35.4975 18.3591C35.2228 18.3591 34.9633 18.3439 34.6886 18.3135C34.6276 18.3135 34.5665 18.3135 34.4902 18.3135L31.4075 18.435C30.8428 18.4502 30.2324 18.4653 29.6525 18.4198L29.6677 18.3894Z" fill="#37000A"/>
<path d="M25.2114 23.0049C25.2114 23.0049 25.3182 23.0808 25.364 23.096L25.715 23.2933C26.0355 23.4603 26.3407 23.6425 26.6612 23.7943L26.8138 23.8702C26.9664 23.9461 27.1037 24.0069 27.2563 24.098C27.6531 24.356 28.0194 24.5382 28.3857 24.69C28.5077 24.7356 28.6298 24.7963 28.7519 24.857L29.1029 25.0392C29.4997 25.2518 29.9118 25.4643 30.3696 25.6465C30.5832 25.7224 30.7969 25.7983 31.0106 25.8742C31.1174 25.9046 31.2242 25.9198 31.331 25.9198C31.7126 25.9198 32.0483 25.7072 32.2162 25.3429C32.384 24.9937 32.262 24.5838 31.9567 24.356L31.8957 24.3105C31.8194 24.2498 31.7431 24.2042 31.6668 24.1587C31.5447 24.098 31.4226 24.0372 31.3005 23.9765C31.1937 23.931 31.0716 23.8702 30.9648 23.8247C30.7664 23.7488 30.5832 23.6577 30.4001 23.5666C29.8355 23.2478 29.3013 22.9745 28.7672 22.7316C28.6909 22.7012 28.6298 22.6557 28.5077 22.595L28.3246 22.4887C28.0194 22.3065 27.6836 22.1091 27.3174 21.9725C27.18 21.9118 27.0427 21.8359 26.9053 21.76L26.8138 21.7144C26.6764 21.6385 26.5391 21.5626 26.4017 21.4715L26.2033 21.3652C25.9439 21.2134 25.6081 21.2286 25.364 21.3956C25.1351 21.5474 24.8604 21.8511 24.8604 22.3824C24.8604 22.6253 25.013 22.8834 25.2114 23.0201V23.0049Z" fill="#37000A"/>
<path d="M21.9151 13.7133C21.9151 13.7133 21.9915 13.7133 22.0372 13.7133C22.2356 13.683 22.5256 13.5767 22.7392 13.2275C22.785 13.1516 22.8308 13.0757 22.8613 12.9998L22.9529 12.7721C23.0597 12.5443 23.1513 12.3166 23.2429 12.0737C23.3497 11.7701 23.4565 11.4664 23.5633 11.178C23.6702 10.8895 23.777 10.6011 23.8838 10.3126C24.0364 9.88753 24.2043 9.46244 24.3722 9.05253L24.5248 8.67299C24.5248 8.67299 24.5706 8.58189 24.6164 8.50599L24.6927 8.36935C24.7537 8.2479 24.83 8.12644 24.8758 8.00499C24.9674 7.79244 25.0589 7.56472 25.1505 7.33699L25.2268 7.15481C25.4404 6.63863 25.2115 6.10726 24.6927 5.89472C24.3264 5.7429 23.8991 5.89472 23.7007 6.21354L23.6549 6.27426C23.6549 6.27426 23.5939 6.38054 23.5633 6.42608L23.3649 6.80563C23.2429 7.03335 23.1208 7.26108 22.9834 7.50399C22.8155 7.79244 22.6782 8.09608 22.5561 8.43008L22.2051 9.35617C22.1135 9.61426 22.022 9.85716 21.9457 10.1153C21.7931 10.5555 21.6404 10.9654 21.4726 11.3602C21.381 11.5879 21.2742 11.8004 21.1674 12.013L20.9995 12.3773C20.9537 12.4836 20.9384 12.5747 20.9384 12.6051C20.8621 12.8783 20.9537 13.182 21.1674 13.3793C21.2589 13.4704 21.5336 13.7133 21.9151 13.7133Z" fill="#37000A"/>
<path d="M7.55434 24.0677C7.67643 24.0221 7.78326 23.9917 7.90535 23.9614C8.25635 23.8855 8.59209 23.764 8.9431 23.597C9.08045 23.5363 9.2178 23.4756 9.38567 23.4148C9.66037 23.3237 9.93506 23.2327 10.2098 23.1567C10.9423 22.9746 11.6596 22.7317 12.2547 22.5191C12.3616 22.4736 12.4684 22.4584 12.5752 22.428L12.9262 22.3369C13.2772 22.2458 13.5367 21.927 13.5367 21.5627C13.5367 21.3957 13.5367 20.9554 13.1857 20.6669C12.9568 20.4696 12.6515 20.4088 12.3005 20.4848C12.1174 20.5303 11.9343 20.5758 11.7511 20.6366L11.3391 20.7732C11.1559 20.8339 10.9728 20.8947 10.7897 20.9554C10.4234 21.0617 10.0572 21.1679 9.69089 21.2742L8.85153 21.5171C8.6684 21.5627 8.47 21.6234 8.27161 21.7297C7.93587 21.9118 7.61539 22.0181 7.31016 22.094C6.86759 22.1851 6.53185 22.4128 6.30294 22.762C6.10454 23.0657 6.1198 23.4604 6.36398 23.7337C6.57763 23.9766 6.86759 24.098 7.17282 24.098C7.2949 24.098 7.43225 24.0677 7.5696 24.0221L7.55434 24.0677Z" fill="#37000A"/>
<path d="M24.8604 29.9734C24.7993 29.8367 24.7383 29.7001 24.662 29.5634C24.4788 29.2446 24.3415 28.8954 24.2347 28.5007C24.1736 28.2578 24.0821 27.9997 23.9905 27.7568C23.7616 27.1799 23.5174 26.5878 23.258 25.9805C23.1817 25.7984 23.1053 25.6314 23.0901 25.4947C23.0748 25.3581 23.029 25.2366 22.9833 25.1455C22.7849 24.6901 22.2813 24.4775 21.8387 24.6445C21.625 24.7205 21.4266 24.8723 21.3045 25.0848C21.1672 25.3125 21.1672 25.5403 21.1825 25.6162C21.1825 26.0868 21.3351 26.4664 21.4572 26.7396C21.7166 27.3469 21.976 27.939 22.2202 28.5614C22.266 28.6677 22.2965 28.7588 22.327 28.8651L22.4644 29.275C22.556 29.5483 22.6475 29.8215 22.7543 30.0796C22.8764 30.3681 23.029 30.6565 23.1664 30.9298L23.319 31.2183C23.3648 31.3094 23.4411 31.4612 23.609 31.5978C23.7616 31.7193 23.9142 31.78 23.9905 31.7952H24.021C24.1126 31.8407 24.2041 31.8559 24.2957 31.8559C24.4636 31.8559 24.6162 31.8103 24.7535 31.7041C24.9672 31.5523 25.0893 31.2942 25.0893 31.0361C25.0893 30.7324 25.0588 30.4288 24.9214 30.11L24.8604 29.9582V29.9734Z" fill="#37000A"/>
<path d="M26.0509 18.0252C26.1578 18.0252 26.2493 18.0252 26.3561 17.9797C26.463 17.9493 26.5545 17.9189 26.6461 17.8734L28.8132 16.9473C29.4236 16.674 30.0188 16.4311 30.6292 16.2489C30.9039 16.173 31.1786 16.0668 31.4839 15.9453C31.6822 15.8694 31.8196 15.7479 31.9112 15.6872C32.1859 15.4595 32.2927 15.0648 32.1553 14.7156C32.0485 14.4423 31.7433 14.1387 31.316 14.1387C31.1786 14.1387 31.0108 14.1387 30.8124 14.1994C30.4156 14.3209 30.0341 14.4423 29.6525 14.5789C29.0879 14.7763 28.5385 15.004 28.0196 15.2318C27.8059 15.3229 27.5923 15.4139 27.3786 15.505L27.226 15.5658C26.6766 15.7935 26.1425 16.0212 25.5626 16.1882C25.3337 16.2489 25.1658 16.4311 25.0742 16.6437C24.9826 16.8562 24.9979 17.1143 25.0895 17.3268C25.1353 17.4179 25.1963 17.5698 25.3337 17.7216C25.532 17.9189 25.7762 18.01 26.0662 18.01L26.0509 18.0252Z" fill="#37000A"/>
<path d="M14.4219 32.0837C14.4219 32.0837 14.4677 32.0837 14.4982 32.0837C14.7424 32.0837 14.9713 31.9622 15.1239 31.7801C15.2765 31.5979 15.4291 31.4005 15.5512 31.1424L16.1006 30.0038C16.1616 29.8672 16.1921 29.7457 16.2227 29.6394C16.2837 29.4269 16.3448 29.2599 16.4363 29.0929C16.5279 28.9107 16.6195 28.7133 16.711 28.516C16.8026 28.3338 16.8789 28.1668 16.9705 27.9846C17.1841 27.5747 17.3215 27.1496 17.4283 26.8004C17.4741 26.6638 17.5351 26.5272 17.5962 26.3753L17.7183 26.0869C17.8403 25.7833 17.7183 25.3885 17.4588 25.176C17.3978 25.1153 17.3215 25.0545 17.2146 24.9938C16.8789 24.7964 16.4363 24.842 16.1464 25.1304C16.0395 25.2367 15.9175 25.3733 15.8411 25.5707C15.7648 25.7833 15.6885 25.9958 15.6122 26.1932L15.5817 26.2994C15.4749 26.6031 15.3681 26.9219 15.2307 27.2103L15.1239 27.4533C14.9713 27.7721 14.8187 28.0909 14.6508 28.4097C14.5287 28.6374 14.4219 28.8955 14.3608 29.1688C14.3303 29.3054 14.2998 29.3965 14.254 29.4572C14.0403 29.852 13.8572 30.2771 13.7199 30.7022C13.6741 30.8388 13.6436 30.9906 13.6436 31.1272C13.6436 31.4005 13.7504 31.5979 13.7962 31.6586C13.9183 31.9015 14.1624 32.0382 14.4371 32.0685L14.4219 32.0837Z" fill="#37000A"/>
<path d="M13.3384 15.338L12.7585 15.0495C12.6517 14.9888 12.5296 14.9433 12.4228 14.8825C12.1023 14.6852 11.7818 14.5334 11.4766 14.3664C11.3393 14.3056 11.2019 14.2297 11.0646 14.1538C10.8509 14.0476 10.6372 13.9413 10.4236 13.835C10.0726 13.668 9.7521 13.5162 9.46214 13.334C9.26375 13.2126 9.05009 13.1063 8.83644 13L8.74487 12.9545C8.577 12.8786 8.40913 12.8482 8.19548 12.833C7.89025 12.833 7.61556 12.9848 7.44768 13.2429C7.27981 13.501 7.24929 13.8046 7.37138 14.0779C7.46295 14.2753 7.58503 14.4423 7.75291 14.5485C7.87499 14.6245 7.98182 14.7004 8.10391 14.7763L8.19548 14.837C8.65331 15.1103 9.14166 15.3532 9.59949 15.5657L10.0878 15.8086C10.2405 15.8845 10.3778 15.9453 10.5304 16.0212C10.8356 16.173 11.1409 16.3096 11.4461 16.4918C11.7208 16.6588 12.0107 16.8106 12.2854 16.9473L12.6517 17.1295C12.7738 17.1902 12.8959 17.2205 13.0332 17.2205C13.2469 17.2205 13.4605 17.1295 13.6131 16.9776C13.7658 16.8258 14.0099 16.5677 13.9641 16.1123C13.9336 15.8694 13.8115 15.5354 13.3842 15.3228L13.3384 15.338Z" fill="#37000A"/>
<path d="M14.254 9.55379C14.3608 9.84224 14.4677 10.1459 14.5745 10.4343C14.6813 10.7531 14.7881 10.9961 14.9102 11.2238C14.9713 11.3452 15.017 11.4819 15.0781 11.6185L15.7343 13.2885C15.8564 13.5921 16.1921 13.7895 16.5279 13.7895C16.5737 13.7895 16.6195 13.7895 16.65 13.7895C16.7263 13.7895 16.8789 13.7288 16.9552 13.6984C17.0773 13.6377 17.3978 13.4859 17.5046 13.1063C17.6114 12.7268 17.4588 12.4383 17.3672 12.3017C17.3367 12.2561 17.3062 12.2106 17.2909 12.1499L17.0773 11.6033C16.9857 11.3756 16.8942 11.1327 16.8026 10.905C16.7415 10.7531 16.6652 10.6013 16.5889 10.4343L16.4821 10.1914C16.4516 10.1155 16.4211 10.0396 16.3905 9.94851L16.2685 9.61451C16.1921 9.40197 16.1158 9.18942 16.0243 8.97688C15.9174 8.68842 15.7496 8.41515 15.5207 8.15706C15.3833 7.99006 15.1849 7.89897 14.9713 7.88379C14.7576 7.88379 14.544 7.94452 14.3913 8.08115C14.193 8.24815 13.903 8.64288 14.1319 9.28051L14.2387 9.56897L14.254 9.55379Z" fill="#37000A"/>
</g>
<defs>
<clipPath id="clip0_51_2555">
<rect width="38" height="38" fill="white" transform="translate(0.18335 0.338379)"/>
</clipPath>
</defs>
</svg>
