<svg width="67" height="68" viewBox="0 0 67 68" fill="none" xmlns="http://www.w3.org/2000/svg">
<g clip-path="url(#clip0_110_524)">
<path d="M41.4916 23.5541C41.3301 23.69 41.1956 23.853 41.061 24.0703C40.8996 24.342 40.8458 24.5865 40.8458 24.6952C40.7112 25.2385 40.9534 25.8362 41.3839 26.1622L41.7068 26.4339C41.9759 26.6512 42.2719 26.7327 42.5948 26.7327C42.9177 26.7327 43.2406 26.6241 43.4827 26.4067L43.5904 26.2981C43.5904 26.2981 43.8056 26.1079 43.9133 26.0264C44.1016 25.8634 44.2631 25.7004 44.4514 25.5102C44.7743 25.2114 45.0703 24.9125 45.4201 24.6408L45.6084 24.4778C47.0884 23.2825 48.6221 22.0328 49.9944 20.5929C50.2635 20.3212 50.5325 20.0767 50.7747 19.805C51.2321 19.3704 51.6896 18.9357 52.0932 18.4738C52.3353 18.175 52.6044 17.9033 52.8735 17.6317L53.4116 17.0611C53.7614 16.708 54.1651 16.3005 54.488 15.7843C54.5149 15.7299 54.6225 15.6213 54.7301 15.5126L54.9723 15.2681C55.4297 14.8062 55.8602 14.3444 56.3446 13.9097L56.6137 13.6652C56.9096 13.3935 57.1787 13.1219 57.4478 12.9045C57.7707 12.6872 57.9859 12.4155 58.2281 12.1438C58.5241 11.8178 58.6855 11.2473 58.6048 10.8126C58.5241 10.3236 58.2012 9.91611 57.7438 9.67161C57.4478 9.5086 57.098 9.48143 56.7751 9.56294C55.645 9.86178 54.8108 10.541 54.1382 11.193C53.6807 11.6548 53.2233 12.1167 52.7659 12.5785L52.3353 13.0132C52.0932 13.2577 51.851 13.5022 51.6357 13.7739C51.3129 14.1814 50.9361 14.5889 50.5325 14.9964L50.102 15.4311C49.9137 15.6213 49.7253 15.8114 49.5639 16.0288C49.2141 16.4635 48.8643 16.8438 48.4876 17.1698C48.0839 17.523 47.7072 17.9305 47.3036 18.3108C47.0884 18.5282 46.8462 18.7727 46.6309 18.99C46.2542 19.3432 45.8775 19.6692 45.5008 19.9952L44.9896 20.4299C44.5052 20.8646 44.0209 21.2721 43.5365 21.6796C42.8908 22.1958 42.245 22.7663 41.4377 23.527L41.4916 23.5541Z" fill="#E5B874"/>
<path d="M32.3162 65.9896C32.3162 66.9133 32.7198 67.4567 33.0965 67.7283C33.3387 67.9185 33.6346 68 33.9306 68C34.119 68 34.3073 67.9728 34.4688 67.8913C34.8993 67.7012 35.4644 67.2936 35.5989 66.3971C35.7873 65.1474 35.868 63.7619 35.8411 62.1862C35.8411 61.7243 35.8411 61.2897 35.8411 60.8278C35.8411 59.9584 35.8411 59.0619 35.7603 58.1382C35.7065 57.5406 35.7334 56.9157 35.7603 56.2637V55.5845C35.7603 55.3672 35.7603 55.1227 35.7873 54.9053C35.7873 54.5793 35.8142 54.2261 35.8142 53.9001C35.8142 52.8406 35.7603 51.7539 35.7065 50.6944V50.5042C35.6258 49.1187 35.572 47.7875 35.7065 46.4563C35.7603 45.8586 35.5182 45.3152 35.0877 44.962C34.6571 44.6089 34.0652 44.5002 33.5001 44.6904C32.7467 44.9077 32.2354 45.5597 32.1816 46.3476C32.1278 46.9181 32.1816 47.4614 32.1816 47.9233C32.2624 49.4175 32.2893 50.9117 32.3162 52.4059C32.3162 53.0851 32.3162 53.7914 32.3162 54.4706V56.155C32.3162 56.7799 32.3162 57.3775 32.3162 58.0024C32.3162 58.7359 32.3162 59.4423 32.3162 60.1758V61.9145C32.3431 62.8925 32.3431 63.8977 32.3431 64.8757C32.3431 65.0659 32.3431 65.2833 32.3431 65.4734V65.9896H32.3162Z" fill="#E5B874"/>
<path d="M0.807206 35.3448C1.02247 35.4806 1.23773 35.535 1.39917 35.5622C2.28713 35.7795 3.14817 35.7252 3.84777 35.6437C4.22447 35.6165 4.57427 35.5893 4.95098 35.5622L6.99596 35.5078C7.15741 35.5078 7.34576 35.5078 7.50721 35.5078C8.39516 35.5893 9.2562 35.5622 10.1172 35.5078C10.3863 35.5078 10.6823 35.5078 10.9514 35.5078H12.7273C12.7273 35.5078 12.9695 35.5078 13.104 35.5078H13.2654C13.9919 35.5078 14.7185 35.5078 15.445 35.535L17.6245 35.5893C18.1088 35.5893 18.5931 35.5893 19.0506 35.6437C19.7771 35.6708 20.4767 35.698 21.2032 35.7523C21.257 35.7523 21.2839 35.7523 21.3377 35.7523C22.2257 35.7523 22.6562 35.209 22.8176 34.9101C23.1136 34.3668 23.1136 33.7419 22.8176 33.1986C22.4948 32.6009 21.9297 32.2477 21.2301 32.2206L18.9429 32.1391C18.5662 32.1391 18.1895 32.1391 17.7859 32.1391H17.4092C16.8711 32.0847 16.3329 32.0847 15.7409 32.1391C15.5526 32.1391 15.3642 32.1391 15.0413 32.1391H14.6108C13.8843 32.0847 13.1578 32.0576 12.3775 32.1119C11.947 32.1391 11.5164 32.1391 11.1128 32.1119H10.6285C10.6285 32.1119 10.5209 32.1119 10.467 32.1119C10.2787 32.1119 10.0096 32.0576 9.71363 32.1119C9.39074 32.1662 9.01403 32.1119 8.63733 32.1119H7.74937C7.1305 32.0576 6.40399 32.0304 5.62367 32.1934C5.05861 32.1391 4.49355 32.1934 4.03612 32.2206C3.57869 32.2477 3.17508 32.3021 2.79837 32.2206C2.74456 32.2206 2.69074 32.1934 2.58311 32.2206C2.50239 32.2206 2.44857 32.2206 2.36785 32.2206C2.15259 32.2206 1.96423 32.2206 1.77588 32.2206C1.5068 32.2749 1.23773 32.3292 0.941744 32.4651C0.403592 32.6824 0.0268847 33.2258 -2.29054e-05 33.8506C-0.0538382 34.5026 0.269053 35.0731 0.780298 35.3991L0.807206 35.3448Z" fill="#E5B874"/>
<path d="M9.65963 12.1982L10.0094 12.5785C10.6014 13.2306 11.1665 13.8826 11.7853 14.4803C11.9468 14.6433 12.1082 14.8063 12.2966 14.9421C12.5387 15.1595 12.754 15.3768 12.9693 15.5941C13.1307 15.7571 13.3191 15.9473 13.4805 16.1103L14.2608 16.7895C14.7721 17.2242 15.2564 17.686 15.7677 18.1479C16.1175 18.4739 16.4673 18.7999 16.844 19.1259C17.4628 19.6964 18.0817 20.2398 18.6468 20.8374C18.7813 20.9733 18.9159 21.1091 19.0773 21.2178L19.4002 21.4895C19.4002 21.4895 19.6424 21.6796 19.7231 21.7883C20.0998 22.1958 20.4765 22.6033 20.8532 23.0108L23.4094 25.7819C23.4094 25.7819 23.7054 26.1351 24.0552 26.2709C24.3512 26.4068 24.5934 26.4339 24.8355 26.4339C25.1853 26.4339 25.4544 26.3253 25.6159 26.2166C25.9926 25.9992 26.1809 25.7004 26.2885 25.5102C26.5576 25.1027 26.5576 24.505 26.3962 24.0432C26.3424 23.9074 26.2347 23.6628 26.0464 23.4183C25.7235 23.0652 25.4006 22.6848 25.0508 22.3045L24.5126 21.734C24.2167 21.408 23.9207 21.0819 23.6247 20.7559C22.8444 19.8866 21.9833 18.9086 20.907 18.0935C20.8263 18.0392 20.7456 17.9577 20.6648 17.8762L20.046 17.2785C19.75 16.9797 19.454 16.708 19.1311 16.4092C18.7813 16.0831 18.4315 15.7843 18.0548 15.4583L17.1399 14.6161C16.6287 14.1543 16.1175 13.6924 15.6062 13.2034C15.0142 12.6329 14.3954 12.0352 13.8034 11.4375C13.4805 11.1115 13.1845 10.8127 12.8616 10.4867L12.2428 9.83464C11.9737 9.56297 11.5432 9.18262 10.8974 9.01962C10.3054 8.88378 9.71344 9.12829 9.33674 9.6173C8.96003 10.1063 8.90622 10.704 9.22911 11.3288C9.33674 11.519 9.44437 11.7907 9.68654 12.0624L9.65963 12.1982Z" fill="#E5B874"/>
<path d="M47.8955 50.1781C48.2184 50.477 48.5144 50.7487 48.8104 51.0475C49.4562 51.6995 50.0751 52.3515 50.6939 53.0036L51.7164 54.0631C51.8779 54.2261 52.0393 54.3619 52.2546 54.5521C52.5775 54.8509 52.9273 55.1226 53.2771 55.3943C53.869 55.8561 54.4072 56.318 54.8915 56.807C55.1337 57.0787 55.4297 57.2417 55.7526 57.4318C56.0216 57.5948 56.2907 57.6763 56.5867 57.6763C57.0172 57.6763 57.4478 57.5133 57.7706 57.1602C58.3088 56.6168 58.4164 55.829 58.0397 55.1498C57.959 55.0139 57.7976 54.7966 57.663 54.6879C57.4208 54.4706 57.2056 54.2532 56.9903 54.0359C56.5598 53.6012 56.1293 53.1666 55.5911 52.759C55.1606 52.433 54.7301 52.0527 54.2727 51.618C53.9229 51.2648 53.6 50.9117 53.2502 50.5585C52.9811 50.2596 52.712 49.988 52.4429 49.7163C51.7971 49.0643 51.1245 48.4123 50.4787 47.7602C50.1289 47.4071 49.7522 47.0811 49.4024 46.755L48.649 46.0487C48.649 46.0487 48.4875 45.8857 48.4068 45.8042C48.2453 45.614 48.057 45.451 47.8686 45.288C47.169 44.6903 46.5233 44.0655 45.8775 43.4406C45.5546 43.1146 45.2317 42.8158 44.9088 42.5169C44.6397 42.2724 44.3706 42.0279 44.1016 41.7562L43.7518 41.4302C43.3482 41.0499 42.7293 40.9412 42.2449 41.1857C41.8951 41.3487 41.1686 41.6747 41.0341 42.5984C40.9534 43.1961 41.1417 43.7395 41.653 44.2013L42.3795 44.9077C42.81 45.3423 43.2674 45.777 43.7249 46.1845C44.8819 47.2441 46.012 48.3036 47.1421 49.4175C47.4112 49.6891 47.6803 49.9336 47.9763 50.2053L47.8955 50.1781Z" fill="#E5B874"/>
<path d="M9.2022 57.459C9.2022 58.0839 9.552 58.6272 10.1171 58.8446C10.3054 58.8989 10.5207 58.9533 10.7628 58.9533C11.1665 58.9533 11.6508 58.8174 12.1351 58.3284C12.4849 58.0024 12.8078 57.6492 13.1576 57.296L14.4223 55.9377C14.4223 55.9377 14.6644 55.6932 14.7721 55.5845L15.6331 54.7151C16.0367 54.3076 16.4673 53.873 16.8709 53.4926C17.0054 53.3568 17.1669 53.2481 17.3283 53.1394C17.4628 53.0308 17.5974 52.9221 17.7319 52.8134C18.4046 52.2701 18.9697 51.6452 19.5078 51.0475C19.6962 50.8302 19.8845 50.64 20.0729 50.4227C20.342 50.1239 20.6379 49.8522 20.9339 49.5805C21.499 49.0915 22.1717 48.4666 22.7906 47.706C23.1673 47.2169 23.5171 46.7823 23.9207 46.4563C24.405 46.0487 24.8086 45.6141 25.1853 45.2066C25.5351 44.8262 25.858 44.473 26.2078 44.1742C26.5845 43.8482 26.7998 43.3592 26.7191 42.8702C26.6114 42.028 26.0733 41.4303 25.3199 41.2673C24.8624 41.1586 24.1898 41.1858 23.4632 42.0008C23.3556 42.1095 23.2749 42.2181 23.1673 42.3268L21.795 43.7667C21.4721 44.1199 21.1223 44.473 20.7994 44.799C20.5572 45.0435 20.3151 45.3152 20.0729 45.5869C19.6962 45.9944 19.3733 46.3748 18.9966 46.7008C18.2163 47.3528 17.5436 48.0863 16.8709 48.7926C16.5749 49.1187 16.252 49.4175 15.956 49.7435C15.5793 50.1239 15.2564 50.4227 14.9066 50.6672C14.2877 51.1562 13.7496 51.6452 13.2922 52.1342C12.9962 52.4603 12.6733 52.7863 12.3504 53.1123C12.0813 53.3839 11.8391 53.6556 11.5701 53.9273C10.9781 54.5521 10.413 55.177 9.87489 55.8018C9.71345 55.992 9.2022 56.5625 9.17529 57.459H9.2022Z" fill="#E5B874"/>
<path d="M33.3654 23.0651C33.3654 23.0651 33.6344 23.0923 33.7421 23.0923C34.3609 23.0923 34.8991 22.8206 35.2758 22.3316C35.4373 22.1142 35.5449 21.8426 35.5718 21.5709L35.6256 20.7287C35.6525 20.1854 35.7063 19.6148 35.7332 19.0715C35.7332 18.827 35.7871 18.5825 35.814 18.338C35.8678 17.849 35.9216 17.3599 35.9216 16.8438C35.9216 16.4363 35.9216 16.0016 35.9485 15.5941C35.9754 14.8877 36.0023 14.1814 35.9754 13.475C35.9485 12.497 35.9754 11.4918 35.9754 10.5138V9.12822C35.9754 8.93805 35.9754 8.72071 35.9754 8.53054V7.82419C35.9485 7.33517 35.9216 6.84616 35.9216 6.35715C35.9216 6.03114 35.9216 5.70513 35.9216 5.40629C35.9216 5.10745 35.9216 4.78144 35.9216 4.4826C35.9216 3.80341 35.9216 3.12423 35.9216 2.44504V2.30921C35.9216 2.09187 35.9216 1.84736 35.8947 1.60285V1.30401C35.8409 0.59766 35.2758 -2.28249e-05 34.5762 -0.0271902C33.5537 -0.108692 32.7734 0.516158 32.6119 1.54852C32.4774 2.58088 32.4505 3.61324 32.5312 4.61843C32.5312 4.61843 32.5312 4.80861 32.5581 4.83577L32.5043 5.59646C32.4774 5.9768 32.4505 6.35715 32.4236 6.73749C32.4236 7.2265 32.3967 7.68835 32.4236 8.17736C32.5043 8.82938 32.5043 9.50857 32.4774 10.2149C32.4774 10.5409 32.4774 10.8669 32.4774 11.1929C32.4774 11.519 32.4774 11.845 32.4774 12.171C32.4774 12.6328 32.4774 13.0947 32.4774 13.5565C32.4774 14.3172 32.4774 14.8877 32.4774 15.4039C32.4236 15.9201 32.3967 16.4363 32.3698 16.9796L32.2352 19.805C32.2352 19.805 32.2352 19.9408 32.2352 19.968V20.2125C32.1545 20.5657 32.1276 20.9189 32.1007 21.272C32.0738 21.6796 32.2083 22.0056 32.2352 22.0871C32.3967 22.5761 32.8272 22.9564 33.3385 23.0379L33.3654 23.0651Z" fill="#E5B874"/>
<path d="M51.9857 32.302C51.1516 32.2205 50.3175 32.1662 49.4833 32.139C48.7568 32.139 48.0034 32.139 47.2769 32.139H46.4159C46.2275 32.139 46.0392 32.139 45.8508 32.1934C45.0974 32.3564 44.4785 33.0899 44.4785 33.8778C44.4785 34.7471 45.1243 35.535 45.9853 35.6436C46.0661 35.6436 46.2544 35.6436 46.3351 35.6436H46.658C46.8733 35.6436 47.0886 35.6436 47.3038 35.6436H47.546C48.2994 35.6436 49.0528 35.6436 49.7793 35.698C50.156 35.698 50.5058 35.7251 50.8825 35.7523C51.34 35.7795 51.8243 35.8066 52.2817 35.8338C52.6584 35.8338 53.0351 35.8338 53.4118 35.8338C54.2998 35.8338 55.2685 35.8338 56.3179 35.7523C57.6363 35.698 59.0086 35.6708 60.5424 35.6708C61.3765 35.6708 62.2106 35.698 63.0448 35.7523C63.556 35.7523 64.0673 35.7795 64.5785 35.8066C64.9283 35.8066 65.2781 35.7795 65.5741 35.7251C66.4351 35.5621 67.0271 34.8286 66.9733 33.9049C66.9464 33.2529 66.462 32.6824 65.8163 32.5737C65.3857 32.4922 64.9821 32.465 64.5785 32.4107H64.3094C63.6367 32.302 62.9371 32.2749 62.2645 32.2477C61.7801 32.2477 61.3227 32.2205 60.8384 32.1662C60.7307 32.1662 60.6231 32.1662 60.4886 32.1662L55.0532 32.3835C54.0576 32.4107 52.9813 32.4379 51.9588 32.3564L51.9857 32.302Z" fill="#E5B874"/>
<path d="M44.1286 40.5609C44.1286 40.5609 44.317 40.6967 44.3977 40.7239L45.0166 41.0771C45.5817 41.3759 46.1198 41.7019 46.6849 41.9736L46.9539 42.1095C47.223 42.2453 47.4652 42.354 47.7343 42.517C48.4339 42.9788 49.0796 43.3048 49.7254 43.5765C49.9407 43.658 50.1559 43.7667 50.3712 43.8753L50.9901 44.2013C51.6897 44.5817 52.4162 44.962 53.2234 45.288C53.6001 45.4239 53.9768 45.5597 54.3535 45.6955C54.5419 45.7499 54.7302 45.7771 54.9186 45.7771C55.5913 45.7771 56.1833 45.3967 56.4792 44.7447C56.7752 44.1198 56.56 43.3863 56.0218 42.9788L55.9142 42.8973C55.7796 42.7886 55.6451 42.7071 55.5106 42.6256C55.2953 42.517 55.08 42.4083 54.8648 42.2996C54.6764 42.2181 54.4612 42.1095 54.2728 42.0279C53.923 41.8921 53.6001 41.7291 53.2772 41.5661C52.2817 40.9956 51.3399 40.5066 50.3981 40.0719C50.2636 40.0176 50.1559 39.9361 49.9407 39.8274L49.6178 39.6372C49.0796 39.3112 48.4877 38.958 47.8419 38.7135C47.5997 38.6049 47.3576 38.469 47.1154 38.3332L46.9539 38.2517C46.7118 38.1158 46.4696 37.98 46.2274 37.817L45.8776 37.6268C45.4202 37.3552 44.8282 37.3823 44.3977 37.6812C43.9941 37.9528 43.5098 38.4962 43.5098 39.447C43.5098 39.8817 43.7788 40.3436 44.1286 40.5881V40.5609Z" fill="#E5B874"/>
<path d="M38.3163 23.9344C38.3163 23.9344 38.4508 23.9344 38.5316 23.9344C38.8814 23.8801 39.3926 23.6899 39.7693 23.0651C39.85 22.9292 39.9308 22.7934 39.9846 22.6576L40.146 22.2501C40.3344 21.8425 40.4958 21.435 40.6573 21.0004C40.8456 20.457 41.034 19.9137 41.2223 19.3975C41.4107 18.8813 41.599 18.3651 41.7874 17.8489C42.0565 17.0882 42.3525 16.3276 42.6484 15.594L42.9175 14.9149C42.9175 14.9149 42.9982 14.7519 43.079 14.616L43.2135 14.3715C43.3211 14.1542 43.4557 13.9368 43.5364 13.7195C43.6978 13.3391 43.8593 12.9316 44.0207 12.5241L44.1553 12.1981C44.532 11.2744 44.1284 10.3236 43.2135 9.94322C42.5677 9.67155 41.8143 9.94322 41.4645 10.5137L41.3838 10.6224C41.3838 10.6224 41.2761 10.8126 41.2223 10.8941L40.8725 11.5733C40.6573 11.9808 40.442 12.3883 40.1998 12.823C39.9039 13.3391 39.6617 13.8825 39.4464 14.4802L38.8276 16.1374C38.6661 16.5992 38.5047 17.0339 38.3701 17.4958C38.1011 18.2836 37.832 19.0171 37.536 19.7235C37.3745 20.131 37.1862 20.5113 36.9978 20.8917L36.7019 21.5437C36.6211 21.7339 36.5942 21.8969 36.5942 21.9512C36.4597 22.4402 36.6211 22.9836 36.9978 23.3367C37.1593 23.4998 37.6436 23.9344 38.3163 23.9344Z" fill="#E5B874"/>
<path d="M12.9962 42.4626C13.2115 42.3811 13.3998 42.3268 13.6151 42.2724C14.234 42.1366 14.826 41.9193 15.4448 41.6204C15.687 41.5118 15.9292 41.4031 16.2252 41.2944C16.7095 41.1314 17.1938 40.9684 17.6782 40.8326C18.9697 40.5066 20.2344 40.0719 21.2838 39.6915C21.4721 39.61 21.6605 39.5829 21.8488 39.5285L22.4677 39.3655C23.0866 39.2025 23.544 38.632 23.544 37.98C23.544 37.6811 23.544 36.8933 22.9252 36.3771C22.5215 36.0239 21.9834 35.9153 21.3645 36.0511C21.0416 36.1326 20.7187 36.2141 20.3958 36.3228L19.6693 36.5673C19.3464 36.676 19.0235 36.7846 18.7007 36.8933C18.0549 37.0835 17.4091 37.2736 16.7633 37.4638L15.2834 37.8985C14.9605 37.98 14.6107 38.0887 14.2609 38.2788C13.6689 38.6048 13.1039 38.795 12.5657 38.9308C11.7854 39.0939 11.1934 39.5014 10.7898 40.1262C10.44 40.6696 10.4669 41.3759 10.8974 41.8649C11.2741 42.2996 11.7854 42.5169 12.3235 42.5169C12.5388 42.5169 12.781 42.4626 13.0231 42.3811L12.9962 42.4626Z" fill="#E5B874"/>
<path d="M43.5097 53.0307C43.4021 52.7862 43.2944 52.5417 43.1599 52.2972C42.837 51.7267 42.5948 51.1018 42.4065 50.3955C42.2989 49.9608 42.1374 49.4989 41.976 49.0643C41.5723 48.0319 41.1418 46.9724 40.6844 45.8857C40.5499 45.5597 40.4153 45.2608 40.3884 45.0163C40.3615 44.7718 40.2808 44.5545 40.2001 44.3915C39.8503 43.5764 38.9623 43.1961 38.182 43.4949C37.8053 43.6308 37.4555 43.9025 37.2402 44.2828C36.998 44.6903 36.998 45.0978 37.025 45.2337C37.025 46.0758 37.294 46.755 37.5093 47.244C37.9667 48.3307 38.4242 49.3903 38.8547 50.5041C38.9354 50.6943 38.9892 50.8573 39.043 51.0475L39.2852 51.781C39.4466 52.27 39.6081 52.759 39.7964 53.2209C40.0117 53.7371 40.2808 54.2532 40.5229 54.7422L40.792 55.2584C40.8727 55.4214 41.0073 55.6931 41.3033 55.9376C41.5723 56.155 41.8414 56.2636 41.976 56.2908H42.0298C42.1912 56.3723 42.3527 56.3995 42.5141 56.3995C42.8101 56.3995 43.0792 56.318 43.3213 56.1278C43.698 55.8561 43.9133 55.3943 43.9133 54.9324C43.9133 54.3891 43.8595 53.8457 43.6173 53.2752L43.5097 53.0035V53.0307Z" fill="#E5B874"/>
<path d="M45.6084 31.65C45.7967 31.65 45.9582 31.65 46.1465 31.5685C46.3349 31.5142 46.4963 31.4599 46.6578 31.3784L50.4787 29.7212C51.555 29.2321 52.6044 28.7975 53.6807 28.4715C54.165 28.3356 54.6494 28.1454 55.1875 27.9281C55.5373 27.7923 55.7795 27.5749 55.9409 27.4663C56.4253 27.0588 56.6136 26.3524 56.3714 25.7276C56.1831 25.2385 55.6449 24.6952 54.8915 24.6952C54.6494 24.6952 54.3534 24.6952 54.0036 24.8039C53.304 25.0212 52.6313 25.2385 51.9586 25.483C50.963 25.8362 49.9943 26.2437 49.0795 26.6512C48.7028 26.8142 48.3261 26.9773 47.9494 27.1403L47.6803 27.2489C46.7116 27.6564 45.7698 28.0639 44.7473 28.3628C44.3437 28.4715 44.0477 28.7975 43.8863 29.1778C43.7249 29.5582 43.7518 30.02 43.9132 30.4003C43.9939 30.5633 44.1016 30.835 44.3437 31.1067C44.6935 31.4599 45.124 31.6229 45.6353 31.6229L45.6084 31.65Z" fill="#E5B874"/>
<path d="M25.1047 56.8071C25.1047 56.8071 25.1854 56.8071 25.2393 56.8071C25.6698 56.8071 26.0734 56.5897 26.3425 56.2637C26.6115 55.9377 26.8806 55.5845 27.0959 55.1227L28.0646 53.0851C28.1722 52.8406 28.226 52.6233 28.2798 52.4331C28.3874 52.0528 28.4951 51.7539 28.6565 51.4551C28.818 51.1291 28.9794 50.7759 29.1409 50.4227C29.3023 50.0967 29.4368 49.7979 29.5983 49.4719C29.975 48.7383 30.2172 47.9777 30.4055 47.3528C30.4862 47.1083 30.5939 46.8638 30.7015 46.5921L30.9168 46.0759C31.132 45.5326 30.9168 44.8262 30.4593 44.4459C30.3517 44.3372 30.2172 44.2285 30.0288 44.1199C29.4368 43.7667 28.6565 43.8482 28.1453 44.3644C27.9569 44.5546 27.7417 44.7991 27.6071 45.1522C27.4726 45.5326 27.338 45.9129 27.2035 46.2661L27.1497 46.4563C26.9613 46.9996 26.773 47.5701 26.5308 48.0863L26.3425 48.521C26.0734 49.0915 25.8043 49.662 25.5083 50.2325C25.2931 50.6401 25.1047 51.1019 24.9971 51.5909C24.9433 51.8354 24.8895 51.9984 24.8087 52.1071C24.432 52.8134 24.1091 53.5741 23.867 54.3348C23.7862 54.5793 23.7324 54.851 23.7324 55.0955C23.7324 55.5845 23.9208 55.9377 24.0015 56.0464C24.2168 56.481 24.6473 56.7256 25.1316 56.7799L25.1047 56.8071Z" fill="#E5B874"/>
<path d="M23.1943 26.8414L22.1718 26.3252C21.9835 26.2165 21.7682 26.135 21.5798 26.0264C21.0148 25.6732 20.4497 25.4015 19.9116 25.1027C19.6694 24.994 19.4272 24.8582 19.1851 24.7223C18.8084 24.5322 18.4316 24.342 18.0549 24.1518C17.4361 23.853 16.871 23.5813 16.3598 23.2553C16.01 23.038 15.6333 22.8478 15.2565 22.6576L15.0951 22.5761C14.7991 22.4403 14.5031 22.3859 14.1264 22.3588C13.5883 22.3588 13.1039 22.6304 12.808 23.0923C12.512 23.5541 12.4582 24.0975 12.6734 24.5865C12.8349 24.9397 13.0501 25.2385 13.3461 25.4287C13.5614 25.5645 13.7497 25.7004 13.965 25.8362L14.1264 25.9449C14.9337 26.4339 15.7947 26.8686 16.6019 27.2489L17.463 27.6836C17.732 27.8194 17.9742 27.9281 18.2433 28.0639C18.7814 28.3356 19.3196 28.5801 19.8578 28.9061C20.3421 29.205 20.8533 29.4766 21.3377 29.7211L21.9835 30.0471C22.1987 30.1558 22.414 30.2101 22.6561 30.2101C23.0329 30.2101 23.4096 30.0471 23.6786 29.7755C23.9477 29.5038 24.3782 29.0419 24.2975 28.2269C24.2437 27.7922 24.0284 27.1946 23.275 26.8142L23.1943 26.8414Z" fill="#E5B874"/>
<path d="M24.8088 16.4906C24.9971 17.0068 25.1855 17.5501 25.3738 18.0663C25.5622 18.6368 25.7505 19.0715 25.9658 19.479C26.0734 19.6964 26.1542 19.9409 26.2618 20.1854L27.4188 23.1738C27.6341 23.7171 28.226 24.0703 28.818 24.0703C28.8987 24.0703 28.9795 24.0703 29.0333 24.0703C29.1678 24.0703 29.4369 23.9616 29.5714 23.9073C29.7867 23.7986 30.3517 23.527 30.5401 22.8478C30.7285 22.1686 30.4594 21.6524 30.2979 21.4079C30.2441 21.3264 30.1903 21.2449 30.1634 21.1362L29.7867 20.1582C29.6252 19.7507 29.4638 19.316 29.3024 18.9085C29.1947 18.6368 29.0602 18.3652 28.9256 18.0663L28.7373 17.6316C28.6835 17.4958 28.6297 17.36 28.5758 17.197L28.3606 16.5993C28.226 16.2189 28.0915 15.8386 27.9301 15.4583C27.7417 14.9421 27.4457 14.4531 27.0421 13.9912C26.7999 13.6924 26.4501 13.5294 26.0734 13.5022C25.6967 13.5022 25.32 13.6109 25.0509 13.8554C24.7011 14.1542 24.1899 14.8606 24.5935 16.0016L24.7819 16.5178L24.8088 16.4906Z" fill="#E5B874"/>
</g>
<defs>
<clipPath id="clip0_110_524">
<rect width="67" height="68" fill="white"/>
</clipPath>
</defs>
</svg>
