<svg width="235" height="298" viewBox="0 0 235 298" fill="none" xmlns="http://www.w3.org/2000/svg">
<g clip-path="url(#clip0_183_255)">
<path d="M133.074 46.9999C133.067 47.0486 133.053 47.0973 133.046 47.146C134.849 48.5241 136.082 50.5563 137.168 52.352C138.379 54.3495 139.611 56.4026 140.461 58.6228C140.363 57.9129 140.252 57.21 140.147 56.514C138.706 52.3729 136.367 48.5032 133.38 45.2947C133.276 45.8724 133.171 46.4431 133.074 46.9999ZM148.029 66.1047C145.613 68.9582 143.35 71.9649 141.275 75.0689L141.234 75.0411C141.22 75.1525 141.199 75.2638 141.185 75.3752C143.002 72.8557 145.049 70.4894 147.284 68.3318C147.569 67.601 147.82 66.8633 148.029 66.1047ZM148.934 60.3976C148.516 60.7943 148.14 61.2119 147.806 61.5947C145.613 64.0793 143.629 66.7658 141.888 69.5915L141.679 69.4593C141.679 69.5219 141.679 69.5846 141.679 69.6403C141.686 69.6681 141.7 69.7029 141.714 69.7377L141.679 69.7516C141.679 69.9187 141.672 70.0926 141.665 70.2597C143.935 66.4805 146.309 63.4808 148.906 61.1144C148.906 61.0588 148.913 61.0031 148.92 60.9474C148.934 60.7664 148.934 60.5855 148.941 60.4045L148.934 60.3976ZM146.497 47.9325C144.93 50.7234 143.615 53.6465 142.563 56.6671C143.691 53.8971 145.014 51.1966 146.866 48.8164C146.741 48.5241 146.622 48.2248 146.49 47.9394L146.497 47.9325ZM143.044 49.4636C143.461 47.9534 143.942 46.2552 144.896 44.8632C144.777 44.6683 144.652 44.4804 144.534 44.2855C142.292 48.3361 140.99 52.9088 140.767 57.544H140.635C140.656 57.6693 140.677 57.8015 140.691 57.9407L143.037 49.4706L143.044 49.4636ZM137.725 54.9062C138.268 56.0685 138.776 57.2656 139.27 58.4279C139.799 59.6737 140.342 60.9544 140.934 62.2002C140.906 61.9218 140.872 61.6434 140.837 61.372H140.823C140.823 61.372 140.83 61.3372 140.837 61.3302C140.795 60.9613 140.746 60.5924 140.697 60.2236H140.677C139.89 57.4536 138.372 54.948 136.903 52.519C135.859 50.793 134.675 48.8442 132.99 47.5079C132.99 47.5497 132.976 47.5914 132.97 47.6332C135.267 49.9439 136.785 52.874 137.732 54.9062H137.725ZM141.122 64.8449C141.136 64.8032 141.157 64.7614 141.171 64.7127C141.129 64.1907 141.08 63.6757 141.032 63.1537C140.28 61.6434 139.611 60.0774 138.964 58.5532C138.477 57.3979 137.961 56.2008 137.425 55.0454C136.506 53.0828 135.058 50.271 132.886 48.023C132.872 48.0926 132.858 48.1691 132.844 48.2387C136.471 53.3124 139.249 58.8942 141.122 64.838V64.8449ZM138.456 59.5346L138.574 59.799C139.291 61.4276 140.008 63.0493 140.725 64.6779C138.894 58.9708 136.214 53.5978 132.761 48.6911C132.712 48.9625 132.663 49.2409 132.607 49.5124C135.288 52.3868 136.896 56.0198 138.449 59.5346H138.456ZM141.303 66.9816C141.303 66.8285 141.296 66.6684 141.282 66.5153L141.192 66.5501C140.217 64.3438 139.242 62.1375 138.268 59.9313L138.149 59.6668C136.639 56.2495 135.079 52.7278 132.531 49.916C132.531 49.9369 132.524 49.9648 132.517 49.9856C135.956 55.3586 138.901 61.0657 141.296 66.9816H141.303ZM146.295 60.147C144.715 62.7152 143.162 65.3391 141.665 67.956C141.672 68.4014 141.679 68.8538 141.679 69.2992C143.406 66.5014 145.39 63.8357 147.562 61.365C147.966 60.9126 148.432 60.3976 148.955 59.9313C148.975 58.8316 148.934 57.725 148.822 56.6323C147.792 57.732 146.977 59.0543 146.302 60.147H146.295ZM144.443 59.2283C143.475 61.4555 142.515 63.7244 141.582 65.9655C141.61 66.4248 141.63 66.8772 141.644 67.3365C143.058 64.8658 144.527 62.3951 146.017 59.973C146.894 58.5463 147.722 57.2726 148.774 56.2077C148.634 55.0037 148.418 53.8066 148.119 52.6234C146.58 54.4747 145.529 56.7158 144.443 59.2214V59.2283ZM141.199 65.0955C141.199 65.0398 141.192 64.9772 141.185 64.9145L141.136 64.8936C141.164 64.9632 141.178 65.0259 141.199 65.0955ZM141.241 65.701L141.192 65.7149C141.213 65.7636 141.234 65.8054 141.247 65.8541C141.247 65.7984 141.247 65.7497 141.241 65.701ZM141.498 64.7614C141.512 64.9215 141.519 65.0816 141.533 65.2416C142.389 63.1954 143.26 61.1353 144.144 59.103C145.279 56.4931 146.372 54.1755 148.015 52.2545C147.98 52.1153 147.938 51.9762 147.903 51.837C145.272 55.8737 143.12 60.2166 141.498 64.7614ZM146.441 52.9993C146.838 52.4703 147.263 51.9622 147.715 51.475L147.743 51.5029C147.743 51.5029 147.778 51.4472 147.792 51.4263C147.75 51.2802 147.701 51.134 147.653 50.9948C147.235 51.656 146.831 52.3311 146.441 53.0062V52.9993ZM141.979 61.5181C142.661 59.7921 143.413 58.0382 144.318 56.3539C145.265 54.3634 146.33 52.4355 147.52 50.5772C147.465 50.4102 147.409 50.2362 147.346 50.0692C144.993 53.5491 143.162 57.4675 141.979 61.5181ZM147.04 49.234C147.04 49.234 147.026 49.1852 147.012 49.1574C145.578 51.0366 144.457 53.1176 143.503 55.2751C144.492 53.1524 145.675 51.1201 147.04 49.234ZM141.359 62.4646L141.289 62.4438C141.296 62.5342 141.31 62.6247 141.317 62.7082C142.501 58.0869 144.527 53.6117 147.214 49.6864C147.2 49.6585 147.193 49.6307 147.179 49.6028C144.443 53.4377 142.431 57.8711 141.359 62.4577V62.4646ZM141.554 63.6757L141.498 63.6548C141.477 63.7105 141.456 63.7661 141.435 63.8218H141.422C141.422 63.8775 141.429 63.9401 141.435 63.9958C141.477 63.8914 141.512 63.7801 141.554 63.6757ZM143.315 59.451C144.269 57.3979 145.334 55.3865 146.504 53.4516C145.801 54.4191 145.167 55.4491 144.596 56.507C144.137 57.4744 143.705 58.4558 143.308 59.451H143.315ZM141.157 61.3511C141.171 61.4764 141.185 61.6016 141.206 61.7339C141.456 60.7456 141.749 59.7642 142.083 58.7968C141.777 59.6111 141.484 60.4254 141.192 61.2328C141.178 61.2745 141.171 61.3093 141.157 61.3511ZM141.874 57.6693C143.016 54.1615 144.499 50.7791 146.323 47.5636C146.253 47.4105 146.184 47.2504 146.107 47.0973C143.935 50.2083 142.765 53.8414 141.874 57.6693ZM145.515 45.942C145.376 45.6844 145.23 45.4339 145.077 45.1764C144.206 46.4918 143.768 48.0438 143.35 49.5541L143.03 50.7164C143.719 48.886 144.534 47.3131 145.508 45.942H145.515ZM142.786 52.4355C142.187 54.3634 141.77 56.3609 141.387 58.3305C142.32 54.1337 143.531 50.1527 145.94 46.7632C145.856 46.5962 145.773 46.4361 145.689 46.2691C144.506 47.9673 143.552 49.9856 142.793 52.4355H142.786ZM140.885 59.2353C141.053 58.3723 141.22 57.4884 141.401 56.6114L140.816 58.7342C140.837 58.9012 140.865 59.0682 140.885 59.2353ZM141.101 59.6737L140.941 59.6459C140.962 59.806 140.983 59.973 141.004 60.1401C141.039 59.9869 141.073 59.8338 141.101 59.6807V59.6737ZM136.513 59.5206C137.161 60.9265 137.836 62.3881 138.602 63.7592C138.887 64.2742 139.194 64.7962 139.493 65.3043C140.154 66.4248 140.837 67.5732 141.352 68.7912C141.352 68.5545 141.352 68.3109 141.345 68.0743L141.261 68.0256C141.282 67.9838 141.31 67.9421 141.338 67.9003C138.936 61.8313 135.949 55.9781 132.447 50.4659C132.357 50.967 132.273 51.4611 132.19 51.9553C134.049 54.2172 135.302 56.9176 136.513 59.5276V59.5206ZM140.036 69.2366C140.489 70.0927 140.941 71.0044 141.254 71.9579C141.303 71.1993 141.338 70.4406 141.345 69.689C140.83 68.1996 140.008 66.8076 139.215 65.4713C138.915 64.9632 138.609 64.4412 138.316 63.9193C137.551 62.5412 136.875 61.0796 136.221 59.6598C135.058 57.1473 133.854 54.5652 132.12 52.3868C131.939 53.5491 131.779 54.6975 131.682 55.8528C135.065 60.5785 137.801 64.9632 140.043 69.2435L140.036 69.2366ZM138.191 67.1417C139.263 68.9234 140.363 70.8165 141.164 72.8279C141.15 72.7583 141.129 72.6887 141.108 72.6121L141.08 72.5912C141.08 72.5912 141.094 72.5773 141.101 72.5634C140.802 71.4498 140.273 70.385 139.751 69.3967C137.565 65.2277 134.905 60.9544 131.633 56.3609C131.619 56.5349 131.605 56.7158 131.591 56.8898C133.889 60.2236 136.109 63.6757 138.191 67.1486V67.1417ZM137.989 68.0325C139.222 70.0648 140.454 72.2432 140.969 74.6374C141.018 74.2894 141.066 73.9414 141.108 73.5935C140.308 71.3593 139.089 69.2644 137.913 67.3017C135.901 63.961 133.77 60.6342 131.57 57.4188C131.556 57.7668 131.549 58.1217 131.542 58.4697C133.833 61.539 136.005 64.7544 137.989 68.0256V68.0325ZM139.611 72.3546C139.918 72.9253 140.224 73.5169 140.503 74.1294C139.939 72.0066 138.825 70.0439 137.704 68.2065C135.803 65.0676 133.728 61.9914 131.535 59.0404C131.535 59.1239 131.535 59.2074 131.535 59.2979C134.48 63.4669 137.196 67.8585 139.604 72.3616L139.611 72.3546ZM138.254 70.8513C138.303 70.9348 138.358 71.0183 138.407 71.1018C139.194 72.4033 140.001 73.8022 140.551 75.3334L140.419 75.3821C140.523 75.6188 140.628 75.8554 140.732 76.0851C140.76 75.9389 140.788 75.7928 140.816 75.6466H140.795C140.412 74.5539 139.862 73.496 139.333 72.5077C137.015 68.1648 134.397 63.9262 131.577 59.8895C131.577 59.9173 131.577 59.9452 131.577 59.973C134.076 63.4181 136.304 67.0651 138.254 70.8513ZM135.26 66.1464C134.118 64.2464 132.9 62.3951 131.612 60.5924C131.619 60.7108 131.633 60.836 131.647 60.9613L131.737 60.8987C132.914 62.6178 134.097 64.3717 135.267 66.1464H135.26ZM136.833 69.9256C136.931 70.0648 137.035 70.211 137.133 70.3502C135.546 67.4618 133.756 64.6918 131.779 62.054C131.779 62.0749 131.779 62.1027 131.786 62.1236C133.561 64.65 135.253 67.26 136.833 69.9256ZM134.285 66.4735C134.355 66.571 134.425 66.6614 134.501 66.7589C133.666 65.4435 132.795 64.1489 131.911 62.8683C131.946 63.0423 131.981 63.2233 132.009 63.4042C132.754 64.4412 133.526 65.4713 134.285 66.4735ZM132.677 65.2904H132.691C132.587 65.1303 132.475 64.9772 132.371 64.824C132.371 64.824 132.371 64.831 132.371 64.838C132.468 64.9911 132.573 65.1442 132.67 65.2904H132.677ZM133.645 68.0952C134.863 70.6007 136.506 72.9044 138.219 75.055C136.715 72.7165 135.183 70.3989 133.645 68.0952ZM137.516 73.3847C135.984 70.8652 134.362 68.4084 132.747 65.9933C132.795 66.1325 132.844 66.2647 132.9 66.4039C134.445 68.7076 135.991 71.0392 137.516 73.3847ZM140.377 77.6719C140.391 77.6093 140.405 77.5466 140.419 77.491C140.412 77.4701 140.398 77.4492 140.384 77.4214L140.252 77.4701C140.28 77.5258 140.315 77.5815 140.342 77.6371C140.349 77.651 140.363 77.665 140.37 77.6719H140.377ZM140.739 77.5466C140.739 77.5466 140.732 77.5815 140.725 77.5954C140.739 77.5884 140.746 77.5814 140.753 77.5675L140.732 77.5466H140.739ZM145.822 71.2967L145.87 71.3385C145.905 71.2758 145.94 71.2062 145.975 71.1366C145.926 71.1853 145.87 71.241 145.822 71.2967ZM141.791 75.4517C143.072 74.2616 144.297 73.0019 145.446 71.6865C144.234 72.9392 143.016 74.199 141.791 75.4517ZM146.504 70.1135C146.664 69.7794 146.824 69.4384 146.97 69.0974C145.251 70.8165 143.642 72.6539 142.173 74.5957C143.629 73.1063 145.077 71.6029 146.504 70.1135ZM141.234 75.9598L141.101 75.8276C141.08 75.925 141.06 76.0294 141.046 76.1268C141.108 76.0712 141.171 76.0155 141.234 75.9598ZM136.541 70.8652C136.012 70.0578 135.42 69.2784 134.849 68.5128C134.759 68.3875 134.661 68.2622 134.571 68.1369C136.242 70.6703 137.892 73.2594 139.396 75.918C139.096 75.3195 138.776 74.7349 138.463 74.1572C137.857 73.0645 137.237 71.93 136.541 70.8652ZM140.823 77.1847C142.389 75.7719 143.823 74.2129 145.118 72.5425C143.865 73.9275 142.542 75.2429 141.15 76.4748L141.011 76.3148C140.955 76.6071 140.892 76.8924 140.823 77.1847ZM137.954 70.9974C137.634 70.4685 137.3 69.9395 136.973 69.4106C137.669 70.6425 138.33 71.8952 138.95 73.1689C139.103 73.4264 139.256 73.6839 139.403 73.9414C138.936 72.9531 138.456 71.9718 137.954 70.9974ZM141.512 74.018L141.394 73.9275C141.373 74.0876 141.352 74.2546 141.324 74.4217C141.651 73.9345 141.985 73.4473 142.327 72.9671C142.055 73.3151 141.784 73.67 141.512 74.018ZM143.733 70.6564C145.056 69.0208 146.413 67.4201 147.813 65.8611C147.945 65.701 148.084 65.5409 148.224 65.3808C148.224 65.3599 148.237 65.3321 148.237 65.3112C146.664 67.0234 145.16 68.812 143.733 70.6564ZM145.091 68.4292C145.849 67.5036 146.629 66.5988 147.43 65.7149C146.608 66.5779 145.836 67.4897 145.091 68.4292ZM141.54 72.4938C141.533 72.626 141.512 72.7583 141.498 72.8975C141.902 72.104 142.438 71.3802 142.967 70.6773C144.638 68.4432 146.365 66.1395 148.481 64.2325C148.509 64.0933 148.537 63.9541 148.565 63.8079C146.037 66.5362 143.677 69.4523 141.547 72.4938H141.54ZM143.956 68.304C143.51 68.993 143.072 69.682 142.654 70.3919C144.52 67.8933 146.525 65.4922 148.662 63.2233C148.669 63.1537 148.676 63.0841 148.69 63.0214C146.922 64.6152 145.341 66.383 143.956 68.3109V68.304ZM146.504 64.6988C147.221 63.9401 147.966 63.2094 148.753 62.5134C148.781 62.2976 148.801 62.0819 148.822 61.8661C148.022 62.7848 147.242 63.7313 146.497 64.6988H146.504ZM143.684 68.123C144.847 66.3343 146.114 64.6152 147.465 62.9658C145.411 65.1372 143.489 67.7541 141.637 70.9139C141.637 71.067 141.616 71.2201 141.61 71.3733C142.243 70.2458 142.939 69.16 143.684 68.1161V68.123ZM141.185 72.8279H141.171C141.171 72.8279 141.178 72.8557 141.185 72.8627C141.185 72.8488 141.185 72.8348 141.185 72.8279ZM141.784 73.1411L141.756 73.1202C141.728 73.1689 141.707 73.2246 141.679 73.2733C141.714 73.2315 141.749 73.1828 141.784 73.1411ZM143.364 42.5525C141.282 46.2899 140.691 50.7582 140.217 54.7671C140.224 54.8297 140.238 54.8854 140.245 54.948C140.335 55.5118 140.419 56.0825 140.51 56.6532C140.851 52.2128 142.173 47.849 144.346 43.9723C144.081 43.5686 143.817 43.165 143.531 42.7683C143.475 42.6987 143.42 42.6221 143.364 42.5525ZM140.085 38.9543C139.765 39.7059 139.618 40.5481 139.479 41.4041C139.284 42.6569 139.117 43.9236 138.978 45.1764C138.908 45.8167 138.853 46.3944 138.936 46.9651H138.887C138.95 47.2783 139.006 47.5914 139.068 47.8977C139.215 45.1277 139.465 42.114 140.565 39.4206C140.454 39.3023 140.335 39.1909 140.224 39.0795C140.175 39.0378 140.127 38.9891 140.085 38.9473V38.9543ZM134.703 32.3911C134.661 32.1823 134.613 31.9666 134.571 31.7578C134.571 31.9457 134.585 32.1336 134.585 32.3215L134.613 32.2937L134.696 32.3911H134.703ZM134.898 33.2472C134.884 33.1915 134.87 33.1358 134.856 33.0732L134.599 32.7739C134.599 32.8435 134.599 32.9131 134.599 32.9827C134.696 33.0662 134.794 33.1567 134.891 33.2472H134.898ZM135.093 34.0406C135.065 33.9293 135.03 33.8179 135.002 33.7065L134.947 33.7622C134.842 33.6439 134.724 33.5325 134.613 33.4212C134.613 33.4908 134.613 33.5604 134.613 33.623C134.766 33.7692 134.933 33.9084 135.1 34.0406H135.093ZM134.578 35.2725C135.093 35.7458 135.539 36.2747 135.921 36.8593C135.873 36.6993 135.824 36.5462 135.775 36.3861L135.74 36.407C135.427 35.9058 135.037 35.4465 134.592 35.0498C134.592 35.1055 134.592 35.1611 134.592 35.2168C134.592 35.2307 134.592 35.2516 134.592 35.2725H134.578ZM136.945 40.1931C136.924 40.1305 136.91 40.0678 136.896 40.0052C136.82 39.7546 136.75 39.5111 136.673 39.2605L136.639 39.2744C136.123 38.1191 135.406 37.0473 134.529 36.1286C134.529 36.1425 134.529 36.1564 134.529 36.1634C135.643 37.3048 136.367 38.7455 136.952 40.1862L136.945 40.1931ZM136.576 40.1374C136.061 38.8777 135.42 37.6319 134.501 36.6158C134.494 36.7341 134.48 36.8593 134.473 36.9707C135.274 37.959 135.956 39.0308 136.569 40.1374H136.576ZM135.204 39.5807C135.636 40.221 136.061 40.8682 136.465 41.5294L134.418 37.7015C134.404 37.8546 134.39 38.0077 134.383 38.1608C134.654 38.6202 134.933 39.0935 135.211 39.5737L135.204 39.5807ZM136.771 44.6335C135.991 42.8448 135.149 41.077 134.251 39.344C134.202 39.7686 134.153 40.1862 134.097 40.6037C134.995 41.8496 135.914 43.1998 136.764 44.6335H136.771ZM136.861 46.7006C137.704 48.009 138.623 49.5124 139.277 51.1549C139.228 50.9739 139.173 50.793 139.124 50.612C138.846 49.8186 138.553 49.0252 138.247 48.2387C137.112 45.6079 135.546 43.1998 134.035 41.077C133.979 41.4946 133.923 41.9052 133.861 42.3089C134.898 43.7426 135.908 45.2181 136.861 46.7006ZM140.725 42.9075C140.377 45.7192 140.015 48.6215 139.813 51.6212L139.785 52.0597C139.869 52.5747 139.946 53.0828 140.029 53.5839C140.503 49.8047 141.178 45.7332 143.148 42.2602C142.577 41.5294 141.972 40.8613 141.359 40.2279C140.962 41.0631 140.837 42.0305 140.725 42.9075ZM139.556 50.6747C139.765 47.9951 140.085 45.3921 140.405 42.8587C140.523 41.9261 140.656 40.8821 141.122 39.9774C141.018 39.873 140.92 39.7686 140.816 39.6642C139.653 42.6012 139.493 45.928 139.347 48.886H139.249C139.354 49.4845 139.458 50.0831 139.556 50.6747ZM138.219 42.9979C138.323 41.8635 138.449 40.729 138.602 39.6085C138.685 38.9682 138.783 38.3905 138.985 37.8337C138.915 37.7641 138.846 37.6876 138.783 37.618C138.428 39.3858 138.24 41.1953 138.226 42.9979H138.219ZM137.746 41.8704C137.801 42.0792 137.85 42.295 137.899 42.5038C137.94 40.7638 138.142 39.0239 138.497 37.3257C138.379 37.1934 138.254 37.0612 138.135 36.922C137.634 38.5228 137.683 40.2836 137.739 41.8704H137.746ZM137.669 37.4231C137.732 37.1586 137.808 36.8941 137.892 36.6297C137.857 36.5879 137.822 36.5531 137.794 36.5114C137.746 36.8176 137.704 37.1169 137.669 37.4231ZM135.253 38.5854L137.746 43.2415C137.676 42.9562 137.606 42.6639 137.537 42.3855L137.425 42.4412C136.757 41.1397 136.068 39.8173 135.253 38.5854ZM138.421 46.29C138.33 45.8236 138.226 45.3573 138.121 44.891L138.045 44.9328C137.843 44.55 137.627 44.1742 137.411 43.7914C137.78 44.6057 138.121 45.4339 138.421 46.29ZM138.887 48.7468L138.818 48.7607C138.866 48.879 138.908 48.9904 138.957 49.1087C138.936 48.9904 138.915 48.8651 138.887 48.7468ZM138.532 48.0786C138.602 48.2457 138.672 48.4197 138.741 48.5867C137.996 45.3852 136.465 42.4342 134.919 39.7477C134.787 39.5459 134.647 39.351 134.515 39.1561C136.012 42.0444 137.356 45.0302 138.532 48.0717V48.0786ZM137.119 39.6294C137.147 39.7268 137.175 39.8173 137.202 39.9147C137.23 40.0052 137.251 40.1026 137.279 40.1931C137.196 38.8568 137.279 37.5066 137.516 36.1842C137.411 36.052 137.307 35.9198 137.209 35.7875C136.917 37.0542 137.021 38.4114 137.119 39.6294ZM136.325 37.0542C136.374 37.2143 136.43 37.3744 136.478 37.5414C136.527 37.6945 136.576 37.8546 136.625 38.0077C136.611 37.0681 136.666 36.1286 136.785 35.1959C136.708 35.0915 136.639 34.9871 136.562 34.8688C136.36 35.5787 136.277 36.3234 136.325 37.0542ZM136.026 35.885C136.082 35.4187 136.179 34.9524 136.325 34.5069C136.256 34.3956 136.193 34.2842 136.123 34.1659C136.005 34.7296 135.97 35.3143 136.026 35.885ZM135.713 34.7088C135.747 34.3886 135.81 34.0754 135.901 33.7692C135.838 33.6509 135.768 33.5256 135.706 33.4073C135.671 33.8457 135.671 34.2842 135.713 34.7157V34.7088ZM135.413 33.1428C135.42 33.0523 135.434 32.9549 135.448 32.8644C135.427 32.8157 135.399 32.76 135.378 32.7113C135.378 32.8574 135.392 33.0036 135.413 33.1428ZM135.232 34.5487C135.177 34.5139 135.128 34.4721 135.072 34.4304C135.135 34.486 135.183 34.5417 135.246 34.5974C135.246 34.5835 135.239 34.5626 135.232 34.5487ZM135.392 35.1055C135.392 35.1055 135.385 35.0776 135.385 35.0637L135.371 35.0776L135.399 35.1055H135.392ZM136.012 36.0381C136.012 36.0381 136.012 36.0381 136.012 36.045C136.012 36.045 136.012 36.045 136.012 36.0381ZM135.525 35.5579C135.525 35.5579 135.511 35.5022 135.497 35.4743L135.469 35.5022C135.469 35.5022 135.504 35.5439 135.518 35.5648L135.525 35.5579ZM135.051 32.4746C135.051 32.3424 135.072 32.2032 135.1 32.071C135.009 31.8413 134.919 31.5977 134.835 31.3541C134.898 31.7299 134.975 32.1058 135.051 32.4746ZM139.834 38.6968C139.632 38.4949 139.43 38.2931 139.228 38.0912C139.075 38.5715 138.999 39.0935 138.915 39.6502C138.692 41.3067 138.518 42.991 138.4 44.6613C138.47 44.9745 138.539 45.2877 138.602 45.594C138.616 45.4478 138.63 45.2947 138.644 45.1416C138.783 43.8818 138.95 42.6082 139.145 41.3485C139.291 40.4228 139.458 39.518 139.827 38.6968H139.834ZM139.883 54.7671C139.765 54.0015 139.639 53.215 139.514 52.4216L139.396 52.4564C138.79 50.3754 137.627 48.4823 136.59 46.8746C135.699 45.4896 134.759 44.1185 133.791 42.7752C133.68 43.4851 133.561 44.1881 133.45 44.8841C136.172 47.7724 138.365 51.1897 139.869 54.8645C139.876 54.8297 139.883 54.8019 139.883 54.7671ZM119.741 97.1873C118.864 94.132 116.678 91.8213 114.374 89.3714C113.058 87.9795 111.707 86.5457 110.614 84.9519C111.31 88.9608 110.934 92.5173 110.551 96.2547L110.391 97.8207C110.259 99.0874 110.12 100.396 110.301 101.635C110.725 104.572 112.877 106.994 115.014 108.991C118.934 106.5 120.967 101.454 119.748 97.1873H119.741ZM140.294 151.112C140.127 150.994 139.959 150.869 139.792 150.743L139.702 150.876C139.897 150.952 140.099 151.029 140.294 151.105V151.112ZM158.848 152.623C154.364 150.702 150.918 146.888 147.875 143.032C147.486 142.531 147.089 142.03 146.699 141.529C144.005 138.07 141.213 134.499 137.565 132.049C135.671 130.783 133.847 130.052 132.106 129.871C130.547 129.982 128.987 130.128 127.428 130.323C130.303 131.506 132.58 133.796 134.501 135.87C135.991 137.478 137.453 139.162 138.866 140.791C142.132 144.549 145.508 148.433 149.393 151.634C150.082 152.205 150.89 152.831 151.802 153.207C152.06 153.207 152.317 153.207 152.568 153.207C154.629 153.179 156.717 152.984 158.855 152.623H158.848ZM182.749 142.983C175.606 141.897 168.532 138.445 162.217 132.968C160.219 132.516 158.207 132.07 156.181 131.666C157.622 132.599 158.903 133.789 160.157 134.952C160.839 135.585 161.549 136.246 162.266 136.845C167.223 140.993 173.489 143.171 179.087 145.064C179.198 145.002 179.309 144.946 179.421 144.883C180.535 144.264 181.649 143.617 182.742 142.983H182.749ZM175.244 140.478C170.983 138.759 167.244 136.016 163.645 133.295C163.394 133.239 163.143 133.184 162.9 133.121C169.117 138.383 176.058 141.682 183.041 142.691C180.34 142.106 177.715 141.473 175.237 140.471L175.244 140.478ZM185.374 141L185.756 141.118C185.805 141.125 185.854 141.146 185.91 141.153C185.924 141.139 185.944 141.139 185.958 141.125C185.763 141.09 185.568 141.041 185.374 141ZM186.021 140.554C184.733 140.248 183.445 139.935 182.15 139.594C183.424 139.956 184.719 140.276 186.021 140.554ZM169.402 135.007C171.498 136.023 173.642 136.949 175.821 137.763C173.503 136.831 171.233 135.759 169.033 134.548C168.845 134.506 168.65 134.457 168.462 134.416C168.776 134.617 169.089 134.819 169.402 135.007ZM183.835 140.986C181.823 140.464 179.839 139.851 177.889 139.148C179.839 139.886 181.823 140.499 183.835 140.986ZM169.493 135.641C170.287 136.142 171.15 136.545 171.888 136.879C172.285 137.06 172.695 137.241 173.099 137.415C172.584 137.165 172.083 136.9 171.575 136.629C170.683 136.225 169.813 135.78 168.964 135.286C169.138 135.411 169.319 135.522 169.493 135.634V135.641ZM166.109 133.873C166.109 133.873 166.04 133.859 166.012 133.845C166.778 134.332 167.557 134.798 168.351 135.251C168.281 135.202 168.212 135.153 168.142 135.105C167.537 134.673 166.91 134.235 166.242 133.901C166.2 133.887 166.158 133.88 166.116 133.873H166.109ZM169.138 136.838C171.108 138.132 173.169 139.294 175.362 140.178C177.492 141.034 179.741 141.626 182.06 142.148C178.342 141.069 174.784 139.455 171.331 137.882C170.607 137.554 169.862 137.213 169.138 136.838ZM168.769 136.274C169.646 136.761 170.572 137.179 171.463 137.589C175.452 139.406 179.581 141.278 183.918 142.308C184.086 142.211 184.253 142.113 184.42 142.016C177.792 140.631 171.38 137.909 165.775 134.095C165.538 133.942 165.309 133.789 165.072 133.643C164.974 133.622 164.877 133.594 164.78 133.573C166.047 134.541 167.362 135.501 168.762 136.274H168.769ZM171.721 135.16C171.414 135.091 171.101 135.021 170.795 134.952C171.79 135.501 172.814 136.002 173.851 136.462C178.098 138.327 182.679 139.427 187.114 140.478C187.281 140.387 187.441 140.297 187.608 140.206C182.268 138.946 176.761 137.603 171.728 135.16H171.721ZM190.908 138.48C190.957 138.459 191.006 138.438 191.048 138.411C190.163 138.25 189.279 138.063 188.409 137.854C188.381 137.854 188.346 137.854 188.318 137.854L190.908 138.487V138.48ZM183.515 137.346C183.515 137.346 183.501 137.346 183.487 137.339C183.494 137.339 183.501 137.339 183.515 137.346ZM189.537 139.169C189.537 139.169 189.558 139.155 189.565 139.155C186.794 138.598 184.03 137.889 181.335 137.033C180.744 136.942 180.152 136.845 179.553 136.74C182.791 137.875 186.139 138.696 189.537 139.176V139.169ZM183.911 138.981C185.29 139.329 186.668 139.656 188.033 139.977C188.089 139.942 188.151 139.914 188.207 139.879C186.759 139.642 185.332 139.343 183.911 138.981ZM188.674 139.622C188.799 139.552 188.924 139.489 189.056 139.42C185.255 138.849 181.517 137.861 177.931 136.476L177.945 136.441C177.492 136.357 177.04 136.267 176.587 136.183C180.465 137.812 184.524 138.967 188.681 139.622H188.674ZM173.197 135.487C176.441 136.921 179.853 137.944 183.278 138.821C180.472 138.07 177.729 137.095 175.083 135.884C174.457 135.752 173.83 135.627 173.204 135.487H173.197ZM190.115 138.884C187.963 138.362 185.784 137.854 183.619 137.38C185.736 137.986 187.887 138.501 190.038 138.926C190.066 138.912 190.087 138.898 190.115 138.884ZM148.21 139.378C147.75 138.856 147.298 138.334 146.845 137.812C145.564 136.323 144.234 134.778 142.765 133.434C140.614 131.472 138.421 130.226 136.235 129.718C138.428 130.692 140.565 132.3 142.73 134.61C143.998 135.968 145.174 137.436 146.309 138.863C147.124 139.886 147.959 140.937 148.829 141.932C152.352 145.997 156.488 149.428 161.131 152.135L161.104 152.184C161.598 152.08 162.092 151.961 162.586 151.836C157.26 148.335 152.429 144.152 148.203 139.378H148.21ZM148.036 137.812C146.504 136.211 144.917 134.555 143.322 132.975C141.902 131.569 140.363 130.177 138.497 129.669C138.094 129.669 137.69 129.669 137.286 129.669C139.201 130.302 141.115 131.472 142.988 133.184C144.478 134.541 145.808 136.093 147.096 137.589C147.548 138.111 147.994 138.64 148.453 139.155C152.721 143.978 157.622 148.203 163.018 151.711C163.262 151.648 163.505 151.586 163.756 151.523C157.748 147.959 152.812 142.802 148.036 137.805V137.812ZM169.242 148.996C162.19 146.644 155.729 142.621 150.507 137.304C149.874 136.657 149.24 135.982 148.634 135.327C146.768 133.316 144.84 131.242 142.501 129.801C141.505 129.746 140.503 129.704 139.507 129.683C141.032 130.344 142.334 131.541 143.545 132.745C145.139 134.325 146.727 135.982 148.265 137.589C153.097 142.642 158.096 147.855 164.181 151.405C166.109 150.855 168.087 150.173 170.099 149.365C169.813 149.247 169.528 149.122 169.242 148.996ZM146.274 130.977C145.891 130.609 145.487 130.281 145.049 129.989C144.951 129.982 144.847 129.968 144.749 129.961C145.279 130.268 145.787 130.609 146.281 130.977H146.274ZM143.322 129.947C145.404 131.374 147.165 133.267 148.871 135.105C149.477 135.759 150.103 136.434 150.737 137.074C155.019 141.424 160.129 144.904 165.719 147.305C159.071 143.867 152.958 139.281 147.834 133.845L147.493 133.483C146.225 132.133 144.924 130.741 143.322 129.947ZM143.921 129.899C145.369 130.734 146.567 132.014 147.736 133.267L148.07 133.629C150.208 135.898 152.526 138.014 154.977 139.963C152.603 137.986 150.41 135.794 148.425 133.42L148.063 132.989C148.029 132.94 147.987 132.891 147.945 132.843C146.727 131.68 145.418 130.636 143.935 129.906C143.935 129.906 143.921 129.906 143.914 129.906L143.921 129.899ZM150.688 135.188C151.196 135.731 151.726 136.302 152.248 136.838C153.786 138.418 155.45 139.865 157.198 141.188C155.374 139.754 153.654 138.181 152.06 136.469C151.593 135.975 151.141 135.453 150.688 134.952C149.477 133.587 148.231 132.195 146.81 131.047C147.298 131.548 147.75 132.084 148.189 132.62C149.059 133.441 149.874 134.325 150.688 135.188ZM167.808 147.458C167.989 147.535 168.163 147.618 168.344 147.688C169.159 148.029 170.064 148.377 171.011 148.551C169.925 148.231 168.852 147.862 167.808 147.451V147.458ZM170.433 149.038L170.405 149.143C170.447 149.157 170.488 149.177 170.53 149.198C170.746 149.108 170.962 149.01 171.178 148.927C170.119 148.76 169.11 148.37 168.219 148.001C166.792 147.403 165.392 146.748 164.021 146.025C165.761 146.992 167.543 147.89 169.361 148.697C169.716 148.809 170.071 148.934 170.433 149.038ZM156.251 138.995C154.977 137.902 153.738 136.733 152.526 135.585L146.789 130.163C146.622 130.142 146.462 130.121 146.302 130.107C146.225 130.1 146.149 130.094 146.072 130.087C147.924 131.353 149.449 133.065 150.925 134.729C151.37 135.23 151.83 135.745 152.289 136.246C157.685 142.058 164.55 146.289 172.145 148.509C172.215 148.481 172.285 148.447 172.354 148.419C166.443 146.268 161.027 143.102 156.244 138.995H156.251ZM166.29 145.35C165.497 144.946 164.724 144.507 163.958 144.041C159.676 141.487 155.555 138.188 151.746 134.228C151.579 134.047 151.405 133.873 151.231 133.692C150.145 132.55 149.024 131.381 147.722 130.49C147.639 130.448 147.555 130.407 147.472 130.365L152.763 135.362C153.96 136.497 155.2 137.659 156.467 138.752C161.236 142.837 166.868 146.108 172.786 148.224C172.821 148.21 172.856 148.189 172.89 148.175C170.669 147.437 168.462 146.491 166.297 145.35H166.29ZM175.738 146.825C171.052 145.475 166.701 143.303 162.816 140.352C161.097 139.051 159.46 137.575 157.88 136.163C155.784 134.283 153.626 132.355 151.252 130.776C150.953 130.727 150.653 130.685 150.354 130.643C152.777 132.084 154.824 134.116 156.815 136.1C157.664 136.942 158.541 137.819 159.433 138.626C159.502 138.689 159.572 138.752 159.641 138.814C164.236 142.412 169.444 145.287 174.923 147.229C175.195 147.096 175.466 146.971 175.738 146.832V146.825ZM159.433 139.065C158.263 138.146 157.128 137.186 156.035 136.176C155.513 135.696 154.998 135.195 154.489 134.701C153.111 133.372 151.698 132.014 150.131 130.887C149.908 130.755 149.679 130.629 149.449 130.504C149.435 130.504 149.414 130.504 149.4 130.497C151.461 131.757 153.195 133.497 154.879 135.195C155.395 135.71 155.924 136.239 156.453 136.754C161.479 141.591 167.62 145.329 174.213 147.563C174.269 147.535 174.332 147.507 174.394 147.472C168.88 145.809 163.728 142.907 159.433 139.058V139.065ZM149.672 131.653C150.298 132.237 150.89 132.857 151.475 133.469C151.642 133.65 151.816 133.824 151.983 134.005C154.1 136.204 156.314 138.202 158.597 139.977C157.56 139.016 156.55 137.986 155.576 136.984C153.724 135.084 151.83 133.142 149.672 131.653ZM155.812 136.754C156.891 137.861 158.005 139.009 159.161 140.046C160.707 141.438 162.371 142.677 164.132 143.763C164.898 144.222 165.664 144.654 166.437 145.057C168.755 146.24 171.206 147.166 173.733 147.792C173.754 147.785 173.775 147.772 173.795 147.765C167.272 145.496 161.208 141.779 156.23 136.991C155.701 136.483 155.165 135.947 154.65 135.432C152.784 133.553 150.855 131.625 148.516 130.379C148.391 130.365 148.258 130.351 148.126 130.33C151.064 131.882 153.473 134.353 155.812 136.754ZM163.457 139.176C162.148 138.181 160.916 137.046 159.725 135.947C157.845 134.214 155.903 132.425 153.64 131.186C153.104 131.089 152.561 130.998 152.018 130.908C154.176 132.418 156.16 134.193 158.089 135.919C159.669 137.332 161.298 138.8 163.004 140.095C166.896 143.046 171.24 145.217 175.94 146.554L175.884 146.755C176.462 146.463 177.04 146.171 177.625 145.865C172.709 144.18 167.676 142.399 163.45 139.19L163.457 139.176ZM178.704 145.273C173.148 143.394 166.98 141.208 162.064 137.095C161.34 136.49 160.63 135.828 159.941 135.188C158.486 133.838 156.982 132.453 155.255 131.486C155.039 131.444 154.824 131.402 154.608 131.36C156.564 132.571 158.284 134.158 159.955 135.703C161.138 136.796 162.364 137.93 163.666 138.912C167.926 142.155 173.051 143.937 178.035 145.635C178.258 145.517 178.488 145.391 178.711 145.273H178.704ZM160.721 152.261C156.146 149.56 152.067 146.157 148.586 142.141C147.715 141.132 146.873 140.081 146.058 139.058C144.93 137.638 143.754 136.169 142.494 134.826C140.12 132.286 137.78 130.609 135.364 129.711C134.724 129.732 134.09 129.753 133.457 129.794C134.842 130.142 136.277 130.803 137.746 131.785C141.442 134.262 144.248 137.854 146.956 141.334C147.346 141.835 147.736 142.336 148.133 142.83C151.259 146.783 154.789 150.695 159.433 152.518C159.857 152.442 160.289 152.358 160.728 152.268L160.721 152.261ZM121.99 133.281C121.538 132.989 121.078 132.731 120.612 132.516C121.719 133.205 122.7 134.088 123.598 135.077C123.083 134.423 122.561 133.81 121.99 133.281ZM138.595 150.395C138.936 150.549 139.277 150.702 139.632 150.841C139.319 150.639 139.013 150.43 138.713 150.214L138.602 150.395H138.595ZM132.273 142.489L131.8 141.842C130.568 140.137 129.3 138.376 127.783 136.886C126.975 136.093 126.084 135.369 125.13 134.736C126.94 136.281 128.486 138.139 129.885 139.921C130.394 140.575 130.895 141.229 131.403 141.897C133.234 144.299 135.114 146.769 137.377 148.753C137.07 148.426 136.771 148.078 136.471 147.723C134.884 146.025 133.513 144.201 132.273 142.496V142.489ZM138.755 147.883C137.885 147.076 136.98 146.24 136.179 145.329C134.884 143.867 133.819 142.197 132.788 140.582C132.169 139.608 131.528 138.612 130.839 137.652C129.635 136.371 128.388 135.139 127.1 133.963C125.75 132.731 124.288 131.576 122.638 131.221C125.638 132.933 128.054 135.494 130.199 138.237C131.333 139.559 132.406 140.923 133.464 142.273C136.13 145.677 138.887 149.198 142.466 151.683L142.368 151.822C142.668 151.913 142.974 152.003 143.28 152.087L138.762 147.89L138.755 147.883ZM137.168 145.162C136.478 144.354 135.81 143.512 135.156 142.691C134.717 142.141 134.278 141.584 133.826 141.041C133.359 140.471 132.879 139.907 132.392 139.357C132.614 139.705 132.844 140.06 133.06 140.408C134.083 142.016 135.142 143.679 136.416 145.12C137.209 146.018 138.108 146.846 138.971 147.653L143.935 152.261C144.332 152.358 144.736 152.456 145.146 152.539C142.201 150.402 139.521 147.932 137.161 145.169L137.168 145.162ZM124.176 132.669C124.399 132.808 124.629 132.961 124.859 133.121C123.954 132.397 122.993 131.757 121.962 131.214V131.2C121.684 131.256 121.398 131.312 121.113 131.367C122.192 131.646 123.236 132.084 124.183 132.669H124.176ZM131.633 144.132L131.466 143.888C130.449 142.419 129.384 140.958 128.305 139.538C128.082 139.246 127.852 138.946 127.623 138.654C128.068 139.281 128.493 139.914 128.918 140.533C129.767 141.786 130.644 143.088 131.605 144.278C131.869 144.605 132.141 144.925 132.426 145.245C132.155 144.869 131.897 144.493 131.64 144.125L131.633 144.132ZM128.562 139.336C129.649 140.756 130.714 142.225 131.73 143.7L131.897 143.944C132.454 144.751 133.025 145.586 133.687 146.317C134.954 147.723 136.548 148.795 138.135 149.797C135.406 147.674 133.248 144.841 131.152 142.092C130.644 141.431 130.143 140.77 129.635 140.123C127.992 138.028 126.14 135.828 123.905 134.179C125.638 135.668 127.156 137.492 128.562 139.336ZM121.948 131.959C121.426 131.778 120.89 131.632 120.347 131.527C120.298 131.541 120.243 131.548 120.194 131.562C120.793 131.646 121.371 131.778 121.948 131.959ZM127.184 135.654C125.074 133.636 123.007 132.453 120.807 131.994C120.918 132.056 121.022 132.119 121.127 132.188C121.642 132.411 122.143 132.655 122.624 132.933C124.615 133.845 126.439 135.098 128.012 136.65C129.106 137.722 130.073 138.933 130.985 140.157C129.837 138.564 128.611 137.012 127.191 135.654H127.184ZM143.977 150.319C141.032 147.681 137.927 144.814 135.183 141.703C134.397 140.812 133.624 139.886 132.872 138.981C130.47 136.107 127.992 133.142 124.866 131.068C124.545 130.97 124.211 130.908 123.87 130.859C123.661 130.894 123.452 130.929 123.243 130.97C125.694 132.042 127.915 133.65 129.69 135.654C130.192 136.225 130.665 136.831 131.111 137.443C132.141 138.543 133.137 139.677 134.09 140.84C134.543 141.389 134.982 141.939 135.42 142.496C136.068 143.31 136.736 144.152 137.425 144.953C139.918 147.876 142.779 150.472 145.926 152.671C146.413 152.762 146.908 152.838 147.395 152.901C146.093 152.198 144.979 151.203 143.984 150.312L143.977 150.319ZM142.264 148.328C142.911 148.92 143.552 149.505 144.186 150.075C145.272 151.05 146.504 152.156 147.959 152.838L147.896 152.978C148.175 153.012 148.46 153.04 148.746 153.068C146.399 151.753 144.262 150.131 142.264 148.328ZM126.133 131.569C128.792 133.594 130.985 136.211 133.116 138.766C133.868 139.663 134.64 140.596 135.427 141.48C137.286 143.589 139.319 145.586 141.345 147.472C138.428 144.702 135.796 141.577 133.206 138.508C132.433 137.589 131.661 136.671 130.888 135.766C129.53 134.179 127.978 132.509 126.133 131.569ZM126.815 130.407C126.167 130.49 125.527 130.588 124.88 130.692C124.921 130.72 124.956 130.741 125.005 130.769C127.372 131.492 129.342 133.462 131.138 135.55C131.918 136.455 132.691 137.374 133.464 138.292C138.191 143.909 143.072 149.713 149.56 153.124C150.048 153.158 150.542 153.179 151.036 153.2C150.354 152.817 149.741 152.337 149.198 151.892C145.286 148.669 141.902 144.772 138.63 141.007C137.216 139.378 135.754 137.701 134.271 136.093C132.266 133.928 129.871 131.52 126.822 130.435V130.407H126.815ZM140.823 151.307C141.032 151.384 141.247 151.453 141.463 151.53C139.235 149.567 136.959 147.521 135.03 145.203C134.661 144.765 134.313 144.319 133.965 143.86C134.814 145.071 135.74 146.324 136.708 147.479C137.968 148.829 139.361 150.096 140.927 151.154L140.823 151.307ZM136.109 149.101C134.348 147.758 132.754 146.22 131.347 144.48C130.373 143.275 129.495 141.974 128.639 140.707C127.783 139.441 126.899 138.139 125.931 136.935C125.123 135.94 124.295 135.084 123.452 134.36C123.766 134.736 124.072 135.132 124.385 135.536C124.545 135.745 124.712 135.954 124.88 136.169C125.631 137.13 126.355 138.132 127.031 139.155C127.358 139.656 127.678 140.164 127.999 140.666C128.716 141.8 129.454 142.976 130.296 144.048C131.25 145.252 132.413 146.414 133.84 147.591C134.557 148.127 135.316 148.628 136.102 149.094L136.109 149.101ZM146.344 111.156C145.606 111.037 144.868 110.877 144.144 110.669C144.868 110.926 145.592 111.1 146.344 111.156ZM152.164 104.913C149.874 105.379 147.583 105.936 145.341 106.569C144.457 106.82 143.601 107.077 142.786 107.467C142.173 107.759 141.596 108.121 141.073 108.546C146.908 108.114 152.881 107.606 158.604 106.054C156.94 106.005 155.269 105.63 153.633 105.247C153.146 105.129 152.658 105.017 152.164 104.913ZM142.821 106.36C143.705 105.79 144.638 105.289 145.592 104.857C144.624 105.191 143.677 105.706 142.821 106.36ZM148.147 111.03C148.251 111.01 148.363 110.996 148.467 110.968C147.764 110.94 147.047 110.891 146.337 110.822C146.936 110.919 147.541 110.989 148.147 111.03ZM143.963 110.126C144.304 110.202 144.659 110.272 145.028 110.335C146.483 110.564 147.973 110.634 149.435 110.683C149.512 110.655 149.588 110.627 149.672 110.606C147.757 110.606 145.856 110.439 143.97 110.126H143.963ZM147.604 110.209C148.572 110.265 149.532 110.286 150.5 110.265C150.584 110.23 150.66 110.195 150.744 110.161C149.7 110.223 148.648 110.237 147.604 110.202V110.209ZM146.017 109.799C147.875 109.938 149.741 109.924 151.614 109.764C151.739 109.701 151.865 109.645 151.983 109.59C152.248 109.465 152.505 109.353 152.77 109.228C150.549 109.618 148.279 109.813 146.017 109.799ZM149.797 108.859C148.05 109.005 146.281 109.04 144.527 109.026C144.109 109.033 143.691 109.04 143.28 109.054L142.348 109.075C146.657 109.506 151.078 109.186 155.255 108.135C155.631 107.975 156.014 107.808 156.39 107.641C154.413 108.247 152.234 108.65 149.797 108.859ZM159.293 106.193L159.328 106.27C159.46 106.2 159.586 106.145 159.711 106.075C159.572 106.117 159.433 106.159 159.293 106.193ZM152.387 108.219C152.457 108.205 152.526 108.198 152.603 108.184L152.512 108.198C152.47 108.205 152.429 108.212 152.387 108.219ZM144.527 108.699C145.71 108.671 146.908 108.622 148.084 108.511C149.546 108.372 151.022 108.114 152.457 107.878L156.975 107.112C157.741 106.855 158.472 106.562 159.182 106.228C154.051 107.676 148.718 108.267 143.454 108.685C143.817 108.685 144.172 108.692 144.527 108.699ZM143.287 106.458C145.021 105.595 146.88 104.968 148.662 104.433C148.265 104.426 147.868 104.433 147.479 104.467C146.017 104.968 144.61 105.637 143.287 106.458ZM145.251 106.256C147.256 105.692 149.303 105.184 151.35 104.753C150.765 104.641 150.187 104.551 149.602 104.495C147.305 105.177 144.826 105.95 142.626 107.182C142.626 107.182 142.64 107.182 142.647 107.168C143.489 106.771 144.394 106.5 145.258 106.256H145.251ZM194.132 80.0244C194.946 79.1265 195.719 78.1939 196.457 77.2265C186.251 81.4581 175.077 84.1724 163.22 85.2999C162.224 85.9681 161.215 86.6153 160.191 87.2417C170.6 88.063 180.96 86.1838 189.801 84.1863C191.305 82.9266 192.746 81.5416 194.132 80.0244ZM202.869 65.3182C194.341 70.2736 185.081 73.6491 175.348 75.3404C171.937 78.7368 168.198 81.8618 164.195 84.6387C164.16 84.6805 164.132 84.7292 164.097 84.764L164.055 84.7292C163.965 84.7919 163.874 84.8475 163.791 84.9102C175.592 83.734 186.703 80.9779 196.854 76.7115C199.409 73.2524 201.428 69.3897 202.876 65.3182H202.869ZM204.902 57.551C197.216 63.2372 188.736 67.6706 179.678 70.733L179.665 70.6982C178.418 72.1528 177.109 73.5656 175.752 74.9437C185.408 73.2107 194.584 69.8143 203.036 64.8519C203.851 62.4786 204.471 60.0357 204.895 57.558L204.902 57.551ZM204.136 38.829C200.495 44.9885 195.845 50.438 190.282 55.0454C195.935 51.3358 200.864 46.457 204.631 40.8404C204.492 40.1583 204.324 39.4832 204.15 38.8081C204.15 38.8081 204.143 38.8081 204.136 38.822V38.829ZM192.524 49.3036L192.475 49.2548C192.294 49.749 192.106 50.2431 191.911 50.7373C196.339 46.7075 200.3 42.1767 203.712 37.2561C203.642 37.0473 203.58 36.8385 203.517 36.6227C200.085 41.0213 196.395 45.2808 192.531 49.3036H192.524ZM202.097 32.8505C200.314 36.4 198.205 39.7686 195.803 42.9214C198.344 40.1444 200.6 37.1169 202.521 33.8666C202.382 33.5256 202.243 33.1845 202.097 32.8505ZM191.298 7.0851H191.326C191.326 7.03638 191.326 6.99462 191.319 6.95286C191.312 6.99462 191.305 7.03638 191.298 7.0851ZM190.463 14.5809C190.463 14.5809 190.463 14.6296 190.463 14.6574L190.498 14.6435C191.257 16.3556 191.932 18.0956 192.551 19.8634C191.967 17.8798 191.291 15.9172 190.532 13.9823C190.512 14.1772 190.498 14.379 190.47 14.5878L190.463 14.5809ZM181.558 40.6873C182.93 49.8743 182.707 59.1239 180.883 68.2135C184.134 64.1489 186.926 59.8199 189.154 55.3169C190.15 46.2552 189.537 37.1934 187.337 28.3544C185.854 32.6278 183.911 36.7689 181.551 40.6873H181.558ZM186.557 61.3163C185.018 63.8009 183.313 66.216 181.454 68.5476C189.711 64.1628 197.752 59.2074 205.383 53.7996C205.48 52.7069 205.536 51.6073 205.55 50.5146C199.862 55.1777 193.477 58.8107 186.557 61.3163ZM187.128 60.5437L187.093 60.4533C187.01 60.5924 186.926 60.7247 186.843 60.8639C193.665 58.3444 199.959 54.7253 205.564 50.0831C205.564 49.5889 205.564 49.0878 205.55 48.5937C200.335 53.7648 193.972 57.899 187.135 60.5437H187.128ZM187.608 59.5624C187.497 59.7573 187.386 59.9382 187.274 60.1331C194.069 57.4605 200.37 53.3264 205.522 48.1552C205.501 47.5288 205.459 46.9094 205.411 46.283C200.467 51.837 194.327 56.4165 187.608 59.5624ZM205 42.8309C204.916 42.3159 204.826 41.8008 204.721 41.2858C200.962 46.805 196.088 51.6142 190.512 55.2821C195.977 52.004 200.955 47.7376 205 42.8379V42.8309ZM189.377 56.3191C188.91 57.2378 188.416 58.1495 187.901 59.0613C194.508 55.8946 200.53 51.3358 205.376 45.8306C205.299 44.9676 205.195 44.1115 205.069 43.2624C200.711 48.4893 195.302 52.9853 189.377 56.3191ZM190.7 53.5839C190.56 53.8971 190.414 54.2033 190.268 54.5095C190.268 54.5583 190.254 54.6 190.254 54.6487C194.731 50.9113 198.609 46.631 201.832 41.8635C198.476 46.0881 194.752 50.0204 190.7 53.5839ZM187.539 27.7767C189.774 36.5183 190.456 45.4826 189.579 54.4469C189.746 54.0989 189.913 53.7509 190.073 53.396C191.089 44.195 190.449 34.674 188.2 25.6888C187.991 26.3917 187.768 27.0877 187.532 27.7767H187.539ZM191.911 48.8929C192.357 40.2488 190.665 31.6255 188.813 23.4895C188.674 24.0254 188.527 24.5543 188.374 25.0833C190.658 33.9293 191.382 43.3251 190.491 52.4355C191.006 51.2662 191.479 50.0831 191.904 48.8999L191.911 48.8929ZM193.38 44.3412C192.823 36.4626 191.493 28.6328 189.412 21.0118C189.279 21.6103 189.14 22.2019 188.994 22.7935C190.818 30.7973 192.558 39.2883 192.287 47.8281C192.691 46.6588 193.053 45.4965 193.38 44.3412ZM193.032 47.6819C192.92 48.0021 192.823 48.3222 192.705 48.6424C196.457 44.7101 200.05 40.5481 203.392 36.2538C203.322 36.052 203.259 35.8502 203.19 35.6483C200.175 39.9426 196.764 43.9932 193.039 47.6819H193.032ZM193.631 45.8097C193.512 46.1995 193.394 46.5892 193.269 46.9859C196.854 43.3807 200.14 39.4484 203.05 35.2795C202.925 34.9454 202.8 34.6044 202.667 34.2633C200.203 38.3696 197.223 42.1419 193.784 45.4756C193.784 45.587 193.798 45.6984 193.805 45.8028H193.631V45.8097ZM194.633 42.1419C194.577 42.3785 194.515 42.6221 194.459 42.8657C197.077 39.1909 199.409 35.2864 201.414 31.2497C201.247 30.8808 201.087 30.512 200.913 30.1431C199.36 34.4095 197.258 38.4392 194.633 42.1488V42.1419ZM195.037 40.2697C194.967 40.6038 194.898 40.9378 194.821 41.2789C197.272 37.7015 199.249 33.8179 200.704 29.7255C200.655 29.6141 200.6 29.5028 200.551 29.3984C199.075 33.1915 197.223 36.8385 195.037 40.2766V40.2697ZM197.341 35.6483C198.476 33.4908 199.486 31.2636 200.363 28.9808C200.182 28.591 199.994 28.2083 199.806 27.8255C199.235 30.512 198.414 33.1358 197.341 35.6483ZM196.819 35.7667C196.422 36.8524 196.005 37.966 195.295 38.9195C195.281 39.0169 195.26 39.1143 195.239 39.2118C197.279 35.5022 198.734 31.5211 199.569 27.3592C199.569 27.3452 199.555 27.3244 199.548 27.3104C198.866 30.2057 197.829 33.0245 196.819 35.7667ZM195.636 36.8176C195.58 37.2491 195.51 37.6806 195.441 38.1191C195.893 37.3465 196.207 36.4905 196.52 35.6553C197.571 32.8087 198.657 29.8577 199.333 26.8441C199.228 26.6423 199.131 26.4404 199.033 26.2317C198.344 29.8856 197.202 33.4421 195.636 36.8176ZM195.956 33.7065C195.907 34.3747 195.845 35.0428 195.761 35.711C197.153 32.5164 198.17 29.1757 198.79 25.7375C198.692 25.5426 198.602 25.3478 198.504 25.1598C197.996 28.0969 197.14 30.9713 195.963 33.6996L195.956 33.7065ZM196.088 30.9574C196.081 31.5351 196.06 32.1266 196.026 32.7113C197.07 30.1292 197.822 27.4287 198.26 24.6726C198.184 24.5265 198.114 24.3734 198.045 24.2342C197.696 26.5588 197.035 28.8138 196.088 30.9574ZM196.06 28.591C196.081 29.0852 196.088 29.5863 196.095 30.0944C196.924 28.0482 197.495 25.9115 197.787 23.7122C197.655 23.4408 197.515 23.1624 197.383 22.8909C197.112 24.8675 196.784 26.7954 196.06 28.591ZM197.16 22.4316L197.14 22.4664C197.14 22.4664 197.14 22.4733 197.153 22.4733C197.167 22.4803 197.181 22.4873 197.195 22.4873C197.188 22.4664 197.181 22.4455 197.167 22.4246L197.16 22.4316ZM195.789 25.1042C195.893 25.9811 195.97 26.865 196.026 27.7628C196.59 26.1064 196.868 24.3455 197.112 22.5151L197.091 22.5429L196.993 22.4664V22.3689C197.007 22.3202 197.035 22.2785 197.07 22.2437C196.896 21.8817 196.722 21.5198 196.548 21.1579C196.409 22.4942 196.158 23.8166 195.782 25.1042H195.789ZM195.322 22.2785C195.455 22.9396 195.566 23.6078 195.664 24.2899C195.97 23.0719 196.172 21.833 196.269 20.5803C196.172 20.3645 196.067 20.1418 195.963 19.9191C195.824 20.7195 195.601 21.5129 195.315 22.2785H195.322ZM194.355 18.3183C194.48 18.7777 194.605 19.237 194.724 19.7033C194.898 19.1396 195.03 18.5549 195.107 17.9703C194.953 17.6084 194.8 17.2395 194.654 16.8776C194.598 17.3648 194.501 17.845 194.362 18.3253L194.355 18.3183ZM194.076 17.323C194.111 17.4483 194.146 17.5736 194.181 17.6989C194.292 17.2047 194.355 16.6967 194.383 16.1955C194.341 16.0912 194.299 15.9798 194.257 15.8684L194.076 17.323ZM193.77 16.2303C193.798 16.3208 193.819 16.4183 193.846 16.5087L194.014 15.2003C193.958 15.0611 193.916 14.9219 193.86 14.7827C193.846 15.2629 193.819 15.7501 193.77 16.2234V16.2303ZM192.545 11.3793C192.586 11.5812 192.628 11.783 192.67 11.9848C192.705 12.0684 192.739 12.1588 192.774 12.2424C192.816 12.0753 192.865 11.9152 192.92 11.7552C192.837 11.4489 192.76 11.1427 192.691 10.8365C192.649 11.0244 192.607 11.2053 192.545 11.3863V11.3793ZM192.169 9.18698C192.231 9.66721 192.308 10.1474 192.398 10.6277C192.447 10.3632 192.468 10.0918 192.475 9.82032C192.405 9.45145 192.336 9.08258 192.28 8.71371C192.238 8.87378 192.203 9.0269 192.169 9.18698ZM191.535 9.38881C191.5 9.11042 191.465 8.82506 191.438 8.53971L191.18 7.85069C191.152 8.05948 191.117 8.26828 191.089 8.48403C191.243 8.77635 191.396 9.08258 191.542 9.38881H191.535ZM190.957 9.53497C191.354 10.4606 191.723 11.3863 192.078 12.3259C192.043 12.1867 192.008 12.0475 191.988 11.9083H191.981V11.8944C191.883 11.4559 191.8 11.0174 191.723 10.5789C191.5 10.0709 191.257 9.56281 191.013 9.06866C190.992 9.22178 190.971 9.37489 190.957 9.52801C190.957 9.52801 190.957 9.52801 190.957 9.53497ZM192.217 13.6274C192.182 13.5299 192.148 13.4325 192.113 13.335C192.141 13.4325 192.182 13.5299 192.217 13.6274ZM190.929 10.3145C190.915 10.2797 190.894 10.2379 190.888 10.2031C190.888 10.2518 190.874 10.2936 190.874 10.3423L190.929 10.3214V10.3145ZM190.741 11.6647C191.194 12.8548 191.619 14.0519 192.022 15.2629C193.101 17.7754 193.902 20.3993 194.557 23.051C193.652 18.889 192.398 14.7966 190.811 10.8365C190.79 11.1149 190.762 11.3863 190.734 11.6647H190.741ZM190.734 12.5695C190.713 12.5138 190.7 12.4651 190.672 12.4094C190.672 12.4233 190.672 12.4372 190.672 12.4442C190.693 12.4859 190.713 12.5207 190.734 12.5625V12.5695ZM190.344 15.604C190.414 15.7849 190.477 15.9589 190.546 16.1399L190.602 16.119C190.79 16.6688 190.971 17.2186 191.152 17.7685C193.206 23.5034 194.536 29.461 195.127 35.5231C195.162 35.2447 195.19 34.9732 195.218 34.6948C195.016 31.8065 194.633 28.946 194.083 26.1203C193.15 22.3968 191.911 18.7498 190.386 15.2281C190.372 15.3534 190.358 15.4787 190.344 15.604ZM190.24 16.5505C192.851 23.6496 194.341 31.0688 194.689 38.6132C194.717 38.474 194.738 38.3348 194.765 38.1956C194.752 37.6945 194.71 37.2073 194.668 36.7201C194.111 30.3171 192.823 23.9906 190.846 17.8798C190.651 17.3439 190.456 16.808 190.254 16.2791C190.24 16.3765 190.226 16.467 190.212 16.5644L190.24 16.5505ZM189.996 17.9703C191.995 25.5844 193.394 33.4073 194.16 41.251C194.181 41.1675 194.195 41.084 194.215 41.0074L194.195 40.9935C194.195 40.9935 194.222 40.9517 194.236 40.9309C194.299 40.6525 194.362 40.3671 194.417 40.0887C194.215 32.2589 192.767 24.5613 190.122 17.1908C190.087 17.4553 190.045 17.7128 189.996 17.9773V17.9703ZM193.115 16.293C192.9 15.6179 192.677 14.9428 192.447 14.2746C192.705 15.0333 192.955 15.7849 193.192 16.5505C193.164 16.467 193.136 16.3765 193.115 16.293ZM195.406 28.3753C195.232 27.5192 195.058 26.6562 194.87 25.8001C195.065 26.7397 195.246 27.6863 195.413 28.6328C195.413 28.5493 195.413 28.4588 195.406 28.3753ZM192.962 13.2237C192.976 13.2863 192.997 13.349 193.011 13.4186C193.032 13.1263 193.039 12.8409 193.039 12.5486C192.997 12.7713 192.976 13.001 192.969 13.2307L192.962 13.2237ZM192.767 12.2563L192.732 12.2702C192.732 12.2702 192.739 12.3189 192.746 12.3398C192.746 12.312 192.753 12.2841 192.767 12.2563ZM189.565 20.3227C191.667 27.8603 193.032 35.6205 193.638 43.4155C193.742 43.0188 193.839 42.6291 193.93 42.2324C193.206 34.326 191.834 26.4405 189.857 18.7498C189.767 19.2718 189.662 19.7938 189.558 20.3158L189.565 20.3227ZM190.602 13.2863C192.28 17.4344 193.547 21.7078 194.403 26.0577C194.779 27.554 195.107 29.0574 195.385 30.5746C195.399 30.6651 195.42 30.7556 195.434 30.853C195.434 30.8252 195.434 30.8043 195.434 30.7834C194.633 25.5565 193.394 20.3993 191.723 15.3812C191.382 14.5948 191.02 13.8153 190.623 13.0497C190.616 13.1263 190.609 13.2098 190.602 13.2863ZM191.967 6.08984C191.967 6.15248 191.967 6.21512 191.967 6.27776C191.981 6.25688 191.995 6.236 192.008 6.20816C192.008 6.14552 192.001 6.08288 191.995 6.02024L191.967 6.08288V6.08984ZM193.345 13.2307C193.324 13.5995 193.296 13.9684 193.255 14.3373C193.276 14.4069 193.289 14.4695 193.31 14.5391C193.352 14.2677 193.422 13.9962 193.512 13.7387C193.457 13.5717 193.401 13.4046 193.352 13.2376L193.345 13.2307ZM195.35 18.5201C195.246 19.1187 195.086 19.7103 194.877 20.2879C194.995 20.7473 195.1 21.2136 195.204 21.6799C195.448 20.9282 195.622 20.1557 195.733 19.3762C195.601 19.0908 195.476 18.8055 195.357 18.5201H195.35ZM201.839 32.2241C201.755 32.0223 201.658 31.8274 201.574 31.6255C199.472 35.8432 197 39.9147 194.229 43.7218C194.146 44.0558 194.048 44.383 193.958 44.717C197.084 40.9517 199.764 36.8315 201.936 32.4468C201.909 32.3772 201.874 32.2937 201.846 32.2241H201.839ZM204.032 38.3627C203.962 38.126 203.893 37.8824 203.823 37.6528C200.307 42.6987 196.221 47.3339 191.639 51.4333V51.4194C191.438 51.8996 191.236 52.3729 191.027 52.8461C195.789 48.5867 200.105 43.8122 203.872 38.648C203.928 38.5506 203.983 38.4601 204.039 38.3627H204.032ZM204.972 57.0916C205.125 56.1381 205.25 55.1846 205.341 54.2242C197.571 59.7225 189.377 64.7544 180.96 69.1809L180.946 69.16C180.646 69.5289 180.347 69.8908 180.041 70.2597C188.994 67.1765 197.376 62.75 204.972 57.0847V57.0916ZM175.738 48.8721C176.497 58.8942 174.916 69.0487 171.164 78.3609C174.54 75.396 177.653 72.1736 180.444 68.7564C182.345 59.639 182.63 50.3475 181.294 41.1257C179.63 43.8331 177.778 46.4291 175.738 48.8721ZM170.83 54.4887C169.973 63.5713 168.017 72.5425 165.023 81.1449C164.654 82.2028 164.271 83.2398 163.735 84.1724C163.986 83.9984 164.236 83.8244 164.487 83.6435C165.518 81.9592 166.088 79.9826 166.597 78.1939C167.216 76.0224 167.864 73.7814 168.414 71.5473C169.834 65.8611 170.732 60.0217 171.115 54.1685C171.018 54.2729 170.92 54.3843 170.83 54.4887ZM165.886 82.6273C168.344 78.5906 170.126 73.7605 171.206 68.2552C172.285 62.7291 172.535 57.2169 172.626 52.4981C172.243 52.9297 171.86 53.3542 171.477 53.7788C171.108 59.7851 170.189 65.7915 168.734 71.6308C168.177 73.8718 167.537 76.1129 166.91 78.2844C166.457 79.8712 165.956 81.6182 165.121 83.1841C165.378 83.0032 165.629 82.8222 165.88 82.6273H165.886ZM168.657 80.4767C172.459 71.2967 174.185 61.2328 173.67 51.2941C173.433 51.5655 173.19 51.8439 172.953 52.1153C172.87 56.9316 172.633 62.6108 171.519 68.3109C170.502 73.5517 168.831 78.18 166.569 82.1054C167.272 81.5764 167.975 81.0335 168.657 80.4767ZM170.621 78.8412C174.492 69.5219 176.149 59.3118 175.439 49.234C174.951 49.8116 174.464 50.3823 173.983 50.9461C174.554 60.836 172.89 70.8652 169.194 80.0452C169.674 79.6485 170.147 79.2518 170.621 78.8412ZM162.628 62.6874C162.05 71.7143 159.92 80.4768 156.3 88.7451C158.618 87.4853 160.881 86.1073 163.067 84.6248C163.805 83.5669 164.271 82.3211 164.724 81.0335C167.669 72.5843 169.597 63.787 170.475 54.8784C167.864 57.7041 165.267 60.2932 162.635 62.6804L162.628 62.6874ZM153.32 78.1591C153.097 79.4397 152.972 81.0405 152.839 82.5856C152.714 84.1376 152.575 85.7384 152.359 87.0399C152.234 87.7568 152.06 88.404 151.823 89.0026C152.046 88.5084 152.248 87.9795 152.408 87.4227C152.895 85.7245 153.041 83.9219 153.181 82.1819L153.647 76.4748C153.529 77.0107 153.424 77.5745 153.327 78.1591H153.32ZM150.25 92.4268C150.25 92.4268 150.25 92.4268 150.243 92.4268C150.243 92.4268 150.243 92.4268 150.25 92.4268ZM165.26 93.095C166.137 93.1158 167.014 93.1298 167.885 93.1298V93.1506C168.107 93.1298 168.33 93.1089 168.553 93.088C167.453 93.1158 166.36 93.1158 165.26 93.1019V93.095ZM165.225 92.7678C167.411 92.8026 169.618 92.7609 171.797 92.5938C172.73 92.4198 173.642 92.225 174.533 91.9953C171.456 92.3363 168.344 92.6356 165.225 92.7609V92.7678ZM152.561 91.3689C152.457 91.4176 152.345 91.4733 152.234 91.522C160.233 93.2411 168.476 92.3503 176.462 91.4524C176.908 91.3132 177.346 91.174 177.785 91.0209C168.852 92.225 160.686 92.9488 152.554 91.3689H152.561ZM170.683 90.7912C169.096 90.9165 167.376 91.0488 165.587 91.1392C170.099 91.0418 174.645 90.826 179.128 90.4781V90.5129C179.128 90.5129 179.184 90.5059 179.212 90.5059C179.658 90.3319 180.096 90.1509 180.535 89.963C177.256 90.2553 173.949 90.5337 170.676 90.7912H170.683ZM155.492 89.9143C155.276 90.0326 155.046 90.137 154.824 90.2553C160.219 91.2854 165.991 90.833 170.649 90.4641C174.227 90.1788 177.854 89.8725 181.433 89.5454C181.823 89.3645 182.206 89.1766 182.589 88.9817C173.698 90.0883 164.536 91.0975 155.492 89.9073V89.9143ZM159.502 89.7264C158.367 89.7125 157.337 89.6777 156.327 89.4689C156.216 89.5246 156.105 89.5872 155.993 89.6498C165.142 90.7773 174.415 89.6777 183.41 88.5571C183.654 88.4249 183.891 88.2927 184.127 88.1535C175.989 89.3018 167.711 89.8377 159.502 89.7194V89.7264ZM156.787 89.2183C157.65 89.3575 158.541 89.3854 159.502 89.3993C167.961 89.5176 176.49 88.9469 184.858 87.722C186.369 86.8102 187.831 85.7871 189.231 84.6527C180.368 86.6362 170.057 88.4388 159.704 87.541C158.743 88.1187 157.769 88.6755 156.78 89.2183H156.787ZM160.943 64.2603C160.616 70.3014 159.412 76.6488 157.052 84.7849C156.585 86.3857 156.084 87.9447 155.276 89.2879C155.457 89.1905 155.645 89.093 155.833 88.9956C159.502 80.7482 161.667 72.0136 162.28 63.0006C161.807 63.4321 161.361 63.8497 160.943 64.2533V64.2603ZM159.878 65.3112C159.481 72.2154 158.026 79.1474 155.617 85.6688C155.541 85.9263 155.464 86.1769 155.388 86.4344C155.033 87.6176 154.657 88.8286 154.051 89.9213C154.267 89.8169 154.476 89.6985 154.691 89.5941C155.666 88.1883 156.202 86.5388 156.738 84.7014C159.043 76.7463 160.24 70.5172 160.595 64.6083C160.352 64.8449 160.115 65.0816 159.885 65.3182L159.878 65.3112ZM159.266 65.9515C159.3 67.1973 159.259 68.4292 159.161 69.6611C159.321 68.3318 159.447 67.0025 159.53 65.6731C159.44 65.7636 159.349 65.8541 159.266 65.9515ZM158.444 66.8494C157.929 71.4359 157.1 76.0294 155.993 80.5116C155.75 81.4859 155.492 82.4673 155.227 83.4347C157.079 77.9782 158.249 72.3198 158.715 66.5501C158.625 66.6475 158.534 66.7519 158.444 66.8494ZM157.149 68.4501C156.488 74.8253 155.346 81.2075 153.745 87.4157C153.786 87.3183 153.828 87.2139 153.863 87.1164C153.933 86.8798 153.995 86.6501 154.065 86.4135C154.615 84.4578 155.179 82.4325 155.68 80.435C156.752 76.1268 157.553 71.7073 158.068 67.2948C157.734 67.6845 157.434 68.0673 157.149 68.4501ZM156.738 69.0139H156.759C156.759 69.0139 156.759 68.993 156.759 68.9791C156.752 68.993 156.738 69.0069 156.738 69.0139ZM155.485 71.0531L154.469 79.8921C154.26 81.7434 154.037 83.6435 153.612 85.4948C153.995 83.9636 154.26 82.4185 154.483 80.9709C154.608 80.1775 154.712 79.3841 154.817 78.5837C154.845 78.2774 154.865 77.9712 154.893 77.665C155.095 75.1873 155.318 72.633 155.965 70.1901C155.791 70.4754 155.631 70.7678 155.478 71.0531H155.485ZM156.989 92.8792C156.85 92.8653 156.703 92.8444 156.557 92.8305C156.703 92.8444 156.843 92.8653 156.989 92.8792ZM159.064 93.081C158.534 93.0393 158.012 92.9906 157.483 92.9349C158.005 92.9906 158.534 93.0462 159.064 93.081ZM151.036 92.2389L151.071 92.0858C151.071 92.0858 151.029 92.0788 151.008 92.0788C150.925 92.1136 150.841 92.1554 150.758 92.1902C151.238 92.2876 151.705 92.3781 152.185 92.4686C151.802 92.399 151.419 92.3224 151.036 92.2389ZM151.586 91.8213C151.886 91.8491 152.192 91.877 152.498 91.9118C152.241 91.8631 151.99 91.8143 151.739 91.7517C151.691 91.7726 151.635 91.7935 151.586 91.8213ZM153.828 90.7634C153.577 90.8887 153.32 91.007 153.062 91.1323C160.059 92.4199 167.098 92.0231 174.645 91.1044C170.934 91.3202 167.209 91.4594 163.519 91.5081C160.219 91.5568 156.989 91.529 153.828 90.7634ZM154.288 90.5337C156.216 90.9652 158.179 91.1323 160.171 91.181C158.228 91.1044 156.265 90.9026 154.35 90.5059C154.329 90.5128 154.308 90.5198 154.288 90.5337ZM153.292 84.6666C153.195 85.3626 153.09 86.0725 152.951 86.7824C152.986 86.6641 153.02 86.5527 153.055 86.4274C153.64 84.2838 153.898 82.0288 154.148 79.8504L154.886 73.4125L153.285 84.6596L153.292 84.6666ZM151.315 91.2088C151.37 91.1253 151.426 91.0418 151.475 90.9513C151.419 91.0348 151.363 91.1253 151.315 91.2088ZM155.624 74.5122L155.589 74.8393C155.464 76.099 155.311 77.3587 155.144 78.6185C155.081 79.3005 155.019 79.9896 154.949 80.6786C155.722 76.8785 156.314 73.0367 156.738 69.1879C155.993 70.8374 155.805 72.7026 155.624 74.5122ZM154.169 87.2278C153.856 88.3135 153.487 89.448 152.923 90.4781C153.076 90.4085 153.229 90.3319 153.382 90.2553C154.086 88.7242 154.726 87.1582 155.311 85.5644C157.052 79.7877 158.771 73.844 158.931 67.7333C158.284 74.4356 156.683 80.9848 154.169 87.2278ZM154.12 74.4913L153.751 79.1126L154.622 72.9879C154.434 73.4821 154.274 73.9762 154.12 74.4913ZM134.578 27.38C135.399 33.3725 137.961 35.9198 140.677 38.6202C141.825 39.7616 143.009 40.9378 144.053 42.3855C147.987 47.8559 149.943 54.4539 149.56 60.9752C149.156 67.8307 145.863 74.3451 140.739 78.4305C140.718 79.2657 140.725 80.1009 140.725 80.9779C140.739 84.0611 140.753 87.2487 139.611 90.7147C138.414 94.3547 136.778 97.5284 134.738 100.201C139.131 97.0551 143.823 94.466 148.781 92.4894L148.934 92.3085C150.451 90.5059 151.343 89.1139 151.712 86.9285C151.927 85.6549 152.06 84.068 152.185 82.5299C152.317 80.9709 152.45 79.3632 152.672 78.0478C153.745 71.7491 155.332 68.4223 162.099 62.2767C166.464 58.3096 170.739 53.8275 175.146 48.5589C183.278 38.8568 188.486 26.7606 189.815 14.5043C189.899 13.7109 189.975 12.8966 190.045 12.1101C190.351 8.67891 190.672 5.12938 192.169 1.91393L193.06 -0.00698853L192.781 2.09489C192.022 7.83677 193.672 13.175 196.067 18.5689L196.144 18.5201L196.123 18.7081C197.028 20.7334 198.031 22.7656 199.054 24.8258C200.732 28.2152 202.466 31.7091 203.726 35.2516C203.795 35.4535 203.858 35.6553 203.928 35.8571L204.025 35.9337C204.025 35.9337 203.99 35.9754 203.976 35.9963C204.192 36.6436 204.401 37.3048 204.589 37.959L204.7 38.0356C204.7 38.0356 204.659 38.0912 204.638 38.1191C206.476 44.7449 206.733 51.8578 205.348 58.8873C203.74 67.0582 200.022 74.5191 194.605 80.4559C183.717 92.3851 169.764 96.2338 149.379 92.9349C143.441 95.2664 137.878 98.461 132.768 102.47C132.635 102.609 132.503 102.741 132.371 102.881L132.322 102.832C130.15 104.565 128.047 106.451 126.042 108.476C124.079 110.467 122.22 112.569 120.431 114.726C126.536 110.933 132.775 108.943 139.911 108.49H139.946C141.422 106.145 144.179 104.272 146.782 103.876C149.129 103.521 151.489 104.064 153.772 104.593C156.502 105.226 159.071 105.825 161.598 104.989L164.132 104.147L161.876 105.574C159.885 106.827 157.65 107.787 155.499 108.72C154.427 109.179 153.327 109.652 152.262 110.161C150.765 110.877 149.066 111.685 147.263 111.796C144.631 111.956 142.341 110.696 139.855 109.151C132.259 109.645 125.687 111.921 119.198 116.306L119.178 116.271C117.813 117.949 116.49 119.647 115.174 121.317C113.914 122.932 112.633 124.567 111.317 126.189C111.31 126.203 111.303 126.217 111.289 126.231C109.465 128.486 107.572 130.72 105.58 132.836C104.104 134.402 102.42 136.051 100.547 137.645C106.13 134.91 112.013 132.801 118.05 131.353C118.05 131.353 118.057 131.353 118.064 131.353C127.351 129.126 136.98 128.451 146.379 129.439C148.989 129.718 151.593 130.121 154.176 130.602V130.588C154.176 130.588 154.225 130.609 154.253 130.622C158.312 131.374 162.329 132.314 166.269 133.225C175.07 135.279 184.162 137.401 193.394 137.374H195.016L193.526 138C190.108 139.448 186.836 141.348 183.675 143.192C182.394 143.937 181.071 144.709 179.748 145.44C169.792 150.966 160.909 153.715 152.582 153.848C142.208 154.008 132.809 149.658 128.054 142.489C127.699 141.96 127.351 141.417 126.996 140.86C124.587 137.116 122.102 133.246 118.043 132.028C111.143 133.699 104.446 136.232 98.1867 139.587L98.1727 139.573C92.5682 143.867 85.6061 147.444 77.7807 147.695L77.7598 147.041C89.31 146.672 98.9943 138.87 105.093 132.39C107.077 130.288 108.95 128.061 110.767 125.813C113.851 120.698 115.16 115.401 114.743 109.632C112.459 107.523 110.099 104.941 109.632 101.711C109.437 100.389 109.584 99.0387 109.716 97.7302L109.876 96.1642C110.322 91.8979 110.739 87.8751 109.556 83.1772L108.86 80.4211L110.155 82.9475C111.289 85.1607 113.086 87.0608 114.819 88.8912C117.082 91.2924 119.421 93.7701 120.34 96.9786C121.635 101.495 119.505 106.834 115.376 109.485C115.731 114.267 114.938 118.735 112.953 123.043C113.517 122.326 114.081 121.609 114.638 120.9C118.05 116.543 121.586 112.033 125.562 108.003C127.713 105.825 129.969 103.813 132.315 101.969C135.211 98.9691 137.446 95.1064 138.971 90.4781C140.078 87.1164 140.064 83.9845 140.05 80.95C140.05 80.087 140.043 79.1892 140.064 78.3192C136.555 74.1433 132.607 69.4106 131.375 63.6548C130.254 58.4279 131.173 53.5004 132.141 48.2874C132.232 47.8072 132.322 47.327 132.406 46.8467C133.074 43.1998 133.714 39.2535 133.902 35.1542C133.958 33.9641 133.916 32.7252 133.889 31.5281C133.847 30.157 133.812 28.7372 133.902 27.3731L134.118 24.1715L134.571 27.3592L134.578 27.38Z" fill="#37000A"/>
<path d="M23.9428 286.732L23.5042 292.516C22.8637 293.574 22.063 294.506 21.0883 295.334C20.1206 296.156 18.9788 296.81 17.6629 297.283C16.3471 297.763 14.8433 298 13.1515 298C10.5964 297.979 8.32672 297.415 6.33555 296.309C4.34437 295.202 2.79182 293.65 1.67788 291.646C0.556971 289.641 0 287.282 0 284.554C0 281.825 0.550009 279.536 1.65699 277.538C2.76397 275.534 4.31653 273.982 6.32162 272.861C8.31975 271.74 10.673 271.184 13.3743 271.184C15.1914 271.184 16.8344 271.42 18.2895 271.901C19.7516 272.381 21.0187 272.972 22.1048 273.689L22.8428 278.881H22.5086C21.9655 276.717 20.8655 275.081 19.1946 273.968C17.5237 272.854 15.5813 272.29 13.3743 272.29C11.1673 272.29 9.34319 272.798 7.75582 273.821C6.17542 274.838 4.94312 276.264 4.07285 278.095C3.20258 279.925 2.76397 282.069 2.76397 284.519C2.76397 286.969 3.20258 289.119 4.07285 290.964C4.94312 292.808 6.16149 294.242 7.72101 295.272C9.28053 296.302 11.0907 296.845 13.1515 296.893C14.892 296.893 16.5072 296.566 17.9971 295.919C19.4801 295.265 20.7263 294.2 21.7358 292.711C22.7453 291.228 23.3789 289.231 23.6504 286.725H23.9428V286.732Z" fill="#37000A"/>
<path d="M44.0563 274.392H43.9449C43.9449 273.752 43.7082 273.209 43.2417 272.757C42.7753 272.304 42.2183 272.075 41.5848 272.075H41.1461L41.1113 271.706H44.0563V274.392ZM44.0563 294.798V297.485H41.1113V297.116H41.5917C42.2322 297.116 42.7753 296.886 43.2348 296.434C43.6873 295.982 43.931 295.432 43.9519 294.792H44.0633L44.0563 294.798ZM46.3399 271.706V297.485H43.9449V271.706H46.3399ZM56.2888 271.706V272.847H46.2285V271.706H56.2888ZM54.7084 284.226V285.333H46.2355V284.226H54.7084ZM56.2888 296.344V297.485H46.2285V296.344H56.2888ZM58.5376 291.52L56.4002 297.485H50.2874L51.6102 296.344C52.9121 296.344 53.9774 296.142 54.7989 295.738C55.6204 295.334 56.2888 294.764 56.804 294.026C57.3192 293.288 57.7717 292.453 58.1686 291.52H58.5376ZM56.2888 271.044V272.109L51.7912 271.706C52.3343 271.706 52.9052 271.664 53.5039 271.594C54.1027 271.518 54.6666 271.434 55.1818 271.337C55.697 271.239 56.066 271.142 56.2888 271.044ZM54.7084 281.867V284.296H52.571V284.219C53.0584 284.199 53.4761 284.004 53.8242 283.649C54.1653 283.294 54.3394 282.869 54.3394 282.375V281.86H54.7084V281.867ZM54.7084 285.256V287.686H54.3394V287.136C54.3394 286.642 54.1653 286.224 53.8242 285.862C53.483 285.507 53.0653 285.326 52.571 285.326V285.25H54.7084V285.256ZM56.2888 272.736V275.687H55.9198V275.026C55.9198 274.434 55.7109 273.926 55.2932 273.501C54.8755 273.07 54.3603 272.84 53.7476 272.819V272.743H56.2888V272.736Z" fill="#37000A"/>
<path d="M78.4285 274.392H78.3171C78.2893 273.752 78.0526 273.209 77.6 272.757C77.1475 272.304 76.5975 272.075 75.9569 272.075H75.4766V271.706H78.4215V274.392H78.4285ZM78.4285 294.798V297.485H75.4835V297.116H75.9639C76.6044 297.116 77.1475 296.886 77.607 296.434C78.0595 295.982 78.3032 295.432 78.3241 294.792H78.4355L78.4285 294.798ZM80.7121 271.706V297.485H78.3171V271.706H80.7121ZM85.4324 271.706C86.5394 271.706 87.535 271.866 88.4331 272.186C89.3312 272.506 90.0831 272.965 90.6958 273.564C91.3085 274.163 91.7819 274.893 92.1161 275.735C92.4502 276.585 92.6173 277.545 92.6173 278.624C92.6173 279.807 92.3389 280.934 91.7888 282.013C91.2388 283.092 90.4869 283.969 89.5401 284.644C88.5932 285.319 87.528 285.66 86.3514 285.66C86.7691 285.834 87.2217 286.182 87.716 286.711C88.2103 287.24 88.635 287.748 89.004 288.242C89.6654 289.196 90.2502 290.024 90.7515 290.706C91.2528 291.395 91.761 292.07 92.2832 292.731C92.7984 293.393 93.2439 293.922 93.606 294.318C94.1003 294.854 94.5876 295.341 95.0819 295.752C95.5763 296.17 96.1054 296.504 96.6832 296.747C97.2611 296.991 97.9016 297.116 98.6187 297.116V297.485H96.5927C95.4649 297.485 94.4902 297.311 93.6617 296.97C92.8401 296.622 92.1439 296.204 91.58 295.696C91.016 295.195 90.5357 294.708 90.1458 294.242C90.0692 294.144 89.8673 293.859 89.5401 293.393C89.2059 292.926 88.816 292.369 88.3635 291.715C87.9109 291.061 87.4584 290.421 87.0198 289.78C86.5812 289.14 86.1982 288.597 85.878 288.138C85.5577 287.686 85.3767 287.421 85.328 287.344C84.8615 286.732 84.3463 286.168 83.7824 285.653C83.2185 285.138 82.6058 284.881 81.9374 284.881V284.512C82.6963 284.54 83.3507 284.54 83.8868 284.512C84.5273 284.484 85.2236 284.387 85.9894 284.219C86.7483 284.045 87.4654 283.691 88.1268 283.155C88.7882 282.612 89.2894 281.791 89.6375 280.684C89.7141 280.412 89.7698 280.078 89.8186 279.668C89.8673 279.264 89.8812 278.867 89.8534 278.471C89.8325 276.8 89.4078 275.471 88.5793 274.476C87.7578 273.48 86.6578 272.952 85.2792 272.875C84.59 272.826 83.8868 272.805 83.1628 272.819C82.4387 272.833 81.5824 272.84 80.6007 272.84C80.6007 272.812 80.5728 272.708 80.5102 272.527C80.4475 272.339 80.357 272.068 80.2317 271.699H85.4255L85.4324 271.706ZM80.6077 294.798H80.7191C80.7191 295.439 80.9558 295.982 81.4222 296.441C81.8887 296.893 82.4387 297.123 83.0792 297.123H83.5178V297.492H80.6077V294.805V294.798Z" fill="#37000A"/>
<path d="M116.491 274.392H116.38C116.38 273.752 116.143 273.209 115.676 272.757C115.21 272.304 114.66 272.075 114.019 272.075H113.574L113.539 271.706H116.491V274.392ZM116.491 294.798V297.485H113.539V297.116H114.019C114.66 297.116 115.203 296.886 115.656 296.434C116.108 295.982 116.352 295.432 116.373 294.792H116.484L116.491 294.798ZM118.775 271.706V297.485H116.38V271.706H118.775ZM128.723 271.706V272.847H118.663V271.706H128.723ZM127.136 284.226V285.333H118.663V284.226H127.136ZM128.723 296.344V297.485H118.663V296.344H128.723ZM130.965 291.52L128.828 297.485H122.708L124.038 296.344C125.34 296.344 126.398 296.142 127.227 295.738C128.048 295.334 128.723 294.764 129.239 294.026C129.754 293.288 130.206 292.453 130.603 291.52H130.972H130.965ZM128.723 271.044V272.109L124.226 271.706C124.762 271.706 125.333 271.664 125.939 271.594C126.537 271.518 127.101 271.434 127.617 271.337C128.132 271.239 128.501 271.142 128.723 271.044ZM127.136 281.867V284.296H124.999V284.219C125.493 284.199 125.904 284.004 126.252 283.649C126.593 283.294 126.767 282.869 126.767 282.375V281.86H127.136V281.867ZM127.136 285.256V287.686H126.767V287.136C126.767 286.642 126.593 286.224 126.252 285.862C125.904 285.507 125.493 285.326 124.999 285.326V285.25H127.136V285.256ZM128.723 272.736V275.687H128.354V275.026C128.354 274.434 128.146 273.926 127.728 273.501C127.31 273.07 126.795 272.84 126.182 272.819V272.743H128.723V272.736Z" fill="#37000A"/>
<path d="M167.07 271.191V271.525L150.639 297.485H147.91V297.151L163.38 272.77H148.425V271.664H163.164C163.652 271.664 164.181 271.643 164.731 271.594C165.281 271.546 165.775 271.483 166.207 271.413C166.638 271.337 166.924 271.267 167.07 271.191ZM148.425 271.01C148.669 271.107 149.045 271.205 149.546 271.302C150.048 271.399 150.605 271.49 151.224 271.559C151.837 271.636 152.401 271.671 152.923 271.671L148.425 272.074V271.01ZM150.967 272.777C150.354 272.798 149.839 273.021 149.421 273.439C149.003 273.856 148.794 274.371 148.794 274.984V275.645H148.425V272.659H150.967V272.77V272.777ZM167.328 296.378L167.105 297.485H150.27V296.378H167.328ZM168.428 291.813L167.209 297.485H162.343L162.6 296.566L163.004 296.385C164.376 296.385 165.483 295.947 166.304 295.063C167.126 294.179 167.71 293.1 168.052 291.82H168.421L168.428 291.813Z" fill="#37000A"/>
<path d="M187.956 274.392H187.844C187.824 273.752 187.58 273.209 187.127 272.757C186.675 272.304 186.125 272.075 185.491 272.075H185.011V271.706H187.963V274.392H187.956ZM187.956 294.798V297.485H185.004V297.116H185.484C186.125 297.116 186.668 296.886 187.12 296.434C187.573 295.982 187.817 295.432 187.837 294.792H187.949L187.956 294.798ZM190.239 271.706V297.485H187.844V271.706H190.239ZM190.128 274.392V271.706H193.073V272.075H192.593C191.952 272.075 191.409 272.304 190.95 272.757C190.497 273.209 190.253 273.759 190.232 274.392H190.121H190.128ZM190.128 294.798H190.239C190.267 295.439 190.504 295.982 190.957 296.441C191.409 296.893 191.959 297.123 192.6 297.123H193.08V297.492H190.135V294.805L190.128 294.798Z" fill="#37000A"/>
<path d="M213.668 294.798C213.494 295.293 213.473 295.71 213.599 296.051C213.724 296.392 213.926 296.657 214.204 296.845C214.483 297.033 214.775 297.123 215.068 297.123H215.402V297.492H207.994V297.123H208.328C208.892 297.123 209.477 296.942 210.076 296.587C210.675 296.232 211.176 295.634 211.566 294.798H213.668ZM221.591 271.191L221.925 273.766L212.68 297.374H210.473L219.906 274.984C220.178 274.371 220.401 273.842 220.589 273.397C220.77 272.958 220.93 272.527 221.069 272.109C221.201 271.692 221.271 271.386 221.271 271.191H221.605H221.591ZM226.785 287.435V288.542H215.256V287.435H226.785ZM221.591 271.191L232.494 297.262H229.361L220.853 274.685L221.591 271.184V271.191ZM228.442 294.798H231.463C231.832 295.634 232.327 296.232 232.939 296.587C233.552 296.942 234.144 297.123 234.708 297.123H235V297.492H226.708V297.123H227.043C227.509 297.123 227.927 296.921 228.296 296.518C228.665 296.114 228.713 295.543 228.442 294.805V294.798Z" fill="#37000A"/>
<path d="M171.756 202.093C171.756 208.524 171.833 214.962 171.666 221.393C171.645 222.298 170.559 223.724 169.688 223.975C145.37 231.081 120.689 235.904 96.0151 226.752C71.2299 217.558 56.3449 198.509 48.9441 173.711C39.768 142.976 42.3927 113.195 60.1392 86.0377C75.9781 61.8035 98.8835 50.5285 128.166 52.4564C138.345 53.1246 147.883 55.2195 156.634 60.4881C165.65 65.9098 171.144 73.5378 173.232 84.1237C173.761 86.7824 173.587 92.5312 173.016 94.9254C170.482 105.574 164.648 114.128 156.725 121.373C148.607 128.792 140.329 136.037 132.1 143.331C123.801 150.688 121.622 159.694 129.197 168.776C123.335 169.632 116.484 162.986 115.704 155.114C114.715 145.141 118.886 136.705 125.597 130.135C134.467 121.456 144.242 113.675 153.884 105.825C162.399 98.8995 165.281 89.8795 163.402 79.6485C161.41 68.8121 154.908 62.1654 144.179 58.3862C124.943 51.6073 106.57 52.9018 89.9093 65.6453C75.5116 76.6558 67.5191 90.3667 63.2304 107.599C55.579 138.348 56.867 168.428 72.0723 196.866C80.2668 212.185 91.8518 223.467 109.396 227.671C131.794 233.037 156.753 225.882 169.159 203.986C169.57 203.256 170.057 202.567 170.503 201.864C170.921 201.947 171.339 202.031 171.763 202.107L171.756 202.093Z" fill="#37000A"/>
</g>
<defs>
<clipPath id="clip0_183_255">
<rect width="235" height="298" fill="white"/>
</clipPath>
</defs>
</svg>
